<?xml version="1.0" standalone="no"?>
<!DOCTYPE svg PUBLIC "-//W3C//DTD SVG 1.1//EN" "http://www.w3.org/Graphics/SVG/1.1/DTD/svg11.dtd" >
<svg>
<metadata>
Created by FontForge 20090622 at Sun Sep 20 13:21:15 2020
 By deploy user
Copyright (c) 2011 by M&#195;&#165;ns Greb&#195;&#164;ck. All rights reserved. PERSONAL USE ONLY! For commercial use, mail mawns@live.se
</metadata>
<defs>
<font id="SignericaMedium" horiz-adv-x="2090" >
  <font-face 
    font-family="Signerica Medium"
    font-weight="400"
    font-stretch="normal"
    units-per-em="2000"
    panose-1="0 0 0 0 0 0 0 0 0 0"
    ascent="1500"
    descent="-500"
    x-height="539"
    cap-height="1611"
    bbox="-1356.57 -1661.12 3545.76 2348.05"
    underline-thickness="50"
    underline-position="-50"
    unicode-range="U+0020-U+FB02"
  />
<missing-glyph horiz-adv-x="500" 
 />
    <glyph glyph-name=".notdef" horiz-adv-x="500" 
 />
    <glyph glyph-name=".null" horiz-adv-x="0" 
 />
    <glyph glyph-name="nonmarkingreturn" horiz-adv-x="500" 
 />
    <glyph glyph-name="space" unicode=" " horiz-adv-x="1875" 
 />
    <glyph glyph-name="space" unicode="&#xa0;" horiz-adv-x="1875" 
 />
    <glyph glyph-name="e" unicode="e" horiz-adv-x="1384" 
d="M183 550q23 5 40.5 -6t20.5 -31q3 -19 -9 -34t-32 -20h1q-5 -2 -7.5 -2h-6.5q-5 0 -16 -1t-34 -6q-4 -2 -8 -2q-17 -5 -43.5 -14t-61.5 -33q-17 -11 -33.5 -28.5t-25.5 -43.5q-6 -18 -6 -36q0 -44 25 -93q17 -35 60 -63q22 -14 46.5 -26.5t53.5 -20.5q57 -19 124.5 -28.5
t145.5 -11.5q48 -1 83 1.5l64 4.5h5q29 2 53.5 4.5t53.5 7.5t62 12t75 18h-1q44 13 101.5 34t133.5 56q76 37 137 72t109 67q51 32 87.5 58.5t62.5 47.5q53 40 77.5 60.5l33.5 28.5q17 14 38 12.5t32 -15.5q12 -14 9 -35t-20 -35q-5 -4 -13.5 -9.5t-28.5 -19.5l-21.5 -14
l-28.5 -19q-9 -5 -18.5 -11.5l-20.5 -14.5l-51.5 -32l-63.5 -40l-125.5 -71.5t-169.5 -83.5q-92 -40 -159.5 -63l-118.5 -39q-51 -15 -90 -24.5l-71 -17.5q-30 -7 -61 -11t-69 -8q-27 -3 -64 -3q-29 0 -61.5 2.5t-70.5 8.5q-81 13 -140 34t-99 42q-19 10 -39.5 23t-36.5 27
q-18 14 -34 32.5t-27 44.5v-1q-31 60 -31 118q0 19 3 34q8 35 25 61t35 43q33 30 62 46.5t49 26.5q3 0 6 3l34.5 14.5t24.5 9.5t21 6.5l22 5.5z" />
    <glyph glyph-name="f" unicode="f" horiz-adv-x="1450" 
d="M73 -993v3q-1 -1 -1 -5q0 -6 -1 -10q-5 -21 -12.5 -40t-16.5 -32.5t-19 -20t-19 -4.5q-14 4 -22 21t-8 43q0 11 1 24t5 29l-1 -1q2 10 5 23l8.5 35.5l14 58l21.5 90.5l-1 -2q10 69 23.5 176.5t31.5 269.5q24 210 37.5 355t21 239.5t10 146l3.5 72.5q0 6 0.5 11.5t0.5 7.5
q3 17 17.5 27.5t34.5 7.5q18 -2 30 -14.5t11 -29.5v-2q-1 -2 -1 -5.5t-1 -6.5q-2 -8 -5.5 -25t-9.5 -51.5t-15 -91t-20.5 -143.5l-26.5 -209.5t-33 -287.5q8 28 15.5 57l15.5 60l47.5 177l56 203.5l68 231l82.5 259.5l81.5 236t76.5 201.5t71.5 170t66.5 142.5
q66 132 125 223t122 158q33 34 69.5 61.5t81.5 44.5l-1 -1q14 6 25.5 9.5t22.5 5.5l-1 -1q8 2 14 3l12 2h9q8 0 20 -5q11 -5 16.5 -14.5t7.5 -16.5l-1 1q3 -11 3 -20t-1 -15q-1 -5 -2 -12t-3 -16v1q-2 -10 -5 -20l-6 -20l-3 -10q-17 -47 -38.5 -98t-48.5 -108.5t-61 -123.5
l-74 -142l-134.5 -248l-107.5 -195l-41 -73t-38 -68l-50 -89.5l-48 -85.5l-62 -112l-68 -121q4 -1 8 -1h8q25 -3 49 -4.5t47 -3.5q21 -1 40.5 -1.5t39.5 -0.5q24 0 46 0.5t44 1.5q78 3 147 10.5t129 18.5q115 20 194.5 43.5t134.5 43.5q57 20 90.5 35.5l59.5 27.5l48 22.5
t48 24.5q40 20 74 23.5t43 -14.5q4 -8 0.5 -19.5t-13.5 -24.5t-26 -25.5t-36 -22.5q-11 -6 -19 -9.5t-23 -9.5l1 1l-12 -5t-15 -6h1l-41.5 -16.5l-60.5 -23.5q-55 -20 -143.5 -47.5t-218.5 -52.5q-66 -12 -146.5 -22t-174.5 -14q-22 -1 -45 -1.5t-46 -0.5q-54 0 -112 3
l-55.5 4t-57.5 5l-21 3q-9 2 -24 4.5t-25 4.5q-5 10 -7 15t-2.5 6.5t-1 2t-1.5 2.5l4 16l5 11l9 15q4 6 7.5 12l7.5 13l139 249.5l153 289.5l171 329l185 374l53 117.5t41 102.5v-1q2 5 3 10t3 10q-9 -2 -17 -4.5t-15 -5.5q-30 -14 -58 -35.5t-54 -45.5v1q-24 -24 -47 -50.5
t-46 -57.5q-45 -62 -91.5 -141.5t-101.5 -194.5l-56.5 -126t-60.5 -148t-64 -174.5l-68 -204.5q-72 -226 -123.5 -414l-90.5 -343q-38 -153 -65.5 -277.5l-48.5 -218.5l-40 -190l-25 -124z" />
    <glyph glyph-name="a" unicode="a" horiz-adv-x="1470" 
d="M168 532q18 16 40 15.5t34 -14.5q11 -15 7.5 -35.5t-21.5 -36.5l1 1q-2 -1 -5 -3q-2 -2 -4 -3.5t-4 -2.5q-5 -3 -15.5 -11l-32.5 -25l-47 -41.5t-66 -64.5l-4 -4l-38 -44t-41 -53q-21 -30 -44 -69t-38 -87q-1 -2 -1 -3.5t-1 -3.5q-2 -3 -4 -6.5t-5 -2.5q0 -2 12 3
q6 2 12 3.5t11 3.5q26 11 55.5 28.5l61.5 37.5l64 41.5l67 45.5h-1l17 12.5l18 12.5l18 13q2 2 4 3.5t3 2.5l11 2l38 -1l12 -9l17 -11t19 -11h7q-1 -1 -2 -1.5t-2 -1.5q18 -11 37 -20v1q57 -32 94 -49t66 -29q29 -13 57 -22.5l60 -20.5q29 -8 67 -16.5t89 -13.5
q9 -1 21.5 -1h23.5q16 0 35.5 1t39.5 4q34 5 73 16.5t81 31.5q90 43 158.5 87t122.5 83q55 39 96 73.5l71 60.5l73 68.5t39 39.5l7 7q16 16 37 19t35 -10q15 -14 12.5 -36t-20.5 -40q-4 -3 -9 -7.5l-15.5 -13.5l-27.5 -23l-45 -37q-26 -23 -68 -54.5l-103 -75.5
q-28 -20 -65 -44t-80.5 -49.5t-92.5 -51.5t-100 -50q-51 -23 -102.5 -36.5t-93.5 -17.5q-30 -3 -61 -3q-23 0 -46 1.5t-42 3.5q-60 6 -106.5 16.5t-84.5 20.5q-38 11 -72 22.5t-74 28.5l-41.5 19.5t-45.5 24.5l-25 14.5l-27 15.5l-24 15l-135.5 -82.5t-107.5 -58.5
q-22 -11 -46 -21.5t-50 -18.5q-15 -4 -36 -4q-5 1 -9.5 2t-11.5 6l1 -1q-19 9 -22 30q-2 9 -1 17.5t3 16.5v3q1 5 3 13t5 16q14 47 34 83.5t39 66.5q20 32 38 55.5l34 43.5v-1q29 37 52.5 63.5l40.5 44.5l7 7q7 7 11.5 12.5t9.5 10.5l19.5 20.5l15.5 15.5t14 13t15 14z" />
    <glyph glyph-name="b" unicode="b" horiz-adv-x="1450" 
d="M1699 524q12 -16 -6.5 -46.5t-58.5 -57.5l-25.5 -15.5l-43.5 -25.5l-78.5 -43.5t-128.5 -62.5q-80 -37 -200 -84t-289 -94h1q-87 -25 -187 -49t-215 -45q-5 -1 -9.5 -1.5t-9.5 -1.5q-9 -2 -17.5 -3t-18.5 -3q-4 -2 -10.5 -4t-11.5 -4l11 73l31.5 14t31.5 16q56 29 114 70
t105 92q21 24 37.5 50t23.5 55q3 12 3 28q0 19 -6.5 37.5t-16.5 32.5l-8.5 10.5t-8.5 9.5t-7.5 7t-5.5 4l1 -1q-11 2 -21.5 -0.5t-20.5 -6.5l1 1q-25 -11 -47 -24.5t-42 -27.5q-34 -23 -66 -50l-63 -53l-18 -15l-55.5 -50l-51.5 -47l-1 -1q-4 -3 -7 -6.5t-7 -6.5l-28.5 -27
l-27.5 -26l-71.5 -66t-67.5 -57l-14.5 -11t-9.5 -8l-7 -3l1 1l-13 -7.5t-14 -5.5q-5 0 -13 1t-15 6q-8 8 -10 13.5t-2 10.5q-3 11 1 22q1 9 5 23l8.5 33l8.5 32q2 8 4.5 16t4.5 16l49.5 155t56.5 158q1 8 4.5 18t9.5 21l38.5 101l45.5 114l54.5 131l65.5 151l168 367.5
t131 258.5v-1q2 3 3.5 6t3.5 6l28 49t29 47l34 50t41 48l15 11.5t15 10.5q9 6 23 8q15 2 28 -3h-1q12 -4 22 -12t17 -19q11 -19 14 -39q3 -18 3 -39q0 -26 -4 -51t-9 -49q-12 -54 -29 -105t-34 -96t-36.5 -88l-36.5 -81q-34 -73 -70.5 -139l-68.5 -120q-64 -109 -114.5 -183
l-86.5 -123l-62.5 -83.5l-45.5 -56.5l-36.5 -43.5t-38.5 -43.5q-9 -9 -18.5 -17.5t-20.5 -15.5l-36 -94.5l-30 -83.5l-28.5 -76.5l-25.5 -71.5l-15 -45q3 3 5 4l12.5 10.5l12.5 10.5l45 39l35 32l38 34l47.5 42.5l51.5 45.5l52.5 46.5l57.5 48.5v-1l64.5 51t75.5 51l23 12.5
t23 11.5q12 5 26 9t33 3q11 0 22 -3.5t21 -11.5q6 -5 12 -11l11 -11l18 -24t16 -26q7 -16 11.5 -35t4.5 -36q0 -32 -11 -62v1q-11 -32 -28 -59t-39 -53q-29 -32 -61 -60t-66 -51q69 15 132 33q160 42 281.5 86.5t212.5 85.5q90 39 153 73.5t105 59.5q36 22 58.5 37t33.5 23
l4 2q38 26 71.5 34.5t45.5 -8.5zM639 1453q-77 -165 -156 -352.5l-165 -401.5l-4 -10l-4 -10q2 3 5 6t6 7q36 42 95.5 118.5t131.5 185.5l79.5 129.5t84.5 153.5l41.5 87t43.5 100q21 51 40.5 106.5t30.5 115.5q7 33 9 65q0 14 -1.5 28.5t-7.5 22.5q-3 6 -9 6q-3 0 -14 -9
q-12 -11 -23.5 -25t-22.5 -30l1 1q-45 -66 -83.5 -140l-77.5 -155v1z" />
    <glyph glyph-name="c" unicode="c" horiz-adv-x="1486" 
d="M1655 533q17 13 36.5 12t32.5 -15q12 -14 9 -35t-20 -35q-3 -2 -5.5 -4t-5.5 -4t-9.5 -6l-17.5 -10.5t-28 -18l-42 -28.5q-4 -2 -7.5 -5t-8.5 -6l-91.5 -59t-139.5 -80q-46 -25 -102 -52t-124 -54t-147.5 -54t-173.5 -49q-93 -21 -180 -31.5t-168 -11.5q-82 0 -154.5 10
t-132.5 35h1q-33 13 -61 31t-49 44q-10 12 -17.5 27t-12.5 32v-1q-5 15 -6.5 31t-0.5 30q2 52 15 97t31 80q17 33 39.5 61.5t42.5 46.5q19 17 38.5 30l36.5 24q26 16 42 23t24 10q2 1 3 2t4 1q22 7 41.5 -3t23.5 -29q4 -18 -6.5 -34.5t-30.5 -22.5q-2 -1 -6 -2.5t-8 -2.5
q-5 -2 -11 -3.5t-14 -4.5q-9 -3 -20.5 -8t-25.5 -13h1q-16 -10 -34.5 -23t-37.5 -33h1q-20 -21 -38.5 -50.5t-31.5 -69.5q-12 -40 -15 -94q-1 -21 9.5 -43t30.5 -39q23 -20 52 -33.5t64 -23.5q34 -11 74 -17t82 -8q14 -1 31.5 -1.5t32.5 -0.5q75 0 157.5 10t171.5 31
q83 19 155.5 43.5t136.5 50.5q61 25 112.5 50.5l93.5 47.5q84 47 140.5 85t89.5 63l62 52l37 33v-1l14.5 14t14.5 12z" />
    <glyph glyph-name="d" unicode="d" horiz-adv-x="1571" 
d="M1831 524q4 -8 -0.5 -19.5t-15 -23.5t-26.5 -23.5t-37 -21.5q-8 -4 -14.5 -6.5t-14.5 -6.5q-7 -3 -16.5 -6.5t-25.5 -10t-38.5 -16.5l-55.5 -24l-69 -30l-90 -39l-83 -36.5l-99 -42.5l-28.5 -12t-29.5 -13l-111.5 -47l-126.5 -52l-91.5 -35t-98.5 -35q-5 -2 -8.5 -2.5
t-8.5 -2.5q-24 -8 -49 -15.5t-45 -11.5q-6 -2 -14.5 -2.5t-17.5 -1.5h-10l-5 1q-4 0 -7 0.5t-8 2.5q-11 5 -16.5 13t-7.5 16v-1q-5 15 -6 31.5t0 30.5q0 2 0.5 5.5t0.5 5.5q8 66 23.5 137t35.5 149l10.5 43l6.5 25.5t7.5 26.5l13.5 47q-85 -108 -162.5 -194.5t-152.5 -157.5
q-60 -55 -119 -101t-125 -75q-16 -7 -34.5 -12.5t-35.5 -7.5q-20 -2 -41.5 1t-40.5 14l1 -1q-10 5 -19.5 12.5t-17.5 17.5q-7 10 -10.5 20.5t-5.5 21.5q-3 20 -0.5 36.5t6.5 31.5q8 30 18 51.5l20 41.5q22 39 42 70q20 30 38 54.5l32 43.5l47 60t26 30q14 16 30 28.5
t30.5 19.5t27 7.5t19.5 -5.5q7 -7 7.5 -19t-4.5 -27t-15 -31t-24 -32q-5 -7 -13 -16l-18 -20q-5 -5 -9 -10l-10 -12q-11 -12 -23 -27l-29 -36q-2 -2 -3.5 -4.5t-3.5 -4.5l-33 -46l-35 -53q-10 -16 -19.5 -35t-17.5 -42q-3 -10 -5 -19t-2 -17q0 -15 9 -20q13 -7 30 -7
q32 0 68 17q29 14 61.5 34.5t64.5 45.5q65 51 135.5 120t143.5 150l108 127.5l113 142.5q1 2 0.5 2.5t0.5 2.5q52 169 117 359t150 398q53 128 97.5 224t87.5 173l6 10l18 29.5t22 31.5q7 10 13.5 18t11.5 13l16 12t19 10q5 2 13.5 3t19.5 -2l-1 1q11 -2 18.5 -7.5
t12.5 -12.5q16 -21 23 -44.5t9 -45.5q3 -44 -3 -85t-18.5 -85t-29.5 -89t-39 -98t-51 -110q-58 -116 -145 -266.5t-223 -344.5l-15 -21l-34.5 -49.5l-34.5 -47.5l-16 -51.5l-16 -49.5q-4 -11 -7 -22.5t-7 -22.5v1l-33 -112.5t-29 -109.5q-7 -27 -13 -54.5l-12 -56.5
q0 -2 -0.5 -4t-0.5 -3q-5 -27 -9.5 -55.5t-5.5 -57.5q-2 -9 0 -20h5q5 0 7 1q3 1 6 1t6 1q20 5 43 12t46 15q85 29 162 61l139 58l119 53l186.5 86l129.5 62l85.5 42l60.5 30l50.5 25l51.5 25q20 9 39.5 14t35.5 5.5t27.5 -3.5t15.5 -12zM940 1150l-58 -151.5l-49 -133.5
q66 95 122 185t102.5 172t84 155t64.5 133q26 62 46 122t31 112q5 26 8 50.5t1 45.5q-2 24 -7 40l-3 7.5l-3 7.5l-3 -3q-5 -6 -10.5 -14l-10.5 -16q-11 -17 -22 -36t-19 -36q-20 -38 -38.5 -77.5l-38.5 -84.5l-88.5 -208zM1272 1901q2 -4 5 -4q-1 1 -1 1.5t-1 1.5q1 0 0 2
q0 -1 -2 -1h-1zM1274 1901l1 -1z" />
    <glyph glyph-name="g" unicode="g" horiz-adv-x="1613" 
d="M1869 523q9 -17 -9 -42.5t-53 -45.5h1q-5 -2 -11.5 -6t-11.5 -6q-6 -3 -14 -7.5t-21.5 -11.5l-34 -18l-49.5 -27l-113 -64.5l-171 -101.5l-239 -151t-316 -213q-96 -68 -204.5 -153t-222.5 -185l-118.5 -106.5t-120.5 -118.5l-55.5 -57.5l-55.5 -60.5q-38 -91 -72.5 -165
l-64.5 -139q-2 -5 -4.5 -10.5t-4.5 -10.5l-52.5 -108.5l-46.5 -93.5q-9 -18 -20.5 -32t-37.5 -12v-2l-37 10l1 1q-18 7 -37 16q0 51 13 102l-1 -1q8 38 23 77t35 81q40 79 106 170t173 203l49 126.5t51 144.5q65 194 106 358t63 302q-20 -12 -38.5 -22t-37.5 -18v1
q-29 -14 -61 -20.5t-65 -1.5t-63 25q-25 19 -41 43q-32 47 -32 99q0 25 7 47t15 39q17 32 37.5 55t37.5 39q35 30 56 44.5t31 20.5h-1q18 12 36.5 17.5t34.5 5.5t27 -4.5t14 -13.5l-1 1q4 -9 0.5 -19.5t-12.5 -22t-21.5 -22.5t-27.5 -21q-2 -2 -7.5 -4.5t-7.5 -4.5
l-17 -10.5t-23 -15.5q-11 -8 -23 -18t-26 -24q-13 -14 -26.5 -35t-18.5 -48q-4 -23 13 -55q8 -15 20.5 -26t29.5 -14q21 -5 45.5 0.5t50.5 16.5t55 29.5t57 39.5l3 3q4 4 7 6q2 2 5.5 4t10.5 7q3 -2 4.5 -2.5t4.5 -2l10.5 -5l22.5 -10.5l-1 -16v-5l1 -7l-2 -6q-2 -10 -3 -20
t-3 -21q-2 -8 -2.5 -15t-2.5 -15v1q-2 -13 -4.5 -26.5t-5.5 -27.5q-8 -42 -19.5 -90l-22.5 -95q-11 -45 -26.5 -100l-33 -113.5l-36.5 -117l-36 -109.5l-15 -43.5l-11 -32.5t-11.5 -31.5l-16.5 -41.5l80 73.5l73 63.5l102.5 87l90.5 73l82 64l80.5 62l83 62.5l89.5 65.5
l273.5 189.5l208.5 138.5l154 99l108 69l46 30l37 24l36 23l30.5 18.5l29 17l30.5 18.5q17 10 34.5 15.5t32.5 7t26 -2t16 -11.5zM-111 -1072q6 14 12.5 27l13.5 27q-65 -91 -105 -171.5t-54 -142.5h1l61 114.5z" />
    <glyph glyph-name="h" unicode="h" horiz-adv-x="2257" 
d="M2509 530q11 -16 -7.5 -46t-56.5 -58q-2 -1 -6.5 -4t-8.5 -5h1l-21.5 -14l-32.5 -21l-78.5 -48.5l-120.5 -72.5l-86 -47.5l-107 -54.5q-57 -28 -130 -58.5t-158 -58.5q-45 -14 -92 -26.5t-99 -21.5q-38 -6 -79.5 -10t-86.5 -4h-30.5t-30.5 2q-62 4 -126.5 20t-126.5 48
q-63 32 -120 81.5t-102 115.5q-20 30 -37 61t-31 61l-12 30.5t-11 30.5l-6 20l-89.5 -56.5l-82.5 -53.5l-161 -106l-136 -94l-60.5 -42.5l-54.5 -40.5q-4 -2 -8.5 -5.5t-7.5 -5.5q-8 -5 -14.5 -10l-21.5 -17q-4 -3 -7 -5q-2 -2 -2 -3.5t-1 -3.5q0 -1 -2 -5t-5.5 -7.5
t-9 -5.5t-12.5 1l-5 -6l-28 29l1 11l1 21l4 2q2 1 4 1.5t4 2.5l-10 -4l6 6l4 3l40.5 92l36.5 83l27 62l26 60l11.5 26.5l8.5 20l8.5 21t12.5 29.5q-11 0 -22 3.5t-15 10.5q-9 17 11 44.5t53 54.5l8.5 7t7.5 6q3 2 9 7l12 10l92 205l123 269l50.5 112l47.5 102l106.5 230.5
l88.5 190.5q1 2 2 4.5t2 4.5l24.5 53t24.5 52v-1q6 14 12.5 27.5t13.5 26.5l6 12q2 3 4.5 7.5t4.5 8.5q1 1 3 5l3 4q1 5 7 11q1 1 1 1.5t1 1.5l-4 -5q1 3 5.5 7t8.5 7q5 4 13.5 8t19.5 2h-2q14 0 23.5 -9t12.5 -17l-1 1q5 -12 6.5 -22t1.5 -18q1 -14 0 -27.5t-3 -25.5
q0 -3 -0.5 -7t-0.5 -7q-4 -28 -11.5 -61l-16.5 -70q-29 -109 -62 -201.5t-65 -173.5q-33 -79 -64 -146l-60 -124q-59 -114 -107.5 -190t-86.5 -128q-37 -51 -65 -83.5l-50 -56.5q-14 -15 -27.5 -28l-27.5 -26l-53 -115.5l-46 -99l-42.5 -89.5l-41.5 -86l80.5 55.5l91.5 62.5
l120.5 80.5l142.5 93.5l30 18.5l31 20.5q5 3 9.5 6t9.5 6l22 13.5l22 13.5h-1q2 2 4 2.5t4 2.5l-1 -1q9 6 19 11l-3 -2q12 1 18.5 5t11.5 4t10.5 -7t15.5 -26q0 -1 0.5 -1.5t0.5 -1.5v2l3 -12q14 -48 37.5 -98t56.5 -97q33 -48 74 -86t87 -66q45 -28 93 -45t97 -26h-1
q32 -5 63 -8t60 -3q64 0 121.5 9t111.5 22q79 19 148.5 45t129.5 53q58 26 110.5 53l95.5 51q88 50 148.5 89.5l102.5 67.5l64 43.5t31 22.5q19 13 38 22t35 13t28 2.5t18 -9.5zM742 1519l-34.5 -78l-34.5 -81l-124 -285.5l-137 -312.5q33 42 72 98.5t84 133.5q35 61 72 134
t77 161q38 88 77 194.5t72 227.5q8 31 15 65t9 70l-3.5 -7t-3.5 -6l-63.5 -136.5l-64.5 -147.5l1 1q-3 -8 -6.5 -15t-6.5 -15zM757 487q0 2 -0.5 3t-0.5 2z" />
    <glyph glyph-name="i" unicode="i" horiz-adv-x="1840" 
d="M2092 528q8 -17 -1 -36t-29 -28q-5 -2 -8 -3.5t-8 -2.5l1 1q-3 -1 -9 -2.5t-18 -5.5l-32 -11l-53 -19l-111.5 -41.5l-170.5 -63.5l-243.5 -88.5t-333.5 -109.5q-195 -58 -356 -91.5t-297 -36.5q-68 -1 -129.5 8.5t-112.5 38.5q-26 15 -47 34.5t-34 42.5q-14 23 -21 47.5
t-9 44.5q-3 43 3 78t13 64q10 35 17 54.5t13 33.5q11 29 20.5 47t14.5 26q12 20 32.5 26.5t36.5 -4.5q14 -11 18 -29.5t-5 -35.5q-4 -9 -4.5 -10t-2.5 -3l-7.5 -12l-11.5 -18q-7 -10 -13 -22l-14 -28q-8 -18 -16.5 -41t-15.5 -52q-3 -14 -5 -30t-2 -34q1 -18 4.5 -36
t13.5 -34q10 -17 26.5 -32.5t39.5 -27.5q24 -12 52 -19.5t60 -11.5q43 -6 91 -6q50 0 105.5 5.5t118.5 15.5q90 15 194 41t214 58l158.5 50.5l145 50.5l127.5 47.5l105 40.5l158.5 65l109.5 48h-1q50 23 76 36.5l42 21.5l21.5 10.5t21.5 9.5q21 8 40.5 2t27.5 -23zM565 1043
q-16 -2 -30 -3.5t-28 -3.5q-56 -7 -94 -10.5t-62 -3.5q-37 0 -51 10t-16 33q-2 20 7 34t21 14h4.5t7.5 -2l-2 1q7 -2 28.5 -4t76.5 -2q43 0 109.5 2t166.5 8q81 5 131.5 10t80 9.5t43.5 8t21 6.5q10 3 18 4q6 2 13.5 4t14 0.5t11.5 -7.5t6 -20q1 -18 -10.5 -28.5t-35.5 -17
t-60.5 -10.5t-85.5 -7l-124.5 -9t-160.5 -16z" />
    <glyph glyph-name="j" unicode="j" horiz-adv-x="1532" 
d="M1797 540q8 -17 -12.5 -41t-57.5 -41q-15 -7 -25 -10l-38 -15.5l-82 -33.5l-117.5 -49l-179.5 -78h1q-14 -7 -30 -13t-32 -14l-233 -106.5l-298 -143.5q-102 -51 -220 -118t-242 -149q-61 -41 -125.5 -90t-129 -106t-125.5 -121.5t-115 -136.5q-63 -88 -106 -163.5
t-74 -135.5l-9 -18l-58 -119.5l-53 -117.5l-27.5 -65.5l-29.5 -72.5q-8 -19 -16 -40.5t-17 -43.5q-2 -4 -4 -7t-2 -6q-2 -3 -2 -4.5t-1 -3.5v1q-1 -3 -2.5 -6t-2.5 -6l-33 -18q-2 1 -11 2.5t-16 3.5l-8 26q0 1 0.5 2.5t0.5 2.5l2 8q3 13 7 28l8 29q33 110 88 250.5
t136 329.5l154 346l131 283l84.5 178.5l70.5 148.5v-1l19 41t18 38l84.5 175l49.5 102l10.5 21t6.5 14q9 18 20.5 32.5t23 23.5t22.5 12t20 -2q17 -9 16.5 -40t-17.5 -66q1 3 -5 -9t-10 -19l-35.5 -66l-71.5 -135l-83 -159.5l-114 -227.5l-119.5 -241.5l-143.5 -303.5l30 42
q34 47 76.5 96.5t98.5 102.5q74 69 141 120t127 92l111 71.5l98 58.5l89.5 51.5l87.5 48.5l89.5 48l96.5 50l273.5 135l211.5 101q8 4 14.5 6.5t13.5 6.5l162.5 78l114.5 55l63 31l48 24l54.5 26l52.5 24q37 16 68 15t39 -18zM406 1266q-49 0 -65 9l2 -1q-9 4 -15.5 12.5
t-6.5 20.5q-2 15 6 26.5t24 11.5l1 1q1 1 6.5 3.5t11.5 4.5q7 3 15 6q2 -2 10.5 -7.5t36.5 -10.5q21 -4 51.5 -6t75.5 -2q42 0 100.5 2.5t132.5 9.5q58 6 102 11t76.5 10t55 9t36.5 8q17 4 26 7t14 5t9.5 3.5t10.5 1.5h-3q14 2 24.5 -10t12.5 -32t-5 -34.5t-20 -16.5
q-1 0 -4.5 0.5t-4.5 0.5q-2 1 -9.5 2.5t-28.5 1.5q-14 0 -37 -1t-57.5 -3t-82 -6t-110.5 -10l-144 -12l-110.5 -8.5t-81 -5t-55.5 -1.5zM-728 -1548q-13 4 0 2v-2z" />
    <glyph glyph-name="k" unicode="k" horiz-adv-x="1646" 
d="M1893 531q12 -16 -1.5 -43t-45.5 -50q-5 -4 -10.5 -6.5t-11.5 -6.5l-12.5 -7.5t-19.5 -12.5l-30 -19.5l-44 -28.5q-6 -4 -13 -7.5t-15 -8.5h1l-98.5 -60t-142.5 -80l-111 -55t-132 -57q-73 -28 -161 -53.5t-193 -33.5q-15 -1 -30.5 -1.5t-31.5 -0.5q-45 0 -91.5 6.5
t-93.5 24.5q-17 7 -33 15t-31 19q-8 7 -16 15t-19 21q-1 1 -3 9q-4 9 -4 21q0 8 1 15t5 15l-1 -1q8 19 18.5 34t21.5 29q1 1 2.5 3t2.5 3l21 24t23 23q2 2 10 8l-82 -41.5l-72.5 -37.5l-67.5 -36l-69 -38q-29 -15 -58.5 -32l-63.5 -38q-15 -8 -32.5 -19.5l-38.5 -25.5l1 1
q-9 -7 -19 -13.5l-20 -13.5h1q-3 -2 -6 -4.5t-5 -4.5q-5 -5 -6.5 -5.5t-2.5 -0.5q-5 -5 -11 -9l-15 3q-5 4 -10 4.5t-19 8.5l-14 14q0 2 1 3.5t1 3.5q28 109 76 245.5t120 314.5l140.5 332l120.5 271l87 192l72 156q5 10 8.5 19.5t8.5 18.5v-1l59 126l41.5 88.5l26.5 56
l14 28.5q9 17 19.5 31t22 22.5t22 11.5t19.5 -2q17 -9 17 -39t-17 -65v1l-8.5 -17t-12.5 -23l-33 -62l-59 -116l-4.5 -9t-2.5 -3l-75 -149l-100 -208l-139 -295t-171 -388q-44 -103 -77.5 -190.5t-60.5 -165.5l-23 -68.5t-20 -65.5q4 2 6 4h-1q43 31 82.5 56l74.5 47
l10.5 6.5l10.5 6.5h-1q3 2 11.5 6.5t16.5 9.5l58 35t55 32l124 71.5l132 72.5l76.5 40l87.5 44l48 24l26.5 12.5l27.5 13.5l4 2l16 10t15 10l18 13l27 19q2 -3 5 -8.5t5 -15.5t4 -27t2 -44h-1l-4 -2l9 2l-38.5 -19l-38.5 -19l-118 -82.5t-100 -75.5q-26 -20 -48.5 -40
l-42.5 -38q-19 -18 -36 -37t-27 -39v1q-3 -7 -2 -9q0 -3 4 -7q7 -7 15 -13t16 -11q18 -11 38.5 -18.5t42.5 -12.5q51 -12 114 -12q17 0 35.5 1t38.5 3q85 9 156.5 30t133.5 45q61 23 113.5 48t95.5 48q85 46 145 83.5t98 63.5l78 55.5l51 38.5l27 19l28 20h-1
q32 23 61.5 28.5t41.5 -10.5zM54 0v3v-3z" />
    <glyph glyph-name="l" unicode="l" horiz-adv-x="1489" 
d="M1737 529q11 -17 -6 -42.5t-52 -45.5q-7 -4 -15 -8l-20 -10q-5 -2 -10.5 -5l-12.5 -7l-64 -29l-105 -46l-159.5 -65.5t-230.5 -84.5q-66 -23 -146.5 -48.5l-169.5 -51.5l-93.5 -26l-100.5 -26q-54 -13 -112.5 -25.5t-112.5 -21.5q-14 -2 -28.5 -3.5t-27.5 -3.5
q-4 0 -8.5 -0.5t-7.5 -0.5h-13q-2 0 -4 0.5t-4 0.5q-6 0 -12 0.5t-14 3.5q-20 14 -29.5 26.5t-15.5 26.5q-5 13 -8.5 26t-5.5 26q-2 16 -3 31.5t-1 32.5q0 34 3 64t7 58q4 29 7.5 50t7.5 40l8 37l9 41q-19 -5 -34 -1.5t-20 14.5q-9 17 7 41.5t44 47.5q3 3 5 3.5t4 2.5l-2 -1
q5 3 9.5 6t12.5 9q2 2 3 2.5t3 2.5q30 111 55.5 194.5l48.5 152.5l46.5 136.5t53.5 142.5l72 172t107 225l85 156t84 127l5 5l20.5 23.5t24.5 20.5q7 4 14 7.5t13 4.5q9 2 16.5 0.5t15.5 -5.5q14 -8 20.5 -19t9.5 -21q5 -18 6.5 -34t0.5 -31q0 -16 -1 -29.5t-3 -25.5
q-6 -49 -17 -96.5t-25 -95.5q-13 -46 -28 -93.5t-34 -99.5q-62 -166 -122.5 -288.5t-112.5 -210.5q-54 -92 -95 -150t-71 -96q-29 -36 -52.5 -61.5l-43.5 -45.5l-29 -28t-28 -24q0 -1 -0.5 -2.5t-0.5 -2.5l1 1q-1 -4 -2.5 -7.5t-2.5 -8.5q-12 -48 -24 -109.5t-20 -132.5
q-2 -15 -2.5 -32t-0.5 -33q0 -21 1.5 -41t6.5 -39q3 -16 16 -33l4 -4q20 -2 42 0.5t44 6.5q96 17 185 40t163 44h-1q79 23 149 46t133 46q127 45 223.5 83t171.5 71q121 54 186.5 88.5l91.5 48.5h-1q5 3 6 3t3 2q37 21 69 24t42 -15zM346 774q-11 -29 -22 -61.5t-22 -69.5
q32 33 77 86.5t104 141.5q60 90 133 229t144 323q20 53 37.5 111t31.5 115q7 29 12.5 61t9.5 65t3 65q0 10 -3 25q-7 -6 -14 -16q-9 -11 -19.5 -26l-21.5 -32q-20 -32 -39 -66.5l-37 -69.5q-38 -73 -74 -151l-74 -163q-47 -107 -79 -187l-58 -144q-2 -5 -3 -9t-3 -8
l-42.5 -109.5t-40.5 -109.5zM860 1872l-1 -1z" />
    <glyph glyph-name="m" unicode="m" horiz-adv-x="2918" 
d="M3174 527q9 -16 -4.5 -41t-44.5 -42h1q-5 -3 -8.5 -5.5t-17.5 -8.5h1l-31.5 -15t-62.5 -33l1 1q-5 -3 -11.5 -6.5t-12.5 -7.5q-36 -20 -89 -47l-128 -65l-96.5 -48l-114.5 -53t-138.5 -58t-158.5 -56q-26 -8 -52.5 -12.5t-55.5 -5.5q-28 0 -58.5 6t-59.5 18
q-57 26 -104 74.5t-79 106.5q-31 57 -54 128q-2 4 -3 7q0 -1 -1 -1l1 1q-57 -49 -118 -96.5t-129 -92.5q-89 -59 -157.5 -94t-128.5 -58t-117 -30q-10 -2 -22.5 -2.5t-24.5 -0.5q-20 0 -40.5 3t-40.5 11q-32 13 -60.5 39t-49.5 61q-20 35 -33.5 76t-21.5 89v-1
q-7 37 -10.5 79t-3.5 91v8q-12 -7 -23.5 -14.5t-22.5 -15.5l-57 -36l-60 -38q-4 -2 -9 -5t-9 -6l-271.5 -164t-233.5 -125q-26 -13 -54 -24.5t-57 -20.5h-1q-14 -5 -28 -8t-31 -2q-5 0 -11 1t-14 5q-9 3 -16 9.5t-10 13.5q-1 2 -2.5 7.5t-2.5 8.5q0 1 -0.5 3t-0.5 3
q0 14 1 20.5t3 14.5q6 23 13.5 40.5l14.5 33.5q2 4 3.5 8t3.5 7q5 12 12 24.5t12 23.5q3 5 6 11.5t6 11.5l-1 -1l58.5 108.5l42.5 75.5l16 26.5t12 20.5t8.5 14.5t5.5 9.5q19 29 43 44t41 4q16 -11 14.5 -38.5t-19.5 -57.5q-3 -5 -6.5 -11.5t-9.5 -15.5l-34 -52l-64 -102
q-16 -26 -33.5 -57.5l-37.5 -69.5q-2 -4 -3.5 -7.5t-3.5 -7.5q-14 -27 -23 -53q15 3 34 9q2 1 4 1.5t4 1.5h-1q57 20 120.5 51.5l135.5 69.5h-1l153 85l172 100q5 3 9 6t9 6l70 43.5l65 40.5q5 3 11 7.5t17 9.5h-1q11 7 19 8.5t19 9.5l14 14q2 1 3 2t3 2l33 -16v-1
q0 -1 2 -1l-3 -18v-8q-1 -9 -1 -17.5v-16.5q-1 -72 7 -131.5t23 -108.5q14 -48 37 -82.5t53 -52.5q17 -11 35.5 -15t36.5 -4q10 0 23.5 2t24.5 4q31 7 59.5 16t53.5 20l56 26t58 31q60 34 138 84.5t174 122.5l57.5 44.5l53.5 42.5l2 2q1 1 5 4.5t6 5.5h1l8 8q12 -5 19 -7.5
l11 -4l6.5 -2.5t5.5 -2v-17q22 -10 21.5 -22t-12.5 -17v-3q0 -1 1 -1q5 -15 9.5 -31.5t9.5 -30.5v1q40 -107 95 -168q54 -62 127 -77q27 -6 52 -6q26 0 52 5t54 14q73 23 134.5 49l114.5 50h-1l99.5 49l83.5 43l130 71.5l90 52.5q37 22 60 37.5t41 26.5l34.5 21l35.5 21h-1
q30 19 58 20t39 -15v-1zM1848 432q0 -2 1 -2q0 1 -0.5 1.5t-0.5 1.5v-1zM36 -3h2h-2z" />
    <glyph glyph-name="n" unicode="n" horiz-adv-x="2416" 
d="M2573 518q23 18 47.5 19.5t36.5 -13.5q11 -15 2 -39t-30 -41q-2 -2 -6.5 -5t-8.5 -5t-9.5 -5.5l-14 -8.5t-20.5 -13l-30 -20l-10.5 -6.5t-10.5 -7.5q-56 -37 -159 -100l-73 -42.5t-88 -46.5q-47 -23 -105.5 -49t-125.5 -49q-36 -12 -76.5 -24t-85.5 -22.5t-93 -17
t-99 -7.5t-108.5 7t-113.5 26q-57 19 -114.5 51t-107.5 77q-63 57 -99 108.5t-62 94.5q-25 42 -42 81q-3 -1 -7 -3l-87.5 -42t-109.5 -60l-106 -64.5l-129 -82.5l-51.5 -33l-55.5 -35l-113 -66t-108 -54q-28 -12 -56 -21.5t-54 -14.5q-23 -5 -50 -5q-35 0 -64 10q-2 1 -5 2
t-5 2t-3 1t-3 1l6 -1q-2 1 -5 1l-11 6q-13 10 -16 16q-8 14 -8 23v17v7q2 15 5 27t8 23v-1q8 22 16 40.5l16 35.5q33 67 62 115q54 95 82 140.5l35 56.5q16 24 39.5 34.5t38.5 -0.5q16 -11 16.5 -35t-16.5 -50v1q-2 -5 -6.5 -11l-8.5 -11q-10 -13 -28 -39l-52 -78
q-4 -4 -6.5 -9l-4.5 -9l-23.5 -36.5l-26.5 -43.5l-18 -31t-18 -34q-10 -19 -19 -38.5t-16 -39.5v1q-3 -9 -3 -16q4 -2 5 -2h-1q5 -2 11 -3t14 -2q24 -2 51.5 2.5t55.5 13.5q26 8 58 22t65.5 31l68 36l65.5 37l92 57l82 52q12 8 25.5 15.5t24.5 15.5l168 102l66.5 39t59.5 33
l40 20v6q2 -1 3.5 -1.5t3.5 -1.5l6 3l6 3t5 3l46 -24q3 -6 5.5 -11.5t5.5 -10.5q24 -44 49.5 -82t60.5 -81q17 -21 37 -43t45 -45q26 -23 57.5 -47t73.5 -46q56 -29 105.5 -43t93.5 -19q45 -6 82 -6q17 0 36 1t36 3q63 8 125.5 23.5t128.5 38.5q112 42 192 86l137 78h-1
q58 37 96.5 64.5l65.5 47.5l45 35l31 25l22.5 18.5t24.5 18.5zM-3 51q1 2 1 4zM-7 58q1 0 1 -0.5t1 -0.5q-1 1 -2 1z" />
    <glyph glyph-name="o" unicode="o" horiz-adv-x="1356" 
d="M1532 538q20 8 39.5 2t27.5 -23t0 -36t-28 -28q-3 -1 -7 -2t-6 -2q-5 -2 -15 -4.5t-38 -12.5q-20 -8 -53 -19.5l-79 -27.5l-113.5 -36.5t-155.5 -43.5l-24.5 -6.5l-25.5 -6.5l-83 -21t-93 -20q-64 -12 -140 -21t-160 -7q-54 1 -93 3t-69 4q-14 1 -23.5 1t-16.5 2v-1
l-9 -12q-2 -3 -4.5 -5.5t-4.5 -5.5q-3 -4 -7 -8t-7 -8l-39 -44.5t-51 -51.5q-17 -17 -41.5 -36.5t-52.5 -36.5q-14 -9 -33 -18t-38 -15q-21 -8 -45 -9q-4 -1 -8 -1h-6q-6 0 -10 1h-3q-18 1 -33 9h1q-29 14 -45.5 38.5t-23.5 49.5q-7 23 -9 44t-3 41q0 21 1.5 40t3.5 36
q2 16 5.5 33t8.5 34v-1q9 33 22.5 60t30.5 49t35 38.5t35 28.5l-1 -1q34 24 61.5 35.5t46.5 17.5q20 6 30.5 8.5t15.5 3.5q23 4 41.5 -9.5t18.5 -33.5q0 -19 -12.5 -32.5t-31.5 -17.5q-2 0 -6 -0.5t-6 -0.5q-1 -1 -6 -1t-10 -1q-2 0 -3 -0.5t-3 -0.5q-24 -5 -62 -19
q-13 -5 -27.5 -13.5t-28.5 -20.5q-15 -12 -30.5 -30t-27.5 -44q-14 -26 -21.5 -59t-11.5 -73q-3 -21 -3 -39q0 -22 4 -42q3 -19 11.5 -37t26.5 -27h-1q10 -5 25 -5q22 0 47 10q20 7 36 15.5t30 17.5q26 17 48.5 39l41.5 42q20 22 33.5 39l24.5 32q8 10 13 18l9 15l4 6l4 6
l-1 -1q1 2 2 3.5t2 3.5l-2 -9q0 1 1 1.5t1 1.5l23 22l8 2q20 2 41.5 2.5t41.5 0.5q12 0 24 -0.5t26 -0.5h33.5t37.5 -1q24 -1 56 -1.5t65 -0.5q83 1 140 7.5t102 14.5q49 9 87.5 18l81.5 20q65 18 126.5 39.5t101.5 37.5q35 14 59.5 25l43.5 20q2 1 4.5 2t8.5 4l33 17l23 12
l-1 -1q10 5 18 9.5t19 9.5z" />
    <glyph glyph-name="p" unicode="p" horiz-adv-x="2093" 
d="M134 462q9 22 21 39t24 28.5t23.5 16t20.5 0.5q8 -4 12 -15.5t3 -28.5t-6 -37t-14 -41q-4 -8 -7 -15.5t-8 -15.5q-4 -7 -9 -17.5t-13.5 -26.5t-19.5 -39.5l-27 -56.5q-5 -9 -9.5 -18.5l-9.5 -20.5l-61 -133.5l-82 -184.5q-3 -7 -6.5 -14t-6.5 -15l-129 -300t-161 -403
l-49 -137.5t-46 -148.5l-8 -31l-8 -33l33.5 71l33.5 74l137.5 295.5t164.5 316.5q71 127 134 224t114 166q50 68 101 129.5t108 121.5q64 67 137 127v-1q42 34 91.5 68.5t112.5 64.5q33 16 69.5 29.5t77.5 22.5q54 12 120 12q14 0 30.5 -0.5t30.5 -2.5q2 -1 5 -1.5t5 -0.5
q5 0 13 -2.5t15 -6.5q8 -4 12.5 -10.5t6.5 -13.5q5 -13 5 -25q0 -17 -4 -31t-9 -26q-1 -2 -1 -2.5t-1 -2.5v1q-12 -27 -24.5 -50t-26.5 -46q-29 -46 -63 -93.5l-71 -97.5l-30 -39l-23 -30l-23 -29l-19 -23l-18 -23l201 73h-1q105 19 195 42t169 46q163 51 285.5 99.5
t215.5 90.5q94 43 159 76.5l110 56.5h-1l68.5 37.5t34.5 19.5q41 23 75.5 28.5t45.5 -10.5q5 -8 2 -20.5t-13 -26t-26.5 -27t-37.5 -25.5v1q-11 -7 -27.5 -15.5l-46.5 -23.5q-5 -2 -10.5 -5l-11.5 -6l-75.5 -36.5l-113.5 -52.5q-82 -37 -202.5 -87t-291.5 -105
q-88 -28 -190 -55.5t-217 -50.5q-18 -3 -48.5 -14l-67.5 -24t-77 -25.5t-76.5 -20t-66 -6.5t-46.5 15q-16 13 -18 24t7 23t26.5 27t39.5 36t47 50.5t49 70.5q17 29 37 57l40 55l39 52.5t34 49.5l14.5 25.5t12.5 25.5q5 11 9 23t5 23v1q-1 0 -4 1t-4 1h-6.5t-5.5 2
q-2 0 -5.5 0.5t-5.5 0.5q-10 1 -19 1.5t-18 -0.5q-51 0 -97 -10t-87 -25t-76.5 -34.5t-67.5 -39.5q-64 -43 -112.5 -86t-87.5 -83h1q-41 -43 -74 -82t-59 -73q-54 -71 -105.5 -147l-103.5 -160l-120.5 -203t-147.5 -273l-87 -170l-72 -148l-11.5 -24l-11.5 -24l-36 -74
l-34 -69q-2 -5 -5 -9t-5 -9l-27 -46q-1 -1 -2 -3t-4 -5q0 -1 -1.5 -3t-9.5 -10h-1q-4 -4 -10 -8q-2 -2 -3.5 -2.5t-6.5 -1.5q-5 -2 -13.5 0t-13.5 6t-7.5 8t-4.5 8l-4 15v2q-1 5 -1 10.5v10.5q2 34 8.5 66.5t14.5 63.5l16 58.5t17 57.5q17 56 38.5 117.5l44.5 124.5
l143.5 369.5l113.5 276.5l42.5 103l36.5 88l34 82l29 69q17 39 28.5 69l21.5 54l18 41.5l15.5 35.5l14.5 33.5z" />
    <glyph glyph-name="q" unicode="q" horiz-adv-x="1482" 
d="M1738 527q9 -17 -7.5 -42t-49.5 -45q-5 -3 -11.5 -7.5t-11.5 -6.5l-12.5 -7.5l-20.5 -12.5l-33.5 -21l-50.5 -33q-43 -29 -107 -76.5t-154 -125.5q-89 -77 -209 -191t-273 -278q-166 -178 -360 -424l-429 -565l-70.5 -95.5l-60.5 -82.5l1 1l-15.5 -22l-15.5 -22v1
q-4 -5 -18 -20l-26 -29l-52 -13q2 -1 0 -0.5t-7 2t-11 3t-11 3.5l15 44q0 1 0.5 2t0.5 2q2 5 3.5 12t3.5 12q3 9 6 19t6 18l4 12l4 12v-1l39 118.5l39 117.5l48.5 149l62 194.5l81.5 259.5l106 345l58.5 195.5l55.5 179.5q0 1 2 5l-46 -28l-43 -26q-32 -19 -63 -35t-63 -30
h1q-2 -1 -4 -1.5t-4 -1.5q-15 -6 -29.5 -11t-30.5 -9q-8 -2 -17.5 -3t-22.5 -1q-13 1 -27 5t-27 16l-8 9l-4 8l-5 9l-6 15q-3 8 -5 15.5t-3 17.5q-3 16 -3.5 33t1.5 31q5 30 14 56t20 48q21 41 46.5 74t47.5 58l41.5 43.5t37.5 34.5q32 29 52 45.5t28 22.5q16 12 33.5 19.5
t32.5 10t27 0t17 -9.5q5 -8 3 -19t-9.5 -24t-19.5 -26t-28 -25l-8 -6l-9 -7l-15.5 -11.5l-20.5 -16.5q-22 -17 -55 -45l-5 -5l-36 -35.5t-41 -45.5q-11 -13 -22 -28.5t-22 -34.5q-11 -17 -19 -37.5t-11 -43.5q-2 -11 -2 -22t2 -22q2 -9 3 -14.5t2 -9.5q2 -2 2.5 -3.5
t2.5 -3.5q16 -3 41 5h-1q32 11 65 25q33 15 69 34.5l73 41.5h-1l48 30l15.5 9.5l15.5 9.5h-1l24 16q0 4 5 8t10.5 7.5t10.5 6l5 2.5q6 1 14.5 5.5t15 3.5t8.5 -11.5t-6 -39.5l-94 -304l-27.5 -86l-28.5 -91l-121 -383.5l-91 -296.5l-67.5 -225.5l-50.5 -171.5l101.5 138.5
l132.5 170.5l218 269.5l165 196.5l69 81l66.5 77.5l69 78l75.5 83.5l233.5 245.5l183.5 177.5l139.5 124l100.5 84l69 53.5l50 38l41.5 30l43.5 29.5q17 10 35 16.5t33.5 8t26.5 -2t16 -11.5zM-185 -1574l-28 -22q4 6 17 19zM-277 -1582l-1 -4q-14 7 -11 6.5t12 -2.5z" />
    <glyph glyph-name="r" unicode="r" horiz-adv-x="2150" 
d="M2324 539q23 11 45.5 6t30.5 -22v1q9 -19 -1.5 -39t-34.5 -31q-4 -2 -7.5 -2.5t-7.5 -2.5q-7 -2 -19.5 -7l-44.5 -18l-73 -30l-114 -50l-129.5 -57.5l-167.5 -73.5l-68.5 -30.5l-73.5 -34.5l-59.5 -28l-63.5 -29l-78.5 -34t-85.5 -34q-46 -16 -95 -30.5t-109 -19.5
q-20 -1 -40 0.5t-40 8.5q-11 5 -20.5 10.5t-19.5 15.5q-18 18 -24 40v-2q-7 19 -7.5 35t0.5 30q2 19 3 23.5t3 11.5l4 13q14 44 28 75.5t30 63.5l37.5 72l49.5 91l-82 -19t-94 -19q-111 -20 -205 -26.5t-172 -6.5q-78 1 -139 6.5t-107 13.5q-83 14 -125.5 26t-58.5 17h-2
q-1 0 -1 1q-27 9 -40 30t-4 40v-1q8 17 28.5 22.5t43.5 -2.5h-1q11 -3 14 -4l3 -1h-1.5t-0.5 0q4 -2 7.5 -4t10.5 -4l37 -13t59 -17q35 -9 91 -19t134 -17q29 -2 60.5 -3.5t66.5 -1.5q60 0 134.5 5.5t158.5 18.5q63 11 116.5 21.5t95.5 21.5h-1q2 1 5.5 1.5t6.5 1.5
q11 2 23.5 3t20 -4.5t6 -19t-18.5 -41.5l-3 -6q-5 -8 -8.5 -16.5t-8.5 -16.5v1l-9.5 -17.5t-9.5 -16.5l1 1q-30 -60 -50 -106t-34 -85q-6 -18 -11 -35.5t-9 -37.5q-2 -8 -3 -18t-1 -16q0 -16 6 -28q5 -9 21 -13t38 -2q28 1 61.5 7t68.5 15q45 12 90 26.5t81 28.5l44.5 17
l40.5 16q10 4 19 7t18 7l73 32l72 32l28.5 13l29.5 13l156.5 73.5l119.5 58l87.5 44.5l60.5 32l40.5 21.5l27.5 15.5t22.5 12.5z" />
    <glyph glyph-name="s" unicode="s" horiz-adv-x="1141" 
d="M1387 527q11 -17 -1 -39.5t-36 -39.5q-4 -2 -7.5 -4t-11.5 -6h2q-8 -5 -25.5 -13.5t-55.5 -31.5l-77 -47l-116.5 -73.5l-164.5 -107.5l-221 -148q-69 -46 -143.5 -101.5l-161.5 -121.5l-168 -130.5l-187 -146.5q-5 -18 -9.5 -36l-9.5 -37q-24 -80 -56 -148t-74 -116
q-22 -24 -46.5 -43t-50.5 -30t-53.5 -17t-50.5 -7q-13 0 -25 1t-23 3q-15 3 -28.5 11.5t-20.5 26.5l1 -1q-7 16 -5 29.5t6 24.5t8.5 19.5t9.5 16.5q19 31 38.5 54.5l38.5 45.5q37 40 76 77l84 76l63 54t78 61l13 70.5t11 65.5q8 57 15 113.5t12 104.5q2 14 3.5 28.5
t3.5 28.5l16.5 142.5t15.5 115.5q20 119 43 179q10 27 21 46.5t16 26.5q19 27 49 35h-1q17 4 29.5 -2t17.5 -16t3.5 -20t-5.5 -21l-8 -14.5t-9 -15.5q-5 -5 -5 -6l-7 -9.5t-9 -17.5q-8 -16 -19 -43.5t-23 -75.5q-12 -47 -24.5 -119.5t-26.5 -179.5q-5 -32 -9 -66
q-6 -40 -12 -85t-14 -93q-2 -7 -2.5 -12.5t-2.5 -12.5q-3 -16 -4 -25l-2 -17.5t-3 -19t-6 -28.5l17.5 13.5l18.5 13.5l129 93l105 74h-1l54 37.5l48 34.5l56.5 39.5l54.5 38.5h-1l62 43.5l67 46.5l181.5 126l138.5 96l110.5 76.5l76.5 55.5l41 29l31 22l34.5 25t34.5 23
q26 17 51.5 17.5t36.5 -15.5v-1zM-158 -757q29 41 52.5 95t41.5 118l-87 -71.5l-68 -58.5q-2 -2 -4.5 -4t-4.5 -4l-62.5 -58t-58.5 -63q-5 -7 -10.5 -16l-10.5 -17q-3 -6 -5 -11t-1 -6q1 -2 9 -3t19 -2q31 -2 63 6q33 8 66 32t61 63z" />
    <glyph glyph-name="t" unicode="t" horiz-adv-x="1393" 
d="M1648 523q3 -9 -0.5 -19.5t-13 -21.5t-23.5 -21.5t-30 -18.5q-9 -4 -19 -8t-30 -11l-36 -12.5l-58 -20.5l-117 -38.5t-183 -51.5q-110 -28 -266 -56.5t-358 -40.5q-45 -2 -86 -3.5t-91 -2.5l-20.5 -54t-19.5 -58l63.5 -86.5t62.5 -97.5l21.5 -40t19.5 -43q4 -13 7.5 -26
t3.5 -31q0 -10 -3.5 -23.5t-16.5 -27.5q-14 -14 -29.5 -17t-26.5 -2q-20 2 -33.5 7t-26.5 12q-8 4 -20 12.5l-23 16.5q-20 16 -39 34t-34 37q-19 26 -35 60q-11 25 -10.5 42.5t2.5 32.5q3 27 8.5 51.5t12.5 47.5q2 2 2 5l5 18t6 18q-8 11 -16.5 20.5t-16.5 20.5q-3 4 -5.5 8
t-5.5 8l-14.5 18.5l-14.5 18.5q-3 5 -3.5 5t0.5 0q-8 8 -11 12q-2 2 -6 8h-14v16l-2 3l-2 16l1.5 3t2 3.5t4.5 7t8 13.5h9t21.5 -1l46 -3t83.5 -6q17 41 36 81.5l37 80.5q2 3 2.5 6.5t2.5 6.5v-1l47.5 100.5l58.5 122.5l-74 -63l-59 -48l-33.5 -25.5l-23.5 -18.5l-10.5 -8.5
t-7.5 -5.5q-32 -23 -63 -28t-42 12q-11 16 4 42.5t47 48.5h-1q10 8 22 16l30 20q2 2 5 4t5 4l53 38.5t80 62.5l77 65t92 87l93 179l119 219q2 2 4.5 7.5t4.5 8.5l46.5 78t46.5 71l-1 -1q2 3 6.5 8.5l9.5 11.5l4 4l3.5 3.5l3.5 3.5q2 0 4 2l6 6l5 2.5t10 3.5h9q3 0 9 -2.5
t10 -4.5l-3 3q13 -6 17.5 -15t8.5 -19q0 -1 0.5 -2.5t0.5 -2.5q1 -3 1 -6.5v-6.5q0 -8 -0.5 -15t-1.5 -12q-3 -24 -10 -46.5t-14 -42.5q-31 -81 -71.5 -146t-80.5 -122q-59 -81 -114 -143t-106 -113l-35.5 -72l-31.5 -66v1q-52 -110 -86 -192l-61 -151q-2 -5 -3.5 -8
t-2.5 -6t-2.5 -7t-3.5 -10q41 1 81.5 2.5t87.5 4.5q174 13 306.5 37t226.5 50q94 24 160.5 46.5t114.5 41.5l55 21.5t42 17.5l32.5 14.5l28.5 12.5l24.5 11t26.5 11q35 16 65.5 15t38.5 -18zM326 -79l-27 42t-26 38q-5 -17 -8 -34t-4 -34q-1 -8 -1 -17.5t2 -13.5
q8 -17 23 -37q14 -19 32.5 -37t41.5 -35q9 -7 18 -13t19 -9v3h1q-4 17 -12.5 35.5l-16.5 36.5v-1q-1 2 -1 2.5t-1 2.5l-21 38.5l-19 33.5v-1zM827 1224l-59 -103.5l-52 -95.5q38 48 78 106.5t74 124.5q10 20 19.5 41.5t17.5 44.5l2 6t2 7q-2 -2 -2 -3q-11 -16 -19 -29
l-30 -48.5zM239 158l1.5 3l1.5 3l6 16.5t6 15.5v2h-23.5t-24.5 1q16 -23 32 -40q0 -1 1 -2v1z" />
    <glyph glyph-name="u" unicode="u" horiz-adv-x="1694" 
d="M1859 535q20 14 42 12.5t33 -18.5q11 -16 3.5 -37t-27.5 -35q-4 -3 -8 -5t-9 -4q-7 -3 -19.5 -10.5l-35.5 -20.5q-10 -5 -21 -12t-25 -15l-42.5 -25l-52.5 -31l-18.5 -10.5l-20.5 -11.5l-112.5 -62.5t-145.5 -73.5l-16.5 -8l-16.5 -8h1l-102.5 -47.5t-121.5 -44.5
q-40 -11 -83.5 -20.5t-93.5 -7.5q-26 2 -52.5 7.5t-52.5 18.5q-27 14 -50 36t-37 49q-17 31 -23.5 60.5t-8.5 55.5q-20 -16 -42 -31.5t-40 -32.5h-1q-45 -42 -106 -87q-32 -23 -73.5 -48.5t-91.5 -45.5h1q-44 -18 -87.5 -26t-85.5 -8h-17t-16 1q-23 2 -48.5 8.5t-46.5 19.5
q-22 13 -38.5 34.5t-24.5 43.5q-8 23 -9 43t0 39q2 17 5 33.5t7 33.5q8 29 17 54.5t18 45.5q17 39 32.5 69.5t25.5 48.5l13.5 22l8.5 14l4 8q14 22 35 29.5t36 -2.5q14 -12 17 -34t-8 -41l-5 -7.5t-6 -9.5q-8 -10 -22 -30t-38 -62h1q-11 -19 -21.5 -40t-18.5 -39h1
q-10 -23 -19 -52t-11 -61q-1 -15 1.5 -30.5t11.5 -29.5q8 -14 23 -23.5t35 -14.5l-1 1q37 -8 69 -8q66 0 140 27q54 20 96.5 46t76.5 52q35 26 61.5 51t48.5 48q35 36 59.5 67t44.5 59q7 9 20.5 21.5t26 13t19.5 -19.5t1 -75v-26v-20.5t2 -21.5q2 -20 6.5 -40.5t15.5 -41.5
q10 -20 28.5 -38t49.5 -29h-1q21 -7 41.5 -9.5t40.5 -2.5q19 1 37 2.5t36 4.5q35 6 63 14l54 16h-1q51 18 94 37.5l95 44.5q82 42 143 78t106 65l75.5 49.5t51.5 36.5l34 25l24 18l20.5 16t21.5 15z" />
    <glyph glyph-name="v" unicode="v" horiz-adv-x="1478" 
d="M1660 544q18 9 36.5 2t26.5 -24q8 -19 0 -37.5t-28 -26.5q-2 -1 -3.5 -0.5t-3.5 -0.5q-3 -1 -8 -2.5l-15 -4.5l-27 -8.5l-43 -14.5h1q-14 -5 -38.5 -12t-55.5 -15q-29 -8 -67 -15.5t-81 -11.5q-10 -1 -21.5 -1.5t-22.5 -0.5q-28 0 -56 3t-58.5 12t-62.5 31q-1 1 -2 1.5
t-2 1.5l3 -3q-2 1 -2.5 1t-2.5 2q-3 -2 -5.5 -4t-5.5 -4q-2 -2 -7.5 -4.5t-7.5 -4.5h1l-21 -14l-21 -14l-56 -36.5l-61 -39.5q-2 -2 -4.5 -3t-4.5 -3l-128.5 -82l-118.5 -73h1l-9.5 -5.5l-9.5 -5.5l-100 -59t-89 -47l-3 -1q-2 -1 -5 -2t-5 -2q-11 -5 -21.5 -8.5t-24.5 -5.5
h-6.5t-7.5 1l-12 5q-2 1 -3.5 2.5l-7.5 7.5l-4.5 6.5t-4.5 5.5q-3 3 -4 5t-3 5q-2 2 -4 5t-4 8l1 -1q-12 20 -22.5 40l-19.5 38q-11 20 -21.5 42.5l-18.5 39.5q-6 13 -12 24t-11 22l-53 111.5l-32 65.5q-7 14 -10.5 22.5t-5.5 11.5q-8 19 -1 37t25 26q19 7 36.5 0t25.5 -26
l4 -14v1q2 -6 5 -16t9 -27l15.5 -42.5l23.5 -62.5q2 -3 3 -7.5t3 -7.5l-1 1l19.5 -48l24.5 -58l16.5 -37.5l18.5 -40.5q8 -20 18.5 -40.5t25.5 -43.5q2 0 4.5 1t4.5 2t4.5 2t4.5 2q14 5 27 11.5l27 13.5q29 14 58.5 30l61.5 35l136 82.5l151 95.5l61 39.5l56 37.5l7.5 4.5
t4.5 3.5q20 18 33 32t24.5 21.5t23.5 9t30.5 -4t46.5 -18.5l71 -34q18 -9 44.5 -7.5t54 7.5t51.5 13.5t37 10.5h-1q28 8 49 15.5t37 14.5q34 14 53 23t31 16q3 2 4 2t8 5l11.5 6t18.5 9h-1z" />
    <glyph glyph-name="w" unicode="w" horiz-adv-x="2009" 
d="M2188 548q23 9 43.5 3t28.5 -23q8 -19 -4 -38.5t-36 -28.5q-6 -3 -14 -5q-4 -1 -7 -2l-22.5 -5t-35.5 -10q-27 -8 -68.5 -19t-101.5 -22q-29 -5 -66 -9.5t-82 -6.5q-8 0 -15 -0.5t-15 -0.5q-16 0 -33 1t-33 3q-18 0 -43 6l-9 -5q-3 -2 -6.5 -5t-8.5 -5h1l-9 -6l-40.5 -27
l-43.5 -29l-72 -48l-79 -51l-71 -43.5t-79 -43.5q-21 -11 -43 -21t-45 -19q-24 -9 -49.5 -17t-56.5 -12q-10 -1 -21 -1t-21 2q-11 1 -21.5 4t-19.5 8q-33 16 -56 45q-20 25 -29.5 47t-15.5 42q-11 38 -15.5 74t-6.5 72q-1 3 -1 10l-14 -14l-93.5 -90.5l-125.5 -115.5
l-80 -67t-81 -58q-11 -7 -21.5 -12.5t-21.5 -10.5q-14 -5 -28 -9t-35 -2q-19 4 -31 13.5t-22 20.5q-9 11 -15 19t-11 16q-20 36 -32.5 67.5t-22.5 60.5q-10 28 -17 53.5l-13 47.5q-18 67 -29 111.5t-14 57.5l1 -1q-3 7 -3 10q-4 24 6.5 44.5t28.5 24.5q20 3 36 -12t21 -39
q1 -4 2 -10t2 -14q2 -12 5.5 -35.5t12.5 -72.5l-1 2q1 -2 2 -7t2 -7q4 -17 7 -35t9 -42q6 -25 15 -55t23 -68l-1 1l16 -36t19 -33v1l9.5 -11t9.5 -6l-1 1q5 -1 13.5 1.5t16.5 6.5q19 10 42.5 25t47.5 32l48.5 35.5t45.5 36.5q89 75 154 138.5l110 109.5q2 2 4.5 5t4.5 5
q0 1 0.5 1t0.5 1v3l1 -3l2 2q3 3 5.5 6t5.5 6l14 14q24 -11 30.5 -13t5 -2t-5 0.5t1.5 -4.5v-7q5 0 8 -4t-8 -22q0 -13 0.5 -24.5t1.5 -22.5q2 -22 5.5 -43t7.5 -41h-1q7 -31 22 -70l-1 1q7 -15 15.5 -30t21.5 -29h-1q11 -11 26.5 -18.5t36.5 -5.5q25 2 55 11t65 23
q45 17 81.5 34.5l67.5 33.5q2 1 4.5 2t4.5 2l53.5 30l47.5 28q2 1 4 2.5t4 2.5l-1 -1q32 32 70 64.5t76 55t73 30t61 -11.5q7 -5 16.5 -6t20 -0.5t20.5 2.5t18 2q33 2 64.5 6.5t57.5 9.5q46 10 85.5 21.5t62.5 19.5q27 11 46 18t32 13l17.5 8t19.5 8z" />
    <glyph glyph-name="x" unicode="x" horiz-adv-x="1271" 
d="M1531 519q5 -20 -12.5 -38t-46.5 -25q-5 -1 -6.5 -1t-8.5 -1q-8 -1 -24 -2t-49 -6q-2 0 -12 -2q-29 -3 -73 -6.5t-110 -2.5q-35 1 -77 5t-92 16l-12 3q-3 1 -4 1.5t-4 1.5q-8 0 -11 2q-11 -5 -22.5 -8.5t-23.5 -8.5l-53 -22l-56 -24q-66 -31 -143 -71l-162 -88
q1 -1 1.5 -1t1.5 -1q3 -4 6.5 -8t8.5 -8q15 1 30.5 1t32.5 -2q24 -2 50 -7.5t54 -17.5q27 -11 53.5 -29.5t48.5 -47.5q22 -30 31 -67l2 -8t2 -9v-7q0 -1 0.5 -2t0.5 -2v-14l-4.5 -11t-7.5 -12q-6 -7 -14 -10.5t-14 -5.5q-9 -2 -16 -0.5t-14 3.5q-25 7 -48 22h-1
q-2 1 -4.5 2.5t-3.5 2.5q-24 15 -45 30h1q-42 29 -79.5 57.5l-69.5 54.5q-8 6 -12 9.5l-11 9.5q-29 -3 -53.5 -8.5l-45.5 -10.5l-67.5 -21.5t-57.5 -21.5h2q-8 -5 -16.5 -9t-16.5 -9l-24 -14l-24 -14l-58.5 -33.5l-51.5 -29.5h-2v-1l-4 -2q-2 -1 -4 -3l-9 -5l1 3l-19 -9
q-18 0 -34.5 2t-25 11t-7.5 26.5t18 48.5l31 1q5 2 8.5 4l8.5 5l22 10.5l21 10.5h-1q5 2 9 4t9 4q16 8 31 14l67 38l81 43l46 23t43 22q6 3 7 4t1.5 1t2 0.5t6.5 3.5l-24 21.5l-23 19.5l1 -1q-7 5 -13.5 11t-12.5 11l-109.5 94t-45.5 40q-20 19 -24.5 42t8.5 37
q13 13 36.5 10t43.5 -21l15 -15q10 -11 30 -31l62 -60l53.5 -51.5l75.5 -69.5l67.5 33.5l58.5 30.5l-1 -1l30 15h-1l92 44.5l98 46.5l93 42q11 5 21.5 9t21.5 9l2 1q2 1 5.5 2t5.5 2q1 0 2 0.5l9 4.5l9 1q2 0 3 -3.5t3 2.5l3 -1l5 -1q3 -1 8 -2t7 -2h-1q36 -10 70.5 -13
t64.5 -5q55 -1 96 3.5t70 9.5h3t4 1h-1q39 7 60 11.5t38 9.5l36 9q26 5 47 -3t26 -26zM677 150q-16 5 -30.5 8.5t-28.5 5.5l32.5 -26.5t35.5 -27.5q23 -18 49 -36.5t52 -33.5q5 -3 4 1.5t-5 12.5t-9 17t-9 14q-18 25 -41.5 40.5t-49.5 24.5zM987 465q0 -1 -1 -1h2z" />
    <glyph glyph-name="y" unicode="y" horiz-adv-x="1564" 
d="M1706 511q19 11 37.5 17t34.5 7.5t27 -1.5t16 -11q9 -17 -11 -43.5t-57 -48.5h1q-6 -4 -11.5 -6.5t-12.5 -6.5q-7 -3 -16.5 -8l-24 -13l-36 -20.5l-51.5 -30.5h1l-119.5 -78.5t-172.5 -127.5l-108.5 -90.5t-123.5 -111.5t-135.5 -137.5t-145.5 -167.5h1
q-81 -101 -163.5 -224.5t-161 -272.5t-152 -324.5t-136.5 -379.5q-2 -8 -10 -22l1 1q-1 -2 -3 -5t-4 -7l-6 -6l3 9q-3 -5 -9 -10.5t-11 -8.5q-7 -2 -15 -3t-15 1q-15 5 -24 17l2 -2q-1 1 -1 1.5t-1 1.5q-3 3 -5.5 6t-2.5 8q0 -1 2 -3l-2 4v2q0 1 -0.5 1.5t-0.5 1.5v-3
q-2 5 -2 9q-1 2 -1 5v6v23q0 2 0.5 5.5t0.5 5.5l4 33l4 31q5 30 12 58.5l13 53.5q26 101 49 177l45.5 143.5l46.5 138.5q8 20 15 41.5l15 44.5l54 153.5l70 197l90.5 252.5l116.5 320l39 105.5l38 101.5l11 30l12 32l-95 -69l-90 -62l-126 -82.5t-114 -66.5
q-56 -30 -111 -51q-14 -5 -29 -9t-32 -7q-8 -1 -17.5 -1.5t-19.5 1.5q-11 1 -22 6t-22 16l-4 4q-4 2 -7 9l-4 7l-3 6q-1 2 -1.5 3.5t-1.5 3.5l-6.5 21t-2.5 9q-3 31 0 57q2 23 7.5 43l10.5 38q11 32 22 58l21 48q1 2 1 3t1 3q21 42 34.5 66l18.5 33q12 19 25.5 34t27 24
t25 11t19.5 -3q16 -12 10.5 -43.5t-27.5 -69.5l1 1q-1 -2 -2.5 -3.5t-2.5 -3.5l-12.5 -21.5l-20.5 -34.5q-8 -12 -16.5 -29t-18.5 -40q-10 -21 -21 -49.5t-19 -65.5q-2 -8 -2.5 -16.5t-0.5 -13.5q0 -8 1 -16.5t4 -14.5q0 -1 1 -1h2h10q11 1 22.5 3t23.5 7q53 19 114.5 51.5
t129.5 74.5q67 41 147.5 95.5l168.5 117.5l12 9q8 6 17 12t17 12q0 1 0.5 1.5t0.5 1.5l3 6l1 -5q2 1 6 5l6 4q2 2 8 7.5t7 6.5q16 -13 22 -17.5l8 -6t2.5 -2t5.5 -3.5q-3 -8 -6 -15t-7 -15q-2 -6 -3 -8h1l-1 -1q0 -3 -2 -5q-4 -10 -7 -18.5t-7 -18.5l-14 -36.5t-15 -37.5
l-46.5 -119l-48.5 -128l-111 -295l-87.5 -242.5l-68.5 -198l-53.5 -162.5l-42.5 -136l-35 -117v1l-19.5 -69l-18.5 -68q33 77 64.5 141.5l60.5 121.5l70.5 129t65.5 110l62 97l61.5 91l66 91.5l75.5 97.5q131 161 244.5 272t202.5 189q90 78 155.5 128l112.5 85l79 56
l56.5 38.5l45 29.5t46.5 28zM84 -1584q0 -1 1 -2v-1q-1 1 -1 3z" />
    <glyph glyph-name="z" unicode="z" horiz-adv-x="1487" 
d="M1731 524q9 -17 -10.5 -43.5t-55.5 -47.5h1q-6 -4 -10.5 -6.5t-12.5 -6.5l-14.5 -7.5l-22.5 -12l-35 -19.5l-51 -30q-38 -23 -91.5 -61.5l-128.5 -92.5l-66 -48q-99 -72 -233 -184.5t-303 -271.5v1q-90 -86 -188 -191t-201 -230l-115 -143l-118 -155l-34 -67.5l-32 -61.5
l-116.5 -207.5l-96.5 -158.5l-14 -20l-13 -20l-19 -28l-12.5 -16.5t-13.5 -16.5q-2 -2 -3.5 -4t-3.5 -4l-3.5 -3.5l-3.5 -3.5l-11 -11t-16 -11t-23 -2q-8 1 -14 5.5t-10 9.5q-4 6 -7 16v5q0 2 0.5 4t0.5 4v6q2 14 7 26l7 20.5t9 20.5l17.5 39t17.5 34q2 2 2.5 4t1.5 4l48 86
t58.5 95.5l72.5 107.5l89 122l40.5 53l38.5 49q10 15 23 29v1q1 0 1 1t1 1l-1 -1l28.5 60t28.5 65q32 75 64 162t60 192q28 104 42.5 202t13.5 189q0 21 -8 44.5t-17 47t-16.5 45t-7 39t12 29.5t40.5 16q10 9 16 12q4 3 8 5.5t7 5.5l9 7.5t8 5.5q3 2 5.5 4t5.5 4l24.5 19
l23.5 19l111 88t93 81v-1q3 3 6 5.5t5 4.5l12 11.5t11 12.5q-11 3 -24 5.5t-25 4.5q-29 5 -56 6.5t-50 1.5q-11 0 -21.5 -0.5t-21.5 -0.5q-32 -1 -58 -3t-48 -4q-29 -2 -48.5 -4.5t-33.5 -4.5q-7 -1 -11.5 -1.5t-9.5 -0.5q-8 -2 -18 -2h-18q-30 0 -50 8.5t-22 25.5
q-3 18 25 36.5t71 23.5q11 2 26.5 3l46.5 3h10.5t11.5 1q23 1 53.5 2.5t71.5 1.5h30t33 -1h4q20 -2 43 -3.5t44 -5.5q2 0 3.5 -0.5t2.5 -0.5l50.5 -11.5t59.5 -26.5l4 -4l4 -3l4 -4q7 -8 9 -17.5t0 -15.5q-3 -20 -12 -30q-6 -11 -11 -17.5t-10 -11.5q-8 -9 -21.5 -21.5
l-28.5 -25.5l-55.5 -47l-60.5 -48l-66 -50.5l-71 -52.5l-19.5 -14.5l-19.5 -13.5h1q-8 -6 -11 -8q-2 -2 -3.5 -2.5t-3.5 -2.5q6 -23 9 -46t5 -46q2 -16 2 -34v-35q0 -95 -16 -198t-48 -217q-23 -85 -49.5 -158t-53.5 -139l77 87l69 76q5 5 9 10t9 10h-1l75.5 81l73.5 77
l76 77l84 82q145 139 261 236.5l205 167.5l70 54.5l61 48.5l73 57.5l59 44.5l70 50l50 38q25 19 47.5 34.5t50.5 32.5q18 10 36 16.5t33.5 8t26.5 -1.5t16 -10zM63 -919l1 1l-1 -2v1z" />
    <glyph glyph-name="A" unicode="A" horiz-adv-x="1866" 
d="M2109 523q10 -16 -7.5 -43.5t-54.5 -48.5l-22 -11h1q-3 -2 -7.5 -4t-9.5 -4h1q-5 -2 -10.5 -4.5l-12.5 -5.5h1q-14 -7 -36 -17l-55 -24h1q-3 -2 -7 -2.5t-7 -2.5q-48 -20 -122 -48t-186 -57q-57 -14 -125 -26t-146 -18l-4 -14l-4 -14q-11 -35 -23.5 -67.5t-28.5 -62.5
q-10 -17 -21 -32t-30 -24l1 1q-34 -19 -69 -18t-62.5 14t-50.5 31h1q-23 17 -40.5 37t-34.5 42q-9 12 -22.5 36.5l-28 51.5l-27.5 51.5l-19 35.5l318 -11q23 -1 44 0l43 2h1l2 1q9 39 16 75.5l15 78.5q16 87 30 180t27 190v-1q16 127 25 219l16 166q0 5 0.5 9t0.5 8
q5 68 8.5 127t4.5 125q0 34 -0.5 71.5t-5.5 79.5q0 1 -0.5 2.5t-0.5 3.5v-1q-3 19 -6.5 38.5t-10.5 33.5l-1 2q-8 -4 -17.5 -10t-18.5 -13q-45 -34 -94 -79l-103 -99l-117.5 -121l-133.5 -143l-260 -288l-213 -242l-137.5 -159.5l-113.5 -132.5l-25 -29l-24 -28l-133.5 -158
l-73.5 -88l1 1q-8 -11 -14.5 -18t-9.5 -11q-27 -31 -56.5 -44t-43.5 -1t-6 42.5t34 62.5q5 6 13 14.5l19 20.5l52 56.5l96 106.5l65.5 72.5l81.5 91.5l70.5 79l80.5 90l238.5 264l314.5 340l155 161.5l137 136.5l63 60.5l60 53.5q3 3 8 7t7 6l20.5 16t25.5 18l-1 -1
q7 5 16 10l18 10q13 7 29 5q8 -1 15.5 -5t12.5 -9q14 -14 19 -29l10 -29q1 -2 1 -3.5t1 -3.5q3 -13 6 -28t5 -28q0 -2 0.5 -4t0.5 -4q3 -26 5 -54.5t3 -51.5q2 -30 2.5 -61t0.5 -57q0 -16 -0.5 -31t-0.5 -29q-2 -81 -5.5 -157t-11.5 -164q-8 -89 -22 -201.5t-42 -263.5
l-14 -72.5t-12.5 -61.5t-13.5 -56.5l-15 -57.5q48 5 90.5 13t80.5 16l-1 -1q99 23 171.5 50t120.5 47q42 19 71.5 34.5l50.5 26.5q1 1 3.5 2t4.5 2l26.5 14.5t25.5 14.5l16.5 9t17.5 10q35 20 66 23.5t42 -11.5zM1200 105q9 22 18.5 49.5t15.5 48.5q-15 -1 -30 -1h-30
q-32 0 -65 1t-63.5 0.5t-56 -2.5t-43.5 -8q16 -26 34.5 -51.5t41.5 -48.5q21 -21 47 -38t54 -18q13 0 25 4l13 5q2 2 3 2.5t2 1.5q4 2 3 1q9 8 17 23t15 31h-1zM1156 42l3 2q-1 -1 -1.5 -1t-1.5 -1z" />
    <glyph glyph-name="B" unicode="B" horiz-adv-x="2106" 
d="M2365 527q4 -9 -0.5 -21.5t-17 -26.5t-31.5 -29t-43 -29q-10 -5 -17 -9t-18 -9q-9 -4 -21 -10l-31.5 -16l-47.5 -24l-68 -34l-167.5 -81.5t-257.5 -117.5q-38 -17 -90 -46.5l-110 -62t-118.5 -62.5t-115.5 -47q-43 -14 -75.5 -20.5t-48.5 -4.5t-12.5 13.5t31.5 35
t83 58.5t143 85v-1q26 15 56 35l58 40q26 20 51 45t42 56q8 15 13 32t4 34q-2 31 -31 47q-17 10 -36.5 14t-39.5 6q-10 1 -18.5 1.5t-18.5 0.5q-11 0 -25 -0.5t-28 -2.5q-47 -5 -96 -14.5t-94 -21.5q-32 -11 -61.5 -18.5t-41 0t2.5 36.5t68 92l39 42v-1l150.5 170l155.5 185
h-1l78.5 97.5l78.5 102.5l77 109t71 112h-1q20 37 35.5 72t20.5 66v-1q1 22 -3 27q-5 5 -12 6h2q-2 0 -2.5 0.5t-1.5 0.5l-3 1l-12 2l-14 3q-11 2 -22 2.5t-19 0.5q-17 0 -34 -2t-34 -5q-50 -9 -99 -26q-45 -17 -88 -37t-83 -41h1l-81 -46.5t-77 -49.5l-84.5 -58l-91 -67.5
l-101 -80.5l-113.5 -96q-119 -103 -278.5 -258.5t-351.5 -364.5l-96.5 -109l-90.5 -106l-21 -26l-20 -25q-5 -6 -9.5 -12t-9.5 -12q0 -2 -1 -5.5t-11 -8.5l5 8h-1l-7 -7q-1 -1 -4.5 -4t-4.5 -4l-12 -1h-3.5t-4.5 1q-3 0 -6 1q-14 9 -14.5 14t-0.5 13q0 5 0.5 7t3.5 7
q1 1 1 3q0 3 1 3.5t4 4.5l16 -29l-5 37q-7 0 -9 -3l1 1q5 7 12 18.5l15 23.5q1 2 1.5 2.5t1.5 2.5l31 55l-1 -1l104.5 211.5l89.5 193.5l145 328.5l113 261.5l105 247l63 151q11 25 17 40.5t10 23.5q11 24 23.5 44t25.5 34.5t24.5 21t20.5 2.5t13 -17t2.5 -31.5t-8 -42
t-16.5 -48.5q-5 -12 -11.5 -26l-17.5 -38l-18.5 -41l-25.5 -57l-35 -77l-45 -101l-22 -48l-24 -53l-94 -208.5l-119 -261.5q-8 -16 -15 -31.5l-15 -32.5l-71 -150l-79 -164l27.5 30l27.5 30q217 232 405 411.5t326 296.5l132.5 109l118.5 90t107.5 75t101.5 63
q48 27 100.5 52t100.5 43q26 10 55 17t58 11q14 2 29 3t32 1t35 -1.5t34 -5.5q16 -3 38.5 -11.5t38.5 -33.5q14 -23 15 -46.5t-1 -43.5q-7 -39 -23.5 -76t-36.5 -74q-42 -75 -95.5 -151t-121.5 -160l-171.5 -203.5l-148.5 -166.5l-67.5 -72l-62.5 -66h1q-5 -5 -7.5 -9.5
t5.5 -4.5t31 6t70 20q37 5 73.5 8t74.5 1q20 -2 39 -4.5t39 -9.5t40 -19.5t34 -32.5t18 -46t1 -48q-4 -23 -13.5 -44.5t-23.5 -41.5q-8 -12 -17.5 -23t-19.5 -21q133 60 227 107l159 81l77.5 41.5l62 33.5l49.5 27.5l41 23.5l34.5 19.5l37.5 21.5q48 27 87 35t50 -9zM-71 36
l1 3q0 -1 -0.5 -1.5t-0.5 -1.5z" />
    <glyph glyph-name="C" unicode="C" horiz-adv-x="1576" 
d="M1723 527q32 18 62 17.5t39 -17.5t-7.5 -41.5t-49.5 -41.5q-6 -3 -11 -5l-12 -5q-5 -2 -12.5 -5.5l-19.5 -9l-29 -13.5l-42 -20l-107.5 -51l-154.5 -72l-104.5 -46l-123.5 -53l-145 -55.5t-172 -57.5q-51 -16 -106.5 -30.5t-113.5 -25.5q-39 -7 -80.5 -12.5t-88.5 -5.5
q-25 0 -49 2t-48 6q-37 7 -74.5 23t-69.5 45h1q-33 30 -53 70t-28 84q-6 36 -6 74q0 25 2 49.5t6 47.5q14 85 45 170q38 105 76 178l71 131q32 56 62.5 102.5l65.5 97.5l78.5 110.5t106.5 137.5l67 78.5l90 98.5h-1l48.5 48.5t59.5 54.5q15 13 32 26l34 26q20 13 40 24.5
t41 19.5q11 3 21 5l15 3h26q26 0 49 -3q24 -4 48.5 -12t45.5 -21q23 -13 40.5 -33t28.5 -42q10 -21 16 -44t8 -44q1 -8 1.5 -17t0.5 -19q0 -32 -4.5 -62t-10.5 -58q-8 -33 -17.5 -67t-20.5 -64q-22 -60 -44.5 -111.5t-45.5 -96.5l-43 -84l-40 -72q-60 -108 -99 -170l-53 -84
v1q-2 -4 -4 -7.5t-4 -5.5q-10 -14 -22.5 -25.5t-25 -18t-23.5 -8t-19 4.5q-16 12 -12 40.5t24 57.5q3 5 7.5 10t9.5 13l15 21.5l22 32l31 47l43 65.5v-1q2 4 4.5 7t4.5 7q34 54 78 131.5t95 188.5q13 28 26 60t25 69q11 33 21 72t14 81q1 8 1.5 17.5t0.5 16.5q0 11 -1 22.5
t-4 24.5q-4 20 -11.5 39t-21.5 33q-14 15 -34.5 25.5t-43.5 15.5q-19 4 -49 6q-7 1 -13 1h-12q-3 0 -9 -1t-13 -3l2 1q-23 -8 -43 -19.5t-38 -24.5q-17 -11 -35.5 -26.5l-35.5 -30.5l-59 -56.5l-57 -58.5l-93.5 -108t-74.5 -94q-68 -91 -112 -160l-78 -127
q-33 -58 -62 -114.5l-63 -126.5v1l-30.5 -69.5t-34.5 -86.5q-17 -45 -31.5 -98t-22.5 -116q-1 -11 -1.5 -21.5t-0.5 -20.5q0 -56 18 -104q11 -31 31 -52t43 -35q24 -14 49.5 -21.5t50.5 -11.5q26 -4 49.5 -5t45.5 0q45 2 88.5 8.5t85.5 15.5q43 9 87 21t89 27q78 25 144 50
l124 49q115 49 198 90q85 40 142.5 70l98.5 52l-1 -1l64.5 36.5l45.5 25.5l38.5 21.5l38.5 21.5h-1z" />
    <glyph glyph-name="D" unicode="D" horiz-adv-x="1883" 
d="M2137 526q4 -8 -2.5 -20.5t-21 -26t-36.5 -27t-49 -23.5q-10 -4 -17.5 -6t-16.5 -5q-5 -2 -10 -3.5l-12 -3.5q-21 -7 -60.5 -19t-112.5 -32q-75 -20 -194.5 -45.5t-288.5 -49.5q-4 -1 -8 -1.5t-9 -1.5q-3 -1 -9 -1q-5 -7 -11 -14.5t-11 -14.5q-47 -61 -94 -112.5
t-97 -95.5q-26 -22 -52 -40.5t-53 -33.5q-13 -7 -27 -12.5t-31 -10.5h1q-16 -5 -31 -7t-27 -4q-17 -2 -36.5 -3t-36.5 -1q-36 0 -69 3.5t-63 8.5q-47 8 -88.5 21t-80.5 28q-151 60 -272 152q-15 11 -30 25t-29 30q-1 2 -4 5t-6 7t-5 6q-5 6 -7.5 13t-2.5 20q0 10 7 20t15 15
q3 1 6.5 2t8.5 1h1q1 0 2 1h-2q5 1 11 1.5t11 0.5q30 2 64.5 2h66.5h84q254 0 455.5 13.5t350.5 32.5q8 2 16 3l16 2q42 61 82 128.5t78 142.5q81 163 119 292q20 64 31 120.5t13 108.5q2 49 -4.5 93.5t-26.5 82.5q-18 35 -50 60t-75 36q-22 5 -46 8.5t-50 3.5
q-48 0 -110 -14l1 1q-117 -29 -255 -118q-69 -45 -144 -107t-154.5 -142t-164.5 -180.5t-175 -223.5l1 1q-3 -5 -6.5 -8.5t-6.5 -8.5t-6 -9l-6 -8l-6 -14l-6 -14l-18 -41l-19 -43l-48.5 -106.5l-54.5 -113.5l-31 -59.5t-35 -60.5v1q-20 -34 -41 -61v1q-7 -10 -14 -17.5
l-15 -15.5q-4 -3 -10 -7l-13 -9q-1 -1 -2 -1h-3q-3 -1 -5.5 -1.5t-8.5 -0.5q-5 0 -11.5 2t-11.5 7l2 -2q-7 5 -9 9.5t-4 9.5q-2 11 -2 16.5t1 10.5v-1q1 2 1 5q1 10 6 22q3 8 6.5 18.5t8.5 19.5l16.5 36.5t17.5 35.5l39.5 72t43.5 73l66.5 104l72.5 106l19.5 46.5t17.5 45.5
l10.5 26l10.5 25l-1 -1l57 146l49 128l60.5 162.5l49 135.5l36.5 102l23 63v-1q3 10 5.5 16.5l4.5 11.5q10 27 21.5 49t23.5 38t24 23t21 4t13.5 -16.5t4.5 -33t-5 -44t-15 -51.5l-13.5 -35l-22.5 -58.5l-40 -102.5l-65 -167l-16.5 -42.5t-18.5 -46.5l-19 -48l-12 -29.5
l-15 -37l-29 -70.5q75 94 146.5 170.5t140.5 142.5q94 88 186.5 156.5t179.5 113.5q75 37 151 58t142 21q10 0 20 -0.5t20 -1.5q38 -4 74 -14.5t66 -28.5q29 -17 53.5 -43.5t40.5 -55.5q25 -48 33.5 -96t8.5 -96v-22t-1 -22q-4 -57 -16.5 -117.5t-31.5 -123.5
q-20 -64 -47.5 -132.5t-65.5 -143.5q-26 -52 -58.5 -108.5t-74.5 -119.5q103 17 180 33.5t131 30.5q72 20 122 35.5t85 28.5l66 24l67 25q24 9 48 14.5t43.5 7t33 -1.5t17.5 -11zM1101 149l23.5 27l18 21t17.5 22l23 30q-142 -15 -317 -24.5t-394 -9.5h-71t-74 1h-88
q-5 -1 -12.5 -1h-12.5t-8.5 -0.5t-7.5 -0.5q3 -4 7 -7q5 -6 13.5 -13.5t19.5 -15.5q20 -16 39 -29.5t39 -25.5q83 -51 181.5 -89.5t207.5 -51.5q17 -2 34.5 -3t32.5 -1q11 0 22 0.5t22 1.5q12 1 26 3l29 4q14 2 25 6t22 9q51 23 95.5 62.5t87.5 85.5v-1zM168 211q10 0 12 2
q-3 -1 -7 -1q-1 0 -2 -0.5t-3 -0.5z" />
    <glyph glyph-name="E" unicode="E" horiz-adv-x="1255" 
d="M1502 537q7 -7 6.5 -18.5t-6.5 -24.5t-17 -27t-27 -26q-6 -6 -10 -9t-8 -5t-8.5 -4.5t-12.5 -7.5l-32 -21l-55 -35l-105 -64t-164 -90l-110 -54.5t-131 -58.5l-15.5 -6l-15.5 -6h1l-60.5 -24l-64.5 -24l-89.5 -31t-96.5 -27q-26 -6 -55.5 -10.5t-63.5 -6.5
q-15 0 -31.5 0.5t-35.5 5.5t-39 16t-32 32q-10 19 -10 44q0 22 8 44q7 18 16 35t22 32q23 30 50.5 55t58.5 48q9 7 18.5 13t19.5 13q-100 2 -176 25q-35 11 -68 27t-59 39q-27 23 -47 55.5t-30 67.5q-10 36 -10 73q0 21 2.5 43t7.5 42q9 40 26.5 86.5t41.5 93.5
q27 51 62 103.5t80 109.5q46 57 105 117t139 123t161.5 108.5t167.5 63.5q20 5 42 6.5t43 1.5q42 1 82 -3q20 -3 41 -8.5t40 -15.5q20 -11 37 -27.5t28 -37.5q11 -20 14 -40.5t2 -39.5q0 -18 -2.5 -35.5t-7.5 -34.5q-18 -61 -41 -111t-46 -91.5l-43 -76.5l-52.5 -90
l-42.5 -70q-8 -12 -14 -22.5l-12 -20.5q-15 -24 -24.5 -40.5l-15.5 -26.5q-2 -3 -3.5 -6.5t-3.5 -5.5v1q-19 -33 -43.5 -50t-41.5 -8t-16 40t21 65q5 9 13 21.5l24 36.5l38 57.5l59 89.5l41.5 66l47.5 77q13 22 25 45.5l25 49.5q11 24 22 54t18 61q2 9 3 16.5t1 15.5
q0 5 -1 12.5t-4 17.5q-5 26 -28 40q-28 18 -67 24q-43 6 -85 5q-44 0 -89 -12t-91 -34q-45 -21 -92.5 -50.5t-93.5 -64.5q-83 -66 -149.5 -134.5t-114.5 -131.5q-49 -64 -82.5 -123t-55.5 -115q-34 -88 -34 -157v-16.5t2 -17.5q5 -40 23.5 -70t43.5 -49q26 -20 56 -31
t62 -18q34 -8 68.5 -11t72.5 -3t82 2.5t96 9.5h11l5 1q3 0 9 2q11 4 23 7t23 7l42 10.5l43 10.5l22 3l10.5 2l10.5 2l7 1q9 3 20 1.5t20 -7.5t15 -15t6 -19q0 -12 -9 -24.5t-31 -24.5l-9 -1l-4 -1q-4 -1 -9.5 -2.5t-9.5 -2.5q-39 -8 -86 -16.5t-92 -14.5q-5 -1 -10 -1.5
t-10 -1.5q-26 -9 -51.5 -20t-46.5 -22q-57 -29 -101 -62.5t-75 -68.5q-12 -15 -22.5 -34t-14.5 -36q0 -6 1.5 -13.5t4.5 -11.5q7 -10 24 -15q21 -6 50 -6q7 0 16.5 0.5t17.5 1.5q24 2 48.5 7t47.5 11q32 9 69 21t71 25q3 2 6.5 2.5t7.5 2.5l68 26.5t64 26.5q117 49 207 99
q87 45 145.5 81.5l99.5 63.5v-1l48.5 33.5l36.5 26.5l28.5 21.5l24.5 18.5l21 16l22 17q30 23 58 30t42 -8z" />
    <glyph glyph-name="F" unicode="F" horiz-adv-x="1408" 
d="M2249 1388q7 -19 -9.5 -38.5t-46.5 -27.5q5 0 -4.5 -1t-21.5 -3q-9 -2 -25 -3.5t-42 -5.5l-66 -7.5t-97 -8.5t-134 -7t-178 -3h-57t-61 1q-34 1 -78.5 1h-82.5q-120 0 -263.5 2.5t-315.5 13.5q-48 3 -89 6t-74 5q-17 2 -33 3l-31 2l-36 3l-59.5 4t-58.5 1q-4 0 -6 -1v-3
q0 -3 0.5 -6t0.5 -6q0 -9 0.5 -18.5t0.5 -20.5q0 -37 -3 -80q-4 -70 -15.5 -162t-38.5 -210q-27 -121 -59 -222l-59 -181l-10 -28.5l-8 -22l-8 -21.5l-9 -25q5 1 11 1t11 1q32 5 69 7.5t78 2.5q30 0 61.5 -1.5t63.5 -6.5q62 -8 130.5 -13t144.5 -5h33t33 1q147 5 260.5 27
t191.5 46q76 25 129.5 47.5t86.5 39.5q31 17 50.5 29t29.5 20q5 4 9.5 7t8.5 6q5 4 10 7.5l11 7.5q16 11 34.5 7t29.5 -19q12 -17 6.5 -37t-24.5 -33l-3 -1q-3 -1 -6.5 -2t-11.5 -6q-10 -4 -20 -9t-24 -11l-34 -15q-35 -16 -92 -38.5t-142 -47.5t-211 -48.5t-287 -29.5
q-17 -1 -39 -1h-39q-59 0 -115.5 2.5t-107.5 7.5l-25 2t-24 3l-38.5 4t-36.5 3q-29 1 -56.5 0t-54.5 -4q-73 -7 -127 -19q-10 -25 -19.5 -46.5t-17.5 -41.5h1q-31 -75 -50.5 -117t-27.5 -61l-6 -15q-14 -25 -34.5 -37t-37.5 -2t-20.5 32t7.5 46q1 2 4.5 8t5.5 12l21.5 39
t40.5 80l15 31.5l22 46.5l-50 -16t-44 -16q-45 -17 -82.5 -34.5l-60.5 -28.5l1 1q-7 -4 -11 -5.5t-7 -3.5l3 1l-37.5 -21t-16.5 -9q-18 -8 -36.5 -2.5t-27.5 22.5t-2.5 36t24.5 28l-1 -1q3 2 7 4t12 4h-2q4 2 9 3.5t13 4.5h-1q17 7 47.5 18.5t82.5 29.5l19 6q38 13 87.5 27
t108.5 28l15.5 38.5l16.5 42.5l73 197t77 252q29 125 42.5 232.5t12.5 179.5q0 36 -3 69v-2q-2 8 -2 16q-1 4 -1 9.5v13.5v4q0 3 1 7t4 8q5 5 10 8.5t9 5.5h-1q5 2 9 3t9 2q24 4 47 5l46 2h15q46 0 91 -1t97.5 -3.5t118 -7.5l152.5 -12q107 -9 186 -14t143 -8t120 -4t116 -1
h29q108 0 191.5 3.5t146 9t106.5 12t75 12.5q41 8 65 13.5t38 10.5q8 2 16.5 4.5t17.5 4.5q26 6 47.5 -0.5t27.5 -24.5z" />
    <glyph glyph-name="G" unicode="G" horiz-adv-x="1735" 
d="M1983 532q7 -7 5.5 -19.5t-10 -28t-22.5 -32t-32 -32.5q-6 -5 -12.5 -11t-13.5 -11l-28.5 -22.5l-55 -44l-95.5 -79l-151 -127l-222 -187.5l-307 -262q-3 -6 -6.5 -11t-6.5 -10q-12 -21 -22 -41q-18 -31 -36.5 -59t-37.5 -52q-21 -26 -45 -50t-54 -43q-17 -10 -35.5 -16
t-38.5 -6q-24 0 -42 7h-1q-3 2 -8.5 4.5t-10.5 4.5l1 1q-5 2 -8.5 7t-4.5 17q-1 6 2 14.5t8 16t10.5 12t10.5 2.5l43.5 37.5l45.5 39.5l71 61.5l66 58.5l45 39q12 23 23 46.5l22 48.5q37 86 73.5 182t69.5 199l10 30.5l10 31.5l-67.5 -40l-69.5 -39h1q-141 -77 -252.5 -118
t-206.5 -57h1q-53 -10 -112 -10q-18 0 -36.5 1t-35.5 4q-43 8 -88.5 27.5t-80.5 53.5t-59 83t-34 106q-4 21 -5.5 45t-1.5 49q0 39 4.5 79.5t12.5 83.5q14 72 41.5 151.5t70.5 170.5q43 89 103.5 184.5t150.5 195.5q91 101 193 174t212 108q92 29 177 29q11 0 21.5 -0.5
t21.5 -1.5q28 -3 55.5 -11.5t53.5 -26.5q27 -19 42 -47.5t17 -57.5q2 -26 -0.5 -51t-8.5 -48q-12 -45 -28 -84q-16 -38 -34 -72l-36 -65q-38 -64 -73.5 -115.5l-67.5 -94.5q-65 -88 -114.5 -148l-84.5 -101l-51 -61t-31 -34v1q-16 -18 -33.5 -31.5t-33 -21t-28 -8.5t-19.5 5
q-8 7 -7.5 19.5t6.5 28.5t18 34t28 36q4 5 8.5 9.5l10.5 10.5l38 41l13 13l59 66t87 102l64 79.5t73 98.5v-1l39 55.5t41 66.5q20 33 38.5 69.5t35.5 81.5q8 20 13.5 41.5t7.5 43.5q2 20 -2.5 40.5t-18.5 34.5q-14 15 -35.5 23t-46.5 11q-11 2 -23 2h-23q-15 0 -32.5 -1
t-34.5 -3q-56 -10 -120 -33.5t-118 -56.5q-58 -35 -114 -82.5t-110 -106.5v1q-100 -109 -165.5 -216t-108.5 -207q-43 -99 -65.5 -188t-27.5 -168q-1 -11 -1 -20.5v-20.5q0 -64 13.5 -118t42.5 -92q17 -22 36.5 -38t40.5 -27h-1q22 -11 44.5 -16.5t45.5 -8.5q11 -2 22 -2h22
q34 0 67 4.5t68 12.5v-1q42 10 87.5 25t98.5 36h-1q52 21 105.5 46.5t113.5 57.5l63.5 34l67.5 38q2 2 9.5 6.5t16.5 10.5l46 27h-1q2 2 2.5 1.5t2.5 1.5q1 1 3 2t2.5 1.5t2.5 1.5l13 6q4 4 7 6q3 3 11 7l15 1l28 -21.5t5 -4.5t-4 1.5t3 -4.5l-2 -14l-2 -5q-1 1 -1 2l-5 -20
l3 4q-2 -5 -3.5 -10.5t-3.5 -10.5q-37 -114 -76 -218t-73 -185q-10 -23 -13 -31t-4.5 -12.5t-4.5 -10.5l-12 -25l189 166.5l148.5 131l114 101l85 76.5l63 57.5l47.5 43.5q29 27 55 49l55 48q18 16 36.5 27t34.5 17t29 5.5t19 -7.5zM852 -497l18 21.5l18 21.5
q-15 -14 -32 -27t-32 -27q-8 -6 -15 -12.5l-14 -12.5q-6 -5 -11.5 -9t-10.5 -9q11 2 22 8h-1q17 9 31 20.5t27 25.5z" />
    <glyph glyph-name="H" unicode="H" horiz-adv-x="1555" 
d="M1800 527q6 -8 4 -20t-10 -26t-22.5 -28.5t-32.5 -27.5q-9 -5 -16.5 -10t-18.5 -11l-42 -25l-85 -52q-5 -3 -10 -5.5t-10 -5.5l-131 -73.5t-187 -95.5q-64 -31 -139 -63.5t-165 -66.5q-11 -4 -34 -15l-42.5 -20t-27.5 -10.5t10 12.5q-22 -6 -45.5 -10t-35.5 3.5t-6 31.5
t42 75l32.5 92.5l33.5 96.5l6 16.5l6 17.5l53.5 156l57.5 169q4 11 4.5 12.5t0.5 2t1 3.5t6 17q-51 -45 -113.5 -93.5t-136.5 -99.5q-56 -38 -123.5 -79l-142.5 -83v1q-56 -32 -119.5 -64.5l-134.5 -68.5l-55 -29l-58 -29q-2 -6 -3 -8l-11 -25l-11 -26q-2 -3 -3 -6.5
t-2 -5.5l-1 -1l-16.5 -29t-22.5 -29q-5 -5 -10.5 -8.5t-15.5 -6.5h1q-6 -2 -13.5 -1t-12.5 3l-8 3q-8 2 -17 7t-17 10l1 -1q-6 4 -11.5 8.5t-9.5 12.5v-1q-11 18 -5 37q5 13 12 22.5t16 17.5q24 20 51 36t54 30q1 2 2 5t2 5v-1q32 96 56 183t44 168q38 152 66 284l48 226
l46.5 230l26.5 132q3 14 4.5 24t3.5 15l-1 -1q4 22 11.5 41.5t17 33t19.5 20.5t19 5q14 -3 22.5 -20.5t8.5 -43.5q0 -13 -1.5 -27t-4.5 -27q-2 -11 -5.5 -24t-8.5 -36l-20 -86.5l-35 -150.5q-3 -11 -5.5 -23t-5.5 -25l-21 -89.5l-26 -109l-29.5 -122l-31.5 -128.5
l-48.5 -182.5t-61.5 -208.5l-4 -12l-4 -12q12 5 23.5 11t22.5 11q32 15 62.5 31l59.5 31l101 52l92 51q88 50 160 97.5t132 92.5q81 60 140 114t106 105q4 10 7 19.5t7 20.5q5 17 10.5 33.5l11.5 33.5l62 175.5l68 185.5q17 46 38 96.5l43 98.5l12 25.5t13 25.5
q4 8 8.5 14.5l11.5 16.5q2 3 3.5 5.5t6.5 7.5q5 7 14 12h2q2 1 2.5 1.5t2.5 1.5q8 4 18 4h6t10 -2q7 -2 10 -3.5t6 -3.5q11 -11 13 -15q3 -5 5 -11t4 -9v-2q2 -5 2 -8v-5v-17q0 -10 -0.5 -17t-1.5 -15q-1 -10 -1.5 -19.5t-2.5 -19.5q-1 -5 -1 -9.5t-1 -9.5q-11 -72 -30 -137
t-40 -117h1q-21 -52 -44.5 -95t-46.5 -81q-43 -65 -86 -118t-93 -106l-5 -15t-5 -16l-40.5 -115l-38.5 -109.5l-38.5 -111.5l-41.5 -121l-17.5 -51l-16.5 -49v1l-16 -48.5l-16 -45.5q36 5 76 19.5t78 30.5l72 30t57 19h-1q114 55 187.5 96.5l124.5 72.5h-1l85 54l58 39
q14 9 25 17l22 16l21 14.5l23 15.5q19 13 37 21.5t33.5 12.5t27.5 2.5t18 -9.5zM1169 963q35 55 66 114t57 125q15 41 28.5 90.5t23.5 103.5l-7.5 -17.5t-7.5 -16.5q-43 -97 -75 -179.5l-60 -154.5q-3 -7 -7 -15.5t-6 -16.5zM4 41q5 6 9.5 13.5t8.5 15.5q-3 -2 -6 -3.5
t-5 -3.5h1q-5 -5 -10 -9t-9 -8q1 0 1.5 -0.5t1.5 -0.5zM-18 53q2 -2 4 -3q-2 2 -4 3zM-14 38q0 1 1 1z" />
    <glyph glyph-name="I" unicode="I" horiz-adv-x="891" 
d="M1131 526q10 -15 0 -38t-32 -39q-4 -2 -8.5 -5t-9.5 -6l-23 -11.5t-47 -26.5l-70 -42l-106 -64q-8 -5 -16.5 -9.5l-17.5 -9.5l-143 -82.5t-188 -100.5l1 1q-5 -3 -11.5 -6t-11.5 -6l-59.5 -29l-62.5 -30h1q-3 -2 -6.5 -2.5t-6.5 -2.5q-20 -9 -37.5 -16t-34.5 -13
q-23 -8 -47.5 -14.5t-55.5 -7.5q-10 0 -20 1.5t-20 6.5h1q-22 9 -35 31v-1q-12 17 -15 34t-4 34q-2 31 2 59t10 57q12 56 30.5 112l39.5 115l39.5 101l33 80l28.5 65.5l26 58.5l15.5 35.5l16.5 36.5l38.5 86.5l47.5 113.5h-1l61.5 154t77.5 210q2 6 4.5 12.5t4.5 12.5
q-53 -55 -101 -93.5l-87 -67.5l-80 -53t-56 -34q-20 -12 -35.5 -20.5t-20.5 -10.5q-26 -13 -51.5 -9t-33.5 22q-6 18 6 38.5t38 31.5l-2 -1q7 3 13.5 6.5t19.5 8.5h-1l6 3l40.5 20t64.5 35q38 23 91.5 60t122.5 100v-1q31 30 63.5 67.5t64.5 85.5q0 4 1 5q1 2 1.5 3.5
t1.5 3.5l3 9l33 20q-8 5 0.5 1t31.5 -12l7 -21q0 -1 -0.5 -4t-0.5 -4l-6 -10q-2 -3 -3.5 -6t-3.5 -6t-3.5 -6.5t-3.5 -6.5q-2 -2 -2 -1l-6 -18t-6 -17v1q-2 -5 -3.5 -11t-3.5 -11l-24 -69l-27 -74l-85.5 -219.5l-64.5 -167l-48.5 -126.5l-37.5 -99l-31.5 -84l-29.5 -81
l-23 -62.5l-26.5 -72.5l-32 -85l-38.5 -101v1q-9 -29 -16.5 -55.5t-12.5 -53.5q-3 -15 -5 -29t-2 -25q0 -16 3 -28q3 -11 12 -15l-1 1q12 -4 26 -2q20 3 36 6.5t30 7.5h-1q61 20 116 46.5l118 58.5q95 51 167.5 95l126.5 78l16 9h-1l95.5 61.5l65.5 44.5h-1l39.5 28.5
l28.5 20.5l28.5 20l28.5 20q23 16 47.5 16t35.5 -17z" />
    <glyph glyph-name="J" unicode="J" horiz-adv-x="773" 
d="M1018 528q5 -8 3 -19t-9.5 -24t-21 -26.5t-30.5 -24.5q-8 -6 -13.5 -9.5t-12.5 -7.5v1l-36 -21.5l-76 -46.5q-8 -5 -15 -10l-16 -11l-103.5 -67.5l-142.5 -96.5l-234 -166t-307 -236v1l-94.5 -80l-98.5 -90l-27 -26l-27 -26l-60 -96l-70 -108l-56.5 -82.5l-53.5 -74.5
l-8 -10l-9 -10h-4t-4 0.5t-9.5 0.5h-18.5q-6 9 -8 12.5t-3 5.5q-1 3 -2 6.5t-4 9.5l1 7q-1 2 -0.5 5t0.5 6q2 15 4.5 26.5t6.5 22.5q8 21 17.5 38.5t20.5 34.5q37 55 74 98.5t75 81.5q1 2 2.5 4.5t3.5 4.5q11 17 22.5 37.5l22.5 38.5l111 191l81 146l65 121l63 119l69 139
t83 181l105 253.5t124 337.5l62.5 193.5t52.5 178.5q5 17 8.5 32t8.5 32q1 4 1 6.5t-3 -1.5t-10.5 -17.5l-22.5 -41.5q-117 -93 -222 -146.5t-188 -85.5q-85 -31 -148 -47.5t-106 -25.5q-38 -8 -63 -11.5t-36 -5.5q-1 0 -2 -0.5t-3 -0.5q-21 -2 -40 0t-33 7.5t-22.5 14
t-8.5 18.5q0 20 27 34t66 19q5 1 10.5 1t10.5 1q8 1 18.5 2.5t27.5 3.5q28 4 74 12.5t115 26.5h-1l79 25t91 34q50 20 106 49.5t121 71.5l67 43t63 52l33.5 35t33 31t28 17t18 -7t2.5 -41t-18 -85q-26 -99 -61.5 -209l-78.5 -235l-77.5 -211l-71 -180.5l-64 -154
l-56.5 -130.5l-94 -208l-75 -161l-69 -139.5l-76 -144.5v-1q-5 -10 -6 -11l-2 -4t-3 -5l57 49l62 52l251 198.5l197 146.5q5 4 11 8t11 8l112.5 82l88.5 64l54 39l46.5 34l37.5 27l34 25l29 21l27.5 19l29.5 20q16 10 33.5 17t32.5 9t26.5 -0.5t16.5 -9.5z" />
    <glyph glyph-name="K" unicode="K" horiz-adv-x="1756" 
d="M1999 538q6 -7 5 -19.5t-8 -27t-19.5 -30.5t-28.5 -31q-8 -8 -15 -13.5l-13 -10.5q-2 -2 -5 -3.5t-6 -3.5q-2 -1 -7.5 -5.5t-10.5 -9.5l-36.5 -28l-53.5 -42l-9 -6l1 1l-51 -37.5l-63 -44.5q-40 -28 -91.5 -60.5t-106.5 -61.5q-32 -17 -66.5 -33t-73.5 -30
q-41 -14 -85.5 -25t-95.5 -13t-107 11.5t-105 49.5q-48 36 -83 92t-52 119q-20 72 -23 146q-1 17 -0.5 39t2.5 40l4 22t9 25q3 7 8 15t19 14l1 1l9 6q22 17 48.5 42.5l55.5 51.5v-1q3 3 6.5 6t6.5 6q60 57 122 122l31.5 31.5l31.5 32.5l-64 -57l-65 -58l-57.5 -52l-63.5 -57
l-82.5 -75l-95.5 -86l-105 -95l-123 -110q-4 -4 -8 -7.5t-7 -6.5l-62.5 -54.5l-67.5 -57.5l-81.5 -68t-95.5 -73l-2 -2q-1 -1 -5 -3l-10.5 -6.5l-10.5 -6.5l-6 -3q-7 -4 -13.5 -7t-19.5 -5l2 1q-6 -2 -14.5 -1t-19.5 6q-11 7 -13 12t-6 13q-1 4 -1.5 7t-0.5 12q0 2 -0.5 3
t-0.5 3q0 11 0.5 18.5t1.5 15.5q4 24 9.5 48l10.5 47q0 1 0.5 4.5t1.5 8.5l29.5 109l29.5 103l56.5 183.5l53.5 164.5l85.5 254.5l69.5 203.5v-1q3 10 6.5 19t6.5 18l73 208.5l43 122.5v-1l11.5 33t6.5 20q8 21 18 39t21.5 30t22.5 17t20 2q19 -7 20.5 -42t-14.5 -78
q-3 -8 -7.5 -18.5t-10.5 -26.5l-13.5 -33l-18 -47l-25.5 -66l-34 -89l-6 -16l-6 -16l-69.5 -187.5l-92.5 -256.5l-61.5 -175.5l-68.5 -203.5v1q-3 -11 -6.5 -21t-6.5 -21l-29 -94l-30 -99v1q-1 -3 -1.5 -6.5t-1.5 -6.5q-8 -29 -15.5 -59t-12.5 -58q0 -4 -3 -23q-1 -2 -1 -4
t-1 -5q-1 -2 -1 -7l18 10t9 6q53 36 102 76.5l95 79.5l75 64.5l70 61.5q5 5 10 9t10 9l138 125l118 109l187 175.5l145 138.5l18 16.5l17 16.5l109.5 105l117.5 111q5 3 6 4l2 2l75 68.5t88 75.5l28 22q7 5 14.5 11t17.5 11q6 4 14 4q1 0 1 0.5t2 0.5q5 1 12 0t16 -6
q7 -7 11 -15t5 -13v-7q0 -9 -4 -17q-2 -4 -3.5 -7.5t-3.5 -5.5l-3 -6q-3 -5 -8.5 -12t-12.5 -15q-2 -2 -2 -2.5t-2 -2.5q-24 -30 -52.5 -61.5l-57.5 -63.5l-149 -154.5l-127 -127.5l-110 -107l-96 -92l-45.5 -42l-45.5 -39q-12 -11 -25 -21t-24 -17l3 3q-1 -1 -2 -1t-2 -1
q-5 -5 -9 -7v-3q-3 -5 -4 -18q-2 -15 -3.5 -30.5t-1.5 -29.5q0 -23 3 -50q3 -29 8.5 -59t16.5 -60v1q17 -48 42 -87.5t58 -65.5q33 -27 71 -39t76 -14t74 4t68 14h-1q32 9 62 21t56 25q52 25 97 52t80 50l62 44t54 41l71 56l50 42l10 10l13.5 11.5t11.5 10.5l27 24l28 26
q35 29 68 41t46 -2zM107 35l-1 1z" />
    <glyph glyph-name="L" unicode="L" horiz-adv-x="1758" 
d="M1917 521q23 20 47 24t38 -11q13 -14 5 -38.5t-29 -44.5q-5 -5 -9 -8t-8 -5v1q-8 -5 -22.5 -17l-47.5 -38l-13 -10.5l-15 -11.5l-62 -48.5t-87 -65.5l-72.5 -50t-91.5 -56q-51 -28 -112 -56t-135 -45q-34 -8 -71 -12.5t-78 -4.5q-8 0 -15 0.5t-15 0.5q-26 1 -50.5 4.5
t-49.5 8.5q-24 5 -47.5 9t-49.5 8q-42 5 -86.5 8t-89.5 3q-131 0 -287 -21q-63 -8 -111.5 -15.5t-89.5 -14.5l-27 -4l-26 -4l-60.5 -9.5l-57.5 -9.5q-15 -2 -30.5 -5t-31.5 -5q-3 0 -5 -0.5t-3 -0.5q-3 -1 -8.5 -1.5t-8.5 -1.5l-17 -2q-1 2 -11.5 19.5l-19.5 33.5l11 12l2 4
q1 2 2.5 4t2.5 4l13.5 22l12.5 22q16 27 30 56l29 61q30 66 67 168.5t75 226.5q39 131 69.5 248.5l52.5 208.5q23 94 38.5 167.5l27.5 130.5q16 74 25.5 122l14.5 75q6 27 7 35q5 31 23.5 49.5t36.5 14.5t28 -28t4 -53q-2 -7 -4 -16.5t-7 -26.5l-13 -49l-21 -82l-30 -119
l-44 -170l1 1l-4 -14l-4 -14l-60 -219.5t-84 -278.5q-48 -149 -91 -261t-80 -193l-20.5 -44.5t-15.5 -30.5v2q-2 -3 -2.5 -5.5t-2.5 -5.5q5 2 9 2.5t8 1.5q11 2 22 5t22 5v-1l101 22.5t107 21.5q54 9 137.5 20t176.5 14h44q61 0 112 -3.5t95.5 -9.5t82 -13.5t71.5 -15.5
q33 -8 65.5 -11.5t65.5 -3.5q64 0 135 18q59 15 107.5 38t90.5 46q40 23 74 46.5t63 45.5q59 44 96.5 76l63.5 55t42 39.5t29 28.5v-1q14 14 25 24z" />
    <glyph glyph-name="M" unicode="M" horiz-adv-x="2131" 
d="M2371 541q7 -7 7 -19.5t-6.5 -29t-19 -35t-29.5 -36.5l-21 -20.5l-26 -24.5q-2 -2 -4 -4.5t-4 -4.5q-14 -14 -38.5 -36l-65.5 -59l-54.5 -49.5t-70.5 -59.5q-20 -17 -44 -34l-50 -36q-27 -19 -57.5 -37.5t-65.5 -35.5q-20 -9 -40.5 -16.5t-40.5 -12.5l-23 -4t-28 -2
q-28 0 -51 8q-27 9 -50 29.5t-37 44.5q-14 23 -22.5 50.5t-13.5 54.5v-1q-6 34 -8.5 70t-2.5 76q0 21 0.5 42.5t1.5 43.5q4 60 11.5 127.5t17.5 133.5q5 35 11 73l12 76l12.5 83t12.5 86q1 8 1.5 15t2.5 14l-13 -21t-13 -20q-54 -84 -115.5 -169l-128.5 -175l-138.5 -182.5
l-149.5 -190.5l-49.5 -61.5l-45.5 -56.5v1l-41 -50l-38 -47q-2 -2 -5 -5.5t-5 -5.5q-2 -3 -10 -12.5t-11 -13.5q-17 9 -27 18.5t-14.5 18.5t-5 16t1.5 10l-24 -15q0 1 0.5 2t0.5 2l1 7l5 18q2 6 3 11.5t3 10.5l4 15.5l4 15.5v-1q5 16 8.5 31t7.5 30l9 33l43 167.5l40 162.5
l21 88.5l23 99l24.5 112.5l26.5 131l28.5 153t27.5 178v-1q6 49 11.5 101t7.5 107v30q0 20 -1 39.5t-5 40.5v1q-2 11 -5 22t-8 16q-9 -2 -16 -6q-24 -15 -45.5 -36t-41.5 -44l-39.5 -46t-37.5 -49l-68.5 -95l-63.5 -93l-112.5 -176l-99.5 -162l-144.5 -248l-114.5 -204
q-7 -12 -13 -23.5l-12 -22.5l-122.5 -224.5l-67.5 -126.5q-17 -30 -22 -41q-12 -22 -25 -39.5t-26.5 -28.5t-25 -15.5t-20.5 0.5q-9 4 -12 16.5t-1 30t8.5 38.5t18.5 43l14.5 25.5l24 41l40.5 69l64 110.5q6 10 11.5 20.5t12.5 21.5l15 27l16 29l107 182.5l146 241.5
l108 176.5l127 199.5l74 110l82 114q3 4 5.5 7t5.5 7l40 52l42 52q25 28 55 58l31 28.5t36 25.5q11 6 22.5 10t24.5 4q17 0 30.5 -9.5t20.5 -21.5l-1 1q12 -19 16.5 -38.5t6.5 -39.5q3 -33 3 -66q0 -18 -0.5 -36.5t-1.5 -36.5q-5 -65 -12 -125t-15 -116q-17 -111 -34 -204.5
l-33 -174.5l-30.5 -149l-27 -129l-24 -113l-22.5 -102l-22 -94l-22 -94l23 28.5l24 29.5l115 141.5l138 172.5l145.5 185.5l118.5 158.5l50 70.5l45 65.5v-1l6 10l6 10q8 12 16.5 23.5t21.5 19t31.5 9.5t47.5 -4v-13q-2 -17 -3.5 -33.5t-3.5 -32.5l-9.5 -63l-9.5 -63l-9 -57
q-8 -48 -15.5 -101.5l-15.5 -107.5q-11 -83 -18 -158t-7 -143q0 -58 6 -109q5 -41 16.5 -79.5t31.5 -61.5q9 -11 21 -18t25 -10l-1 1q14 -2 28.5 -1t27.5 3q29 7 56 18.5t48 24.5q23 13 43.5 27.5l40.5 29.5l68 54t54 47h-1l74 70.5l51 51.5q1 1 1.5 2t2.5 3q1 2 3 3
l44.5 46.5l45.5 46.5l5 5h-1q16 18 33.5 31t33 20.5t28 9t20.5 -5.5z" />
    <glyph glyph-name="N" unicode="N" horiz-adv-x="2027" 
d="M2172 511q32 27 62 35.5t44 -5.5q6 -7 5.5 -19t-7.5 -26t-19.5 -29t-28.5 -29q-2 -2 -3.5 -3t-3.5 -3l1 1q-8 -6 -17.5 -14l-25 -20.5l-40 -31.5l-60.5 -46l-13.5 -9.5t-14.5 -9.5h1l-103 -74.5t-149 -99.5l-119 -69t-143 -67q-40 -16 -86.5 -28.5t-99.5 -14.5
q-28 -2 -56.5 1.5t-55.5 14.5t-52 30.5t-44 47.5v-1q-20 27 -33 59t-21 66q-8 35 -11.5 70.5t-4.5 70.5v31q0 66 7 134.5t20 138.5q14 75 35.5 160t49.5 172q22 70 51 143q-15 -4 -34 -11q-119 -40 -201.5 -80t-145.5 -77q-60 -36 -113 -74.5t-104 -82.5
q-50 -44 -110.5 -108.5t-125.5 -150.5l-70 -104t-73 -123q-20 -35 -38.5 -72l-38.5 -79q-10 -20 -20 -42.5l-20 -45.5q-2 -4 -4 -10q-1 -2 -1.5 -3.5t-1.5 -2.5q0 -5 -0.5 -14.5t-0.5 -10.5q-21 6 -33 9t-18 5t-9.5 3t-8.5 2l1 18v6l2 15q2 13 3.5 26t3.5 27
q17 103 40.5 202t47.5 186q25 87 50 165t50 147l46 126.5l44.5 117l41.5 104.5l36 88l56 133.5l41.5 95.5l28.5 63l16 35q1 2 2 5t3 5l-3 -4q9 19 20.5 34t23 24.5t22.5 12.5t20 -1q17 -10 16 -42t-18 -69v1l-5 -12t-8 -16l-14 -27l-20.5 -41l-29.5 -60.5l-40 -84.5v1
l-75 -170l-100 -244l-58.5 -155.5t-61.5 -180.5q-24 -76 -49 -163.5t-45 -186.5l41.5 80l40.5 73q47 80 90 143.5t85 116.5t80.5 96t74.5 78t70 64.5l66 55.5q65 51 130.5 92t147.5 80q41 19 88 38t104 39q23 8 49 16l53 16q3 9 5.5 17.5t3.5 10.5l40 -16l-1 -3l21.5 -24.5
t19 -25t8.5 -19t-9 -5.5q1 -2 3 -4l-32 -1q-2 -4 -3.5 -8.5t-3.5 -7.5l-10 -24l-10 -24l-9 -21h1q-38 -94 -65 -179t-45 -150q-17 -66 -28.5 -129t-18.5 -117q-4 -35 -6 -68t-2 -64q0 -36 3 -72q2 -23 6.5 -48.5t11.5 -48.5q8 -23 18.5 -46t27.5 -43q28 -31 64 -43
q19 -7 38 -9.5t38 -2.5q38 1 74.5 9.5t69.5 20.5q67 25 122.5 55l100.5 56h-1q84 53 140 94l97 73l9 7l9 7l81 67.5l59 51.5l36.5 32.5t35.5 29.5z" />
    <glyph glyph-name="O" unicode="O" horiz-adv-x="1550" 
d="M1703 523q26 16 52 17.5t38 -14.5q11 -16 -1 -41t-42 -42q-9 -5 -15 -8t-18 -8l-5 -2l-31.5 -13t-49.5 -19l-45.5 -13t-58.5 -10q-9 -1 -19.5 -1.5t-22.5 -0.5q-29 0 -60 4.5t-64 18.5h1q-45 17 -92 57t-83 94q-7 8 -12 16l-10 16q-7 -23 -15 -46.5t-18 -47.5
q-19 -44 -41 -88.5t-50 -87.5q-29 -45 -65 -90t-81 -87q-45 -41 -102 -77.5t-124 -60.5q-32 -12 -70.5 -20t-74.5 -11q-7 -1 -15.5 -1h-16.5q-31 0 -63.5 4.5t-64.5 13.5q-50 15 -91 38t-71 47q-29 25 -51.5 52t-38.5 53q-32 54 -46.5 104t-20.5 107q-1 12 -1.5 25.5
t-0.5 26.5q0 45 8 101.5t26 121.5q11 43 28 92.5t41 103.5q26 56 59 117t81 126q98 131 211 215q57 41 116 68.5t116 38.5q17 4 37.5 5.5t38.5 1.5q10 0 19.5 -0.5t17.5 -1.5q56 -3 99 -20q47 -17 82 -43.5t58 -55.5h-1q23 -28 38 -55.5t26 -53.5q11 -29 16.5 -49l9.5 -34
q7 -30 9.5 -49t3.5 -30q1 -18 -2 -33.5t-9.5 -27t-15.5 -18t-19 -5.5q-20 2 -32.5 23.5t-14.5 52.5q0 2 -0.5 4t-0.5 4q-1 6 -1.5 15.5t-2.5 23.5q0 2 -0.5 5.5t-0.5 5.5q-3 20 -10 50.5t-24 68.5v-1q-11 23 -28.5 47.5t-46.5 47.5q-28 23 -68.5 38.5t-93.5 17.5
q-52 4 -112 -12.5t-122 -53.5t-124.5 -94t-120.5 -132q-51 -69 -89 -138.5t-62 -127.5q-24 -59 -39.5 -112.5t-25.5 -102.5v1q-12 -69 -12 -123q0 -47 7.5 -86.5t19.5 -74.5q20 -48 52.5 -93.5t75.5 -80.5q24 -18 54.5 -34.5t67.5 -27.5q25 -8 54.5 -12.5t62.5 -4.5
q15 0 31 1t34 4q72 10 128 35t99 54q43 30 76.5 60.5t58.5 59.5q25 30 47.5 61.5t40.5 61.5q35 61 67 141q7 18 13.5 45.5t12 56l10.5 54t8 39.5l61 -18l39 -95v1q28 -45 58.5 -75.5t62.5 -47.5q30 -18 59.5 -25t55.5 -8q26 -2 47 1.5t38 7.5q29 8 53 18t39 17q2 1 3.5 2
t3.5 2l-4 -1l30.5 16t30.5 18z" />
    <glyph glyph-name="P" unicode="P" horiz-adv-x="1345" 
d="M1591 554q11 -8 12 -25.5t-12 -37.5q-9 -12 -23.5 -25.5t-34.5 -24.5h1q-13 -8 -21 -12t-24 -11q-7 -3 -17.5 -7l-26 -10t-38 -13.5l-54.5 -17.5q-57 -16 -151.5 -38.5t-225.5 -42.5q-47 -8 -101 -14.5l-114 -13.5l-42 -9t-37 -6q-54 -8 -106.5 -11t-101.5 -2
q-3 0 -6 0.5t-6 0.5h-10l-21 45l21 17q5 0 10.5 0.5t10.5 1.5q12 1 24 1.5t23 1.5h-1l43.5 4l41.5 4l104.5 12t95.5 12l-3 -1q41 12 81 28.5t79 38.5q66 37 127.5 90t112.5 122t86 153t43 179v-1q1 11 1.5 21.5t0.5 21.5q0 36 -6.5 72t-20.5 70q-17 42 -49 74t-77 43
q-30 8 -61 8q-28 0 -52 -6q-27 -5 -51.5 -15t-45.5 -21h1q-46 -26 -82 -52t-66 -52q-60 -54 -109.5 -107.5t-99.5 -114.5h1q-50 -62 -106.5 -140t-124.5 -187l-73 -121l-80 -144l-58 -110q-2 -5 -2.5 -8.5t-2.5 -8.5q-4 -14 -7.5 -29t-8.5 -31l1 1q-1 -4 -1 -3t-1 -3
l-34.5 -116.5t-40.5 -116.5q-1 -2 -2 -4.5t-2 -4.5q-6 -14 -13 -27.5t-15 -27.5q-5 -8 -11.5 -17t-16.5 -18l-2 -2q-5 -4 -10 -6.5t-14 -4.5q-16 0 -28 12q-4 6 -5 9q-2 9 -2.5 13t-0.5 8q2 17 6 32t9 31q1 3 2.5 8.5t2.5 8.5l11.5 32t12.5 32q25 61 51 117.5l51 107.5
l-1 -4q17 63 30 121.5l25 113.5q29 134 52 250.5l40 206.5q3 15 6 28.5t5 27.5l26 143l19 108l13 77l8 49q2 8 2.5 14.5t1.5 10.5q9 44 27.5 73.5t37.5 27.5q14 -2 23 -20.5t9 -46.5q0 -22 -5 -50q-2 -13 -5.5 -29.5l-10.5 -48.5l-17.5 -83.5l-27.5 -136.5l-43.5 -209.5
l-63.5 -289.5l-8.5 -35t-9.5 -36v1q-2 -5 -3 -10.5l-2 -10.5l84 143.5l76 122.5l76.5 115.5l70.5 98.5l65.5 85l62.5 75l62 67.5t65 62.5t72 58.5t86 53.5q23 11 51.5 22t57.5 16q27 6 62 6q32 0 73 -9q38 -9 73.5 -29.5t63.5 -53.5q29 -33 47 -75t26 -90q6 -41 6 -82
q0 -38 -5 -74.5t-13 -70.5q-26 -101 -68 -175q-41 -75 -89 -130.5t-99 -98.5q-26 -22 -52 -40.5t-53 -35.5q66 13 117 25.5t89 23.5q60 17 96 30t62 25q26 11 48 21.5t46 24.5q14 9 29 16.5t26 12.5q15 7 26.5 9.5t22.5 -4.5h1z" />
    <glyph glyph-name="Q" unicode="Q" horiz-adv-x="1637" 
d="M1873 540q14 -11 16.5 -30t-10.5 -35l1 1q-5 -7 -12 -12l1 1q-4 -3 -11 -9.5l-21 -20.5h1q-12 -13 -32 -32.5l-49 -48.5q-2 -2 -3 -3.5t-3 -3.5l-69 -67t-97 -83l-16 -12t-16 -13l-57 -44.5t-65 -44.5q-47 -29 -108 -56t-132 -38q-20 -2 -37 -3.5t-34 -1.5q-22 0 -39.5 2
t-32.5 4q-27 4 -50 10.5t-47 15.5q-8 2 -10.5 3t-10.5 5q-39 -25 -85.5 -45.5t-97.5 -34.5q-46 -13 -87 -16q-3 0 -6.5 -0.5t-5.5 -0.5h-16q-2 0 -3 -0.5t-3 -0.5h-2q-8 -1 -18 -1h-18q-36 0 -65 2.5t-55 7.5q-54 10 -98 25.5t-89 42.5q-21 14 -43 31t-45 43
q-22 24 -41 55.5t-33 72.5v-1q-25 69 -25 165q0 59 11.5 130t34.5 148q21 70 48.5 132t58.5 116t64 99.5t66 82.5q69 76 131.5 125.5t113.5 81.5q49 30 89.5 50.5t69.5 32.5q28 13 44 19t23 8q18 6 34 6q20 0 34 -9.5t19 -24.5q4 -17 -13.5 -34t-44.5 -26l-12 -4
q-5 -2 -12.5 -4t-18.5 -6h1q-17 -6 -46 -17.5t-72 -31.5q-42 -22 -104 -60.5t-134 -104.5q-36 -34 -76 -79t-75 -96q-36 -55 -70.5 -123.5t-60.5 -149.5q-25 -75 -36 -142t-10 -127q1 -58 13 -105t32 -83q20 -35 46 -59t52 -41q27 -17 52 -28t48 -17q49 -14 97 -19t105 -3
q8 0 15 0.5t15 1.5h3q1 0 2 0.5t2 0.5h2h15q2 0 4 0.5t4 0.5q17 2 32.5 4.5t31.5 6.5q28 7 58.5 17.5t63.5 27.5q-2 1 -4 1.5t-4 2.5q-34 20 -77.5 52.5t-98.5 86.5q-54 55 -91.5 103t-65.5 90q-29 44 -49 77.5l-34 58.5h1q-27 49 -39.5 75.5l-17.5 36.5q-8 19 -0.5 37
t26.5 25q17 7 35 -0.5t25 -26.5v-1q1 -2 2 -5.5t2 -5.5q2 -5 7 -19.5t20 -50.5h-1l25 -55.5t40 -77.5q26 -44 62.5 -99.5t95.5 -120.5v1q55 -58 102.5 -91.5t85.5 -51.5h-1q7 -3 9 -3.5t8 -3.5q43 29 81 63.5t63 62.5q29 35 53 69.5t41 65.5t31.5 61.5t26.5 61.5t23.5 64
t22.5 71v-1q23 82 33.5 151.5t10.5 128.5q0 52 -9 97q-6 31 -15.5 56.5t-21.5 45t-25 34t-24 23.5q-22 16 -41 24.5t-33 13.5l4 -1q-1 0 -1 0.5t-1 0.5h-1q-16 5 -29.5 7.5t-30.5 4.5h1q-26 3 -45 15.5t-23 29.5q1 18 24 34t54 13q8 -1 14.5 -2t17.5 -5q2 -1 4 -1.5t5 -1.5
q12 -4 30.5 -11t46.5 -22q17 -11 37 -26t41 -38q20 -24 39 -56.5t30 -77.5v1q9 -31 13 -65t4 -72q0 -69 -14 -151t-43 -178q-24 -77 -61 -167t-94 -181q-29 -44 -66.5 -88t-84.5 -82q5 -1 9.5 -1.5t9.5 -1.5q25 -4 49.5 -5t51.5 0q28 1 64.5 5t83.5 15q60 18 104.5 39.5
t73.5 38.5h-1q32 21 58 40t55 44q48 40 81.5 75l57.5 61l34.5 41l25.5 32l-1 -1q2 2 3 4t4 5q10 13 16.5 22.5t11.5 17.5t9.5 14.5l10.5 14.5q12 15 31.5 17t34.5 -9z" />
    <glyph glyph-name="R" unicode="R" horiz-adv-x="2381" 
d="M2627 538q6 -7 5 -19.5t-8.5 -28.5t-21.5 -33t-32 -33h1l-15.5 -13l-24.5 -19q-3 -2 -6 -4.5t-7 -5.5l-39.5 -31.5l-66.5 -51.5q-2 -2 -3.5 -2.5t-3.5 -2.5l-56.5 -41t-71.5 -49q-42 -27 -97 -59t-124 -64q-35 -16 -74 -31t-83 -26q-45 -12 -94.5 -19.5t-104.5 -5.5
q-56 2 -113 15.5t-113 44.5h1q-57 29 -106.5 74.5t-92.5 103.5q-46 63 -82.5 135.5t-65.5 154.5l-23.5 65.5t-17.5 65t-4 59.5t19 49q-7 -2 -6 -1.5t2 1.5l13 6q8 4 21.5 10t21.5 10h-1l41.5 21t41.5 22q40 21 82.5 46l87.5 54q42 27 83.5 57.5t80.5 66.5q20 18 38 36.5
t32 38.5q14 19 25.5 40t15.5 44q10 43 -15 78q-10 16 -30 28t-43 20q-32 10 -66 13.5t-64 3.5q-32 0 -61 -2.5t-58 -6.5q-57 -9 -103.5 -21.5t-88.5 -26.5q-85 -28 -154.5 -61t-141.5 -76h1q-36 -22 -74 -48t-78.5 -58.5t-84.5 -73.5t-92 -92t-98 -117.5t-97 -141.5
q-48 -81 -94.5 -181.5t-83.5 -221.5q-21 -66 -33 -123q-4 -15 -7 -29.5l-6 -29.5l-3 -13q0 -1 -0.5 -2.5t-0.5 -2.5l-1 -7l-11 13q0 -4 -3.5 -9.5t-8.5 -10.5t-10.5 -8t-9.5 -2l-28 42q1 9 3 15v-1q10 60 24.5 116.5t31.5 110.5q33 106 68 198.5l68 176.5q67 166 124.5 294
l102.5 227l68.5 145l51.5 109l36.5 76.5l23.5 48.5v-1q3 7 5 11l4 8q12 22 25 40t26.5 29.5t25 16t20.5 0.5q18 -9 14 -45t-25 -78q-4 -7 -8.5 -16.5t-10.5 -20.5q-7 -14 -18 -34l-26.5 -50l-37.5 -72l-51 -100l-99.5 -203.5t-134.5 -292.5q-2 -4 -2 -5q55 80 110.5 143.5
t109.5 116.5q58 56 113 100t106 80q52 36 100 64t90 50q44 23 88.5 42.5t89.5 34.5q46 15 96.5 28t104.5 21q54 9 120 9q32 0 67 -4t73 -15q19 -6 38.5 -14.5t37.5 -21.5l-1 1q20 -13 37 -32t26 -42l-1 1q11 -23 15 -49.5t0 -53.5q-5 -26 -15.5 -51t-24.5 -46
q-18 -28 -40.5 -53t-43.5 -45q-20 -18 -43 -36.5l-46 -35.5q-43 -32 -85 -58l-83 -49l-76 -41.5l-72 -36.5l-34.5 -16.5l-33.5 -15.5l-27 -12q13 -65 31 -124t41 -115v1q23 -57 53 -113t74 -111q70 -88 156 -137q41 -23 84.5 -35.5t85.5 -17.5q14 -2 26 -2h24q67 0 129 15.5
t111 33.5q61 25 110 50t87 49h-1l73 47.5t56 40.5q44 32 73 56l52 44q5 4 8.5 7.5t8.5 7.5l23.5 21l22.5 20h-1l21 18t23 20q18 15 35.5 27t33.5 18.5t28.5 7t19.5 -6.5z" />
    <glyph glyph-name="S" unicode="S" horiz-adv-x="1539" 
d="M1780 551q14 -5 17 -22t-8 -37q-7 -13 -21.5 -27.5t-34.5 -28.5q-9 -5 -14 -8.5t-16 -9.5l-4 -2q1 1 -4 -1.5l-9 -4.5q-16 -8 -42.5 -19l-69.5 -28q-53 -19 -135 -44t-208 -53l1 1q-32 -8 -66.5 -15l-72.5 -15q-36 -8 -76 -15.5t-82 -16.5l-112 -25t-122 -30
q5 -24 8 -49.5t2 -54.5q-2 -61 -32 -122q-15 -29 -38 -57t-53 -53t-66 -45.5t-76 -35.5q-54 -18 -106.5 -25.5t-99.5 -5.5q-50 1 -94 10.5t-81 29.5q-20 12 -37 29.5t-24 43.5q-6 26 1 48t19 39q22 31 48 52t52 38q51 32 100.5 55t101.5 44h-1q47 19 100 37.5t117 38.5
l60 18h1h2h1l2 1q-10 29 -24 61.5l-25 56.5q-33 66 -68.5 124.5l-74.5 119.5l-63 92l-77 108l-75 105q-2 2 -3.5 5.5t-3.5 5.5l1 -1l-71.5 104t-79.5 128q-21 36 -40.5 78.5t-33.5 92.5q-8 26 -11.5 54.5t0.5 57.5q3 31 18 61t39 53q26 23 53.5 37.5t53.5 24.5
q27 9 55.5 15.5t53.5 11.5q52 8 102 10.5t99 2.5q97 0 182.5 -6t162.5 -21q37 -8 74 -18t72 -26q35 -15 66 -35t54 -44q25 -26 40 -58t20 -64q3 -20 3 -41q0 -20 -2.5 -38.5t-7.5 -35.5q-14 -49 -33 -88t-37 -68q-18 -30 -35.5 -54.5t-31.5 -41.5q-29 -36 -47 -56t-26 -28h1
q-15 -16 -31.5 -27t-31.5 -16t-27 -4.5t-19 8.5q-12 14 0.5 44t40.5 60l-1 -2l17 17q6 6 13.5 14.5l19.5 21.5l21.5 24.5l27.5 33.5v-1l32.5 44.5t34.5 56.5q9 17 17 35.5t15 39.5q6 19 9 42t1 48q-4 23 -15 46.5t-31 43.5q-21 21 -51 38t-65 30q-72 27 -163 40.5t-194 18.5
q-22 1 -48 1.5t-49 0.5q-30 0 -62.5 -1t-64.5 -4q-30 -3 -60.5 -8t-59.5 -13q-28 -8 -56 -20.5t-51 -34.5q-20 -18 -30 -42t-11 -49q-2 -27 3.5 -53t13.5 -51v1q18 -51 41 -95t47 -83q45 -73 85.5 -130.5l77.5 -108.5l9.5 -13t9.5 -12l42 -57l116.5 -158.5t90.5 -132.5
q23 -34 45 -70.5t39 -72.5q14 -26 26 -54t23 -60q113 31 209.5 54t175.5 40q20 5 39 8t37 8q106 25 183 47.5t131 42.5q46 17 82.5 33t58.5 27q23 11 42.5 22.5t41.5 26.5q14 9 27 16.5t23 12.5q14 6 24 8.5t21 -2.5zM603 -45q15 27 20.5 54.5t5.5 53.5q0 18 -2 34.5
t-5 32.5q-20 -5 -40 -11.5l-41 -13.5q-59 -17 -123.5 -40.5t-128.5 -52.5q-30 -14 -62.5 -31t-64.5 -39l-28.5 -20.5t-28.5 -24.5q-12 -11 -22.5 -24t-13.5 -25q-5 -23 14 -36q11 -10 28.5 -16.5t34.5 -11.5q22 -5 45.5 -7.5t48.5 -2.5q17 0 35 1.5t37 3.5h-1q42 5 84 18.5
t83 35.5v-1q38 21 71 51.5t54 71.5z" />
    <glyph glyph-name="T" unicode="T" horiz-adv-x="1663" 
d="M1982 1040q4 -19 -21 -37.5t-67 -23.5q-10 -1 -17.5 -1h-21.5h-19q-11 -1 -26.5 -1h-32.5h-35q-48 0 -124 3t-188 12.5t-264.5 29t-354.5 54.5q-8 1 -13.5 2.5t-10 2t-9.5 1.5t-14 3l-23 -147.5l-32 -197.5l-26.5 -150.5t-34.5 -172.5t-47 -197l-16 -52.5t-18 -53.5v1
q-9 -29 -23 -56l-17 -28.5t-23 -27.5q-9 -8 -22 -12t-24 -2q-10 2 -18 7l-16 10q-12 9 -21.5 19t-17.5 21l-1 1q-1 0 -1 1q-16 20 -29.5 41.5t-26.5 44.5l-45 81.5t-39 76.5l-48.5 99.5l-42.5 88.5l-16 35l-16 34v-1l-90.5 189l-72.5 145l-67 125.5l-74 129.5v-1l-41.5 53.5
t-46.5 64t-37.5 61t-14 45.5t24.5 17t78 -25q17 -8 41 -12t45 -9l24.5 -6l25.5 -6l170 -39.5l142 -32l121 -26l106 -21.5l63 -12.5l57 -10.5l56 -10l61 -11q13 117 18.5 173.5t7.5 71.5q5 39 21.5 64.5t36.5 23.5t30 -31t5 -68l-9 -63l-10.5 -68.5l-16.5 -111.5
q0 -2 -0.5 -2.5t-0.5 -2.5q8 -2 16 -2.5t16 -2.5t17 -2.5t17 -2.5h-1q162 -26 287 -41t221 -22.5t166 -10t120 -2.5h29q38 1 65 2t48 3h-1q6 1 12 1.5t13 0.5q11 1 21 1.5t21 2.5l21.5 2t22.5 3q38 5 66 -3.5t32 -28.5zM681 1073q0 6 0.5 8.5t0.5 5v5t1 7.5l-179 30l-197 34
l-147.5 27.5l-156.5 31.5q-17 3 -33 6.5l-33 7.5l-48.5 10l-50.5 10h2l-5 1l6 -9l-1 1l22.5 -33.5t21.5 -34.5q2 -4 4.5 -8.5t4.5 -7.5l-1 1l40.5 -73.5t33.5 -65.5q25 -50 46 -96.5l42 -92.5q3 -8 9 -20.5l10 -20.5l58 -131l76 -168q2 -6 5.5 -13l6.5 -13l44 -92.5
l52 -104.5l35 -64.5t39 -68.5q11 -18 23 -35.5t25 -31.5q8 -10 16.5 -19.5t9.5 -8.5q7 5 12 13.5l10 16.5q6 11 10 20.5t7 18.5l15 44t13 41q12 43 21.5 83.5t17.5 81.5q17 80 29.5 151.5l23.5 137.5q17 109 30 204l23 169v-1q2 12 3 24.5t3 23.5v-2z" />
    <glyph glyph-name="U" unicode="U" 
d="M861 1385q16 10 32 14.5t29.5 4.5t23.5 -4.5t14 -13.5v1q9 -17 -6 -39.5t-44 -41.5q-2 -2 -5.5 -4t-7 -3.5t-5.5 -2.5t-1 -1q-2 -2 -4.5 -3t-4.5 -2l1 1q-10 -5 -27.5 -16t-52.5 -36l-83 -66t-117 -109l-71 -77t-79 -96q-40 -53 -84 -117.5t-83 -143.5
q-21 -42 -38.5 -89.5t-28.5 -101.5q-5 -22 -7.5 -44t-2.5 -44q0 -32 6 -64t22 -61q26 -50 74 -83v1q51 -32 116 -49q63 -15 139 -18q18 -2 36 -2h38q35 1 75 6h-1q48 8 88 21t72 27q29 14 57.5 29.5t54.5 32.5q49 32 88.5 64.5t77.5 69.5q40 39 85 92t96 125q14 19 27 40
l27 44l13.5 24t14.5 25q9 14 14 25q1 1 5 12l6 11l10 18v-3q22 -7 35 -11.5t18 -9.5l6 3q-11 -70 -18.5 -147t-6.5 -159q1 -41 4.5 -81t11.5 -78q7 -35 18.5 -68.5t28.5 -58.5q34 -50 85 -55q27 -4 53 1.5t49 15.5q51 20 93 47t79 55l63.5 52t57.5 52l77 74l55 56l14 14
l42 45.5t24 25.5h-1q23 26 49.5 35.5t41.5 -4.5t9 -41.5t-31 -53.5v1q-5 -6 -20.5 -21l-29.5 -29q-4 -3 -8 -7l-8 -8q-31 -31 -103 -97l-51.5 -46l-63.5 -54q-35 -28 -79 -60t-102 -65q-30 -16 -62.5 -30t-70.5 -22q-19 -4 -41 -5.5t-44 1.5q-46 4 -87 36q-37 30 -58.5 75
t-32.5 94v-1q-12 48 -16.5 99t-5.5 105q0 50 2.5 94.5t6.5 85.5q-25 -42 -48.5 -76.5l-46.5 -66.5q-63 -88 -116 -146.5t-104 -103.5t-102 -81t-120 -68q-34 -15 -76.5 -28.5t-88.5 -21.5q-45 -8 -106 -6q-29 0 -59 2t-61 6q-88 12 -157.5 41t-115.5 77q-24 24 -39.5 50
t-25.5 52q-9 26 -13 51.5t-5 50.5q-2 48 5 91t20 85v-1q24 84 66 169q35 71 72.5 129.5l72.5 108.5q35 48 68 88l63 75q63 70 106.5 113.5l74.5 72.5l56.5 48l40.5 33l34 25.5t33 22.5zM894 1296q-1 -1 -3 -1q1 0 3 1z" />
    <glyph glyph-name="V" unicode="V" horiz-adv-x="1671" 
d="M1840 1539q9 4 18.5 5t17.5 1q19 0 32.5 -8t17.5 -22l-1 1q5 -18 -10.5 -37t-43.5 -28h1q-4 -2 -10 -3.5t-11 -3.5q-8 -2 -11 -2.5t-8 -2.5v-1q-18 -6 -52 -20t-88 -45q-60 -34 -153 -101t-214 -175q-125 -113 -284 -282.5t-349 -410.5l-92.5 -120l-86.5 -116l1 1
q-3 -5 -6.5 -9t-6.5 -9l-72.5 -104.5t-62.5 -99.5l-3 -6q-2 -2 -2 -5q1 -1 2 -2.5t-1.5 -1.5t-8.5 1.5t-19 6.5q-4 -3 -10.5 -1.5t-14.5 12.5q-1 1 -1 0.5t-1 0.5l-1 -2q0 2 1 2l-7 3.5l-7 3.5v-1q-5 15 -9.5 30t-9.5 30q-17 61 -29 117q-11 54 -20 110l-17 104
q-26 185 -37 332t-18 261q-1 11 -1.5 23t-1.5 22q-5 98 -8 171t-5.5 125.5t-3.5 86t-1 51.5q0 8 -0.5 13t-0.5 8q1 31 14.5 52t32.5 21q20 0 33.5 -21.5t13.5 -51.5v-10.5t-1 -12.5v1q-1 -11 -2 -27.5t-1.5 -44.5t-1 -69.5t-0.5 -102.5v-64q1 -103 6.5 -253.5t25.5 -364.5
q5 -52 12 -110.5t17 -118.5q10 -61 23 -126.5t34 -134.5l5.5 9l5.5 9q20 32 44 66.5l47 67.5l100 137.5l110 142.5q177 224 327 387.5t265 275.5q117 113 203.5 183t146.5 113q55 38 92 60.5l63 37.5h-1q2 2 4 2.5t4 2.5l45 23t42 18z" />
    <glyph glyph-name="W" unicode="W" horiz-adv-x="2185" 
d="M2425 540q7 -7 6.5 -20.5t-8 -31.5t-21 -38t-32.5 -40l-28.5 -28l-32.5 -31q-2 -2 -5 -4.5t-6 -5.5l-43 -41l-72 -68v1l-6.5 -6.5t-6.5 -5.5l1 1l-58.5 -51t-74.5 -60l-50.5 -36t-59.5 -39q-32 -18 -70 -36t-85 -26h1q-15 -3 -35 -3q-17 0 -36.5 4.5t-36.5 12.5
q-26 14 -45.5 37t-32.5 50q-23 52 -29.5 109t-6.5 118q0 18 0.5 36.5t1.5 36.5l-21 -48l-23 -48q-29 -54 -62.5 -107.5t-83.5 -102.5q-25 -25 -54.5 -46t-65.5 -35q-39 -13 -79 -14q-19 0 -37 1t-36 4q-38 7 -75.5 24t-68.5 46v-1q-30 29 -49.5 65t-30.5 75q-14 49 -17 93
t-2 86q2 43 5.5 80t8.5 70q1 5 1.5 9t0.5 6q0 1 0.5 1t0.5 1q0 -1 -1 -1q2 10 0.5 5.5t-3.5 -11.5l-54.5 -98l-60.5 -104q-41 -66 -83.5 -126t-92.5 -112q-25 -26 -53.5 -48.5t-63.5 -39.5h1q-18 -8 -38.5 -13t-41.5 -4q-37 0 -70 10l1 -1q-36 8 -68 29.5t-53 52.5
q-21 30 -32 61.5t-16 60.5q-3 20 -4 40.5t-1 40.5q0 40 4 76.5t10 70.5q19 103 48 190.5t59 164.5q30 76 60.5 140.5l58.5 121.5q58 111 106 187.5t84 127.5q38 52 60.5 79t31.5 37q17 18 36 32t36 23q22 10 39.5 9t24.5 -12q8 -12 2.5 -26t-18.5 -31q-9 -11 -22 -25.5
l-28 -31.5q-3 -4 -6.5 -8t-8.5 -9h1l-20 -21.5t-29 -33.5l1 1q-24 -30 -62.5 -82.5t-92.5 -141.5q-26 -42 -57 -99t-65 -127l-68 -154t-66 -184q-15 -50 -28 -105t-19 -116q-3 -30 -3 -60q0 -14 1 -29.5t3 -31.5q5 -30 14.5 -59t30.5 -52q20 -22 49.5 -34.5t64.5 -14.5
q32 -5 63 9t59 37v-1q29 25 56.5 55t53.5 63q28 35 52.5 70.5t47.5 73.5q72 115 129.5 227l104.5 211q26 86 54.5 164t63.5 162h-1l40.5 95l47.5 105l-1 -1q2 4 3 7t3 7l2.5 5l2.5 5t4.5 9.5t4.5 9.5l6.5 16t5.5 13l43 -62l6 -13l-16 -41l-27.5 -68.5l-30.5 -72.5
l-49.5 -116.5l-56.5 -128.5l1 2l-28 -92.5t-24 -91.5q-13 -50 -24 -104t-19 -117q-5 -31 -7.5 -62.5t-2.5 -64.5q-1 -34 2 -70t11 -70q9 -33 27 -67.5t50 -57.5q26 -20 61.5 -30.5t75.5 -10.5q6 0 14.5 0.5t16.5 1.5q30 5 56.5 19t49.5 33q22 19 43 43t38 46
q33 47 60.5 95.5t47.5 92.5q38 84 65.5 162.5t49.5 149.5l-1 -3q6 35 13.5 67.5l15.5 69.5l5 20q9 39 20.5 84l22.5 87l6 22l2 10q0 5 1 14t1 10q12 -2 21 -2.5t16 -1.5q-2 -1 1.5 -3t19.5 -6v-24q-2 -11 -4.5 -22.5t-4.5 -23.5l-10 -46.5l-10 -46.5q-13 -58 -28.5 -119.5
t-33.5 -123.5l1 2q-16 -86 -25.5 -163t-11.5 -147q0 -11 -0.5 -21.5t-0.5 -20.5q0 -36 3 -71.5t10 -68.5q8 -38 24 -70t40 -46q11 -6 22 -8t23 -2q17 0 33 3.5t30 8.5h-1q27 11 52.5 23.5t46.5 26.5q44 29 79 57l61 50q45 40 76 70l54 54l21 21h-1l29 30l31 33l54 57
q18 19 36.5 34t35.5 24t30 11.5t21 -4.5zM865 533v-1q-5 -16 -5 -14t2 9z" />
    <glyph glyph-name="X" unicode="X" horiz-adv-x="1826" 
d="M2058 531q6 -7 6 -19.5t-6.5 -28t-19 -33t-29.5 -33.5l-16.5 -14.5t-21.5 -17.5q-3 -2 -6 -4.5l-8 -6.5l-37.5 -32l-58.5 -49q-24 -20 -56.5 -43.5l-71.5 -51.5h1l-92.5 -61.5t-116.5 -64.5q-33 -16 -70 -30.5t-82 -26.5h1q-41 -12 -91.5 -19t-100.5 -5q-51 2 -107.5 17
t-108.5 43q-53 29 -104 69.5t-96 88.5q-63 68 -122.5 148.5t-119.5 171.5l-150 -140l-127 -117l-117.5 -105.5l-87.5 -78.5l-61.5 -54l-37.5 -33l-8 -6.5t-5 -4.5q-36 -30 -70.5 -41t-46.5 3q-6 7 -4.5 19t9 27t21 31.5t31.5 31.5q5 5 11.5 10l14.5 11l27.5 22.5l42 34
l61 50.5l84.5 72l157 137l216 195l-10.5 16l-10.5 16l-78 123l-104.5 162.5t-114.5 163.5q-63 82 -136.5 161.5t-166.5 143.5l1 -1l-15 9q-4 2 -8.5 5.5t-8.5 5.5q-1 1 -3 2t-3 2l-22 11l27 48.5t11 19.5t3.5 5.5t5.5 8.5l17.5 -10t15.5 -8q14 -8 28 -14l28 -12
q64 -26 109 -39q50 -15 96.5 -22.5t89.5 -11.5q26 -2 51.5 -3t48.5 -1q52 0 104.5 5.5t106.5 13.5q79 13 174.5 40.5t219.5 77.5l65.5 26.5l70.5 29.5l33 15l61 27t67 26q12 4 24.5 7.5t29.5 5.5h6q8 0 16 -0.5t18 -4.5h-1q15 -5 25 -19.5t11 -27.5q2 -17 -1.5 -32t-7.5 -27
v-2q-8 -25 -18 -47l-1.5 -3l-1.5 -3q-24 -55 -55.5 -106t-68.5 -102q-78 -106 -153.5 -193l-146.5 -163l-139 -144.5l-129 -127.5l-38 -36.5l-37 -36.5l47 -73.5t48 -70.5l74.5 -97.5t84.5 -96.5q38 -38 78 -69.5t83 -54.5q41 -23 82.5 -35.5t80.5 -17.5q14 -2 28.5 -2.5
t26.5 -0.5q62 0 118.5 15t102.5 33q57 23 104 50t82 50l64.5 45t55.5 43l77.5 66l54.5 49v-1l16 15.5l16 14.5h-1l25.5 24l26.5 26q35 32 67.5 46t46.5 0zM377 888l40.5 -67.5l37.5 -62.5l38.5 -63.5l35.5 -59.5l130.5 123.5l145.5 144.5l175 185t184 222q39 54 73.5 110.5
t57.5 112.5v-1q5 14 9 27t5 24q2 5 0 7q-1 1 -5 1h-7q-23 -4 -47.5 -12.5t-44.5 -16.5q-2 -2 -5 -2l-42.5 -18l-40.5 -18l-133.5 -58.5t-119.5 -47.5q-141 -52 -258 -78.5t-211 -34.5q-24 -2 -50 -3.5t-50 -1.5q-22 0 -44.5 1t-44.5 3q-38 3 -77 8.5t-81 16.5l46 -47.5
t46 -52.5q75 -90 127 -169l96 -148q4 -6 7 -11.5t7 -11.5v-1z" />
    <glyph glyph-name="Y" unicode="Y" horiz-adv-x="1253" 
d="M1509 536q11 -17 -7 -44.5t-54 -50.5q-10 -5 -17 -9t-23 -12l-38 -19.5l-68 -35.5l-120.5 -60l-185.5 -87l-122 -53.5l-144 -60.5q-17 -8 -38 -17l-39 -17v1l-133.5 -57.5t-146.5 -68.5l-79 -42t-75 -46q-2 -2 -3.5 -4t-2.5 -4l-10.5 -19t-11.5 -19v1l-50.5 -86.5
l-48.5 -78.5l-45.5 -70t-52.5 -67l-11 -11l-7 -12t-5 -9l-41 39v18q0 9 0.5 16.5t1.5 15.5q2 18 6.5 35.5t9.5 34.5q11 32 27 59.5t34 52.5q29 38 61.5 67t66.5 55l56 103l57 107v-1l105.5 196.5l80.5 149l67 123.5l65 119q2 2 4.5 6t4.5 8l-1 -1l70 132.5l89 171.5
q5 11 11 21.5l12 21.5l-31.5 -32.5l-32.5 -33.5q-76 -78 -150 -146.5t-146 -122.5q-18 -14 -38 -27l-39 -25q-20 -11 -42 -20.5t-48 -13.5h-1q-14 -2 -31 0.5t-33 12.5q-15 10 -24 23t-14 27q-8 23 -10 44.5t-3 41.5q0 42 3.5 77t8.5 68q5 32 11 63l12 60q12 57 25 107
l24 93l37 130.5l28.5 97l21 67t13.5 40.5q2 5 2.5 8t1.5 5q7 20 16.5 36.5t20 27.5t21 15.5t19.5 1.5h-2q13 -4 19 -16.5t6 -29.5q0 -13 -3 -29.5t-9 -33.5q-2 -6 -4.5 -12.5t-5.5 -15.5q-4 -12 -10.5 -28.5t-15.5 -43l-21.5 -64l-29.5 -89.5l1 2q-1 -4 -1.5 -5.5t-1.5 -5.5
l-24 -77.5l-27 -91.5q-14 -51 -28.5 -114.5t-27.5 -140.5q-3 -19 -5 -38t-3 -39q-1 -8 -1 -14.5v-13.5q0 -14 1 -26t3 -23q2 -8 4.5 -14.5t7.5 -10.5q4 -6 19 -4q19 2 40 11.5t41 20.5v-1q42 26 84 58.5t86 70.5q45 38 88.5 80l90.5 89l82 83.5l74 79.5v-1q5 6 11 12.5
l12 12.5l24 27l-2 -2l2 4t2 5l1 1q0 1 2 3l-1 -1l10 20l18 17q11 -5 17.5 -10t-6.5 -6q5 -2 13 -9.5t14 -28.5l-7 -7q-3 -3 -3 -4q-3 -4 -6 -7.5t-9 -9.5q-3 -5 -7 -14t-6 -13l-37 -73l-37.5 -74.5l-35.5 -70l-30 -60.5l-79.5 -159.5l-64.5 -131.5l-37 -74q-8 -15 -14.5 -30
t-14.5 -29l-54.5 -110.5l-60.5 -117.5l-31 -58.5l-29.5 -55.5l-35.5 -65l-48 -87l86 46q71 35 135 63l122 54q13 5 27 12t26 12q8 3 14.5 6.5t13.5 6.5l109 48.5l95 43.5q100 46 167 80.5l115 60.5l53.5 31l42.5 25t33.5 20.5t28.5 17.5t26.5 16.5t28.5 17.5h-1q18 11 35 18
t32 9t26.5 -1t16.5 -11z" />
    <glyph glyph-name="Z" unicode="Z" horiz-adv-x="1464" 
d="M1700 533q7 -6 8.5 -17t-2.5 -25.5t-13.5 -30.5t-23.5 -31q-6 -6 -11 -11.5t-12 -10.5q-2 -2 -4 -3.5t-4 -3.5q-3 -2 -12 -11l-30.5 -29.5l-39 -36l-40.5 -37t-36 -31.5q-17 -16 -43.5 -36l-59.5 -44l-76.5 -50.5t-92.5 -52.5q-50 -25 -119 -51.5t-145 -46.5
q-63 -17 -137.5 -26.5t-156.5 -9.5q-42 0 -84 3q-106 6 -231 29t-256 61l-14.5 -10l-15.5 -10h1q-14 -10 -29.5 -19t-32.5 -17q-18 -8 -38.5 -13.5t-45.5 -4.5q-37 2 -64 24l1 -1q-26 20 -38 46q-5 11 -9.5 22t-9.5 29v-2q-5 14 -6.5 28.5t4.5 30.5q6 14 16 21t20 9
q8 2 13.5 2h10.5h5q11 -1 22 -3.5t22 -4.5l28.5 -7.5t27.5 -8.5q4 -1 11.5 -3.5l10.5 -3.5l30.5 -11t29.5 -10l17 -5l8.5 7l8.5 7l-1 -1q6 5 12 11t13 11q46 43 81.5 80l63.5 68l55 63.5l48 57.5l84.5 101.5l79.5 100.5l57 75l65.5 88.5l77.5 108l92.5 133.5l111.5 164.5
l135 201.5q-26 -10 -51.5 -18.5l-49.5 -16.5q-82 -26 -157.5 -45l-144.5 -35q-136 -31 -243 -51.5l-190 -35.5q-74 -14 -130 -23.5l-96 -16l-65.5 -10.5l-38.5 -6q-4 -2 -10 -2q-19 -3 -37 -1.5t-32 6t-23 11.5t-10 17q-2 20 23.5 37t65.5 23q6 1 13 1.5t17 1.5q12 1 29 3
t43 5.5l62.5 8.5l87.5 12l176 27.5t245 42.5l154 31t176 43q45 12 93 27t102 36l-1 -1l23 10t27 13q1 1 4.5 2.5t5.5 2.5q2 3 7 8q2 4 6.5 11.5t5.5 9.5l29 -12l7 -7t6 -10q9 -6 9.5 -13t-4 -13t-12.5 -8.5t-17 0.5l13 -5q-1 0 -1.5 -1t-1.5 -1l9 2q-2 -1 -2.5 -1.5
t-2.5 -1.5q-1 -1 -1.5 -1t-1.5 -1q-5 -3 -7 -4q-3 -5 -7 -10t-7 -10v1l-42 -60h1l-157.5 -231l-129 -189l-106.5 -153l-87.5 -124.5l-73.5 -103.5l-64 -88l-90 -119t-101 -122l-62 -67t-75 -73q-6 -6 -10 -9q14 -5 28 -8.5t28 -7.5q46 -13 95 -24t96 -19t98 -14t105 -8
q11 0 21 -0.5t21 -0.5q75 0 142.5 8.5t127.5 22.5l-1 -1q66 16 121 36t102 42h-1q90 44 148.5 85t97.5 73v-1q38 32 62 55l41 40h-1q8 9 27.5 28l40.5 40l39.5 39.5t27.5 28.5v-1q27 29 55.5 41.5t42.5 -0.5zM-51 45q8 3 16 7t16 9q-22 7 -45 13.5l-46 12.5q-8 2 -16.5 3.5
t-17.5 3.5h-1q3 -9 8 -20q7 -14 14.5 -24t17.5 -13q11 -5 25.5 -2t28.5 10z" />
    <glyph glyph-name="exclam" unicode="!" horiz-adv-x="505" 
d="M221 317q-19 -117 -34.5 -102.5t-15.5 158.5q0 39 3 95q5 94 25.5 224.5t54.5 273.5v-1q21 94 47 187t53 179t53.5 161.5t49 133.5t40 95t26.5 47q28 23 45 12.5t17 -44.5t-18.5 -86t-60.5 -112q-14 -20 -31.5 -58t-37 -89t-39.5 -112.5t-39.5 -129t-38 -138.5
t-33.5 -140q-11 -52 -20 -104.5l-17 -102.5t-13.5 -95t-8.5 -81q-4 -38 -5 -69t-2 -53q-1 -26 0 -45v-4zM133 -167q-11 10 -15 24t-4.5 27t1.5 23t5 13v-1q3 3 14 5.5t25 3t28.5 -3t24.5 -13.5t13 -24t2 -27.5t-4 -24.5t-6 -14t-13 -5t-23 -1.5t-26 4.5t-22 14z" />
    <glyph glyph-name="bracketleft" unicode="[" horiz-adv-x="772" 
d="M682 -124q147 -8 190.5 -16t-0.5 -16t-167 -15.5t-309 -14.5q-11 0 -21 -0.5t-21 -0.5q-36 -2 -77.5 -3t-82.5 -3q-28 -1 -57.5 -1.5t-58.5 -1.5q-15 0 -30 -0.5t-30 -1.5l-18 1l12 23q-8 -4 -17 -3q-1 -3 -2 -5.5t-2 -5.5q0 1 -0.5 4t0.5 8q-8 2 -17.5 9t-20.5 23l4 22
q2 4 3 8.5t3 8.5l6 15l88.5 246.5l93.5 260.5l65 179l66 179l31 84.5l31 84.5l27 71.5l26 70.5q11 27 20.5 54l19.5 53q5 11 8.5 22.5t8.5 22.5l27 72l20 56q1 2 2 5q1 2 2 4.5t2 4.5q2 4 6 14l-1 -6q0 2 1 3t1 3l2 3l31 -17l33 22l-13 35h14q25 0 53.5 0.5t56.5 0.5h54.5
h47.5q73 0 133.5 -0.5t106.5 -2t76 -3.5t42 -5q46 -13 46 -36q0 -10 -16.5 -19t-46 -15.5t-71 -10.5t-91.5 -4q-54 0 -114 3.5t-123 11.5q-15 2 -33 3.5t-39 3.5q-5 1 -11 1t-11 1h2q-14 1 -29 1.5t-31 1.5h-7l-1 -2q-2 -5 -4 -9t-4 -9q-3 -6 -4 -8.5t-2 -4.5l-59 -144
l-65 -167l-71 -184l-73 -195.5l-74.5 -202l-74.5 -203.5l-34.5 -94l-35.5 -98.5l-35 -98.5l-33 -94h14q5 1 13 1h12q11 1 24.5 1h23.5l90 3q17 1 38.5 1t38.5 1q45 1 87 3q76 2 137 4t105 4q51 2 91 3h2z" />
    <glyph glyph-name="bracketright" unicode="]" horiz-adv-x="589" 
d="M-146 1342q-147 8 -190.5 16t0 16t166.5 15.5t309 14.5q11 0 21.5 0.5t21.5 0.5q36 2 77.5 3t82.5 3q28 1 57 1.5t58 1.5q15 0 30 0.5t30 1.5l19 -1l-13 -23q8 4 18 3q1 3 2 5.5t2 5.5q0 -1 0.5 -4t-0.5 -8q8 -2 17.5 -9t20.5 -23l-2 -11l-2 -12l-7 -17l-6 -15
l-88 -246.5l-93 -259.5l-65 -179l-66 -179l-31.5 -84.5t-30.5 -84.5l-27 -71.5l-26 -70.5q-11 -27 -20.5 -54l-19.5 -53q-5 -11 -8.5 -22.5t-8.5 -22.5l-27 -72l-21 -57q-2 -3 -3.5 -6.5l-3.5 -8.5l1 1l-6 -15l1 7q0 -1 -0.5 -2t-0.5 -3l-2 -3l-31 17l-33 -22l13 -35h-14
q-25 0 -53.5 -0.5t-56.5 -0.5h-54.5h-47.5q-73 0 -133.5 0.5t-106.5 2t-76 3.5t-42 5q-46 13 -46 36q0 10 16.5 19t46 15.5t71 10.5t91.5 4q54 0 114 -3.5t123 -11.5q15 -2 33 -3.5t39 -3.5q5 -1 11 -1t11 -1h-2q14 -1 29 -1.5t30 -1.5h8l1 2q2 5 4 9t4 9q1 2 5 12
l59.5 144.5l65.5 167.5l70.5 184l73.5 195.5l74.5 202l74.5 203.5l33.5 94l35.5 98.5l35 98.5l33 94h-13q-5 -1 -13 -1h-12q-11 -1 -24 -1h-23q-23 -1 -45.5 -1.5t-45.5 -1.5q-17 -1 -38.5 -1t-38.5 -1q-45 -2 -87 -3q-76 -2 -137 -4t-105 -4q-51 -2 -91 -3h-2zM567 1308
q0 -1 -1 -1z" />
    <glyph glyph-name="asciitilde" unicode="~" horiz-adv-x="833" 
d="M787 379q34 8 49.5 5t9.5 -15t-35 -32t-84 -45l-58 -23.5t-71 -23.5q-32 -9 -67 -14.5t-73 -5.5h-17.5t-16.5 1q-24 2 -48.5 8.5t-49.5 17.5q-13 6 -25.5 14.5t-23.5 17.5q-2 1 -8 7l-10 10q-2 2 -1 1t-1 1q-2 1 -8 7l1 -2q-26 20 -53 20q-8 0 -16.5 -2t-18.5 -5l1 1
q-24 -11 -44.5 -26t-35.5 -28q-17 -15 -29.5 -25t-21.5 -12q-35 -8 -47.5 10.5t1.5 53.5q4 11 13.5 23t23 23t30.5 20t38 13q11 2 15 2.5t7 1.5q6 1 16 3t19 3.5t13.5 3t-1.5 1.5h-2q23 5 49.5 1t52.5 -19q25 -17 46 -37q10 -9 24 -19.5t25 -16.5h-1q29 -13 60.5 -17.5
t63.5 -2.5q64 5 119.5 22t96.5 34q20 8 36 16t27 14l24 13z" />
    <glyph glyph-name="tilde" unicode="&#x2dc;" horiz-adv-x="833" 
d="M800 1214q34 8 49.5 5t9.5 -15t-35 -32t-84 -45l-58 -23.5t-71 -23.5q-32 -9 -67 -14.5t-73 -5.5h-17.5t-16.5 1q-24 2 -48.5 8.5t-49.5 17.5q-13 6 -25.5 14.5t-23.5 17.5q-2 1 -8 7l-10 10q-2 2 -1 1t-1 1q-2 1 -8 7l1 -2q-26 20 -53 20q-8 0 -16.5 -2t-18.5 -5l1 1
q-24 -11 -44.5 -26t-35.5 -28q-17 -15 -29.5 -25t-21.5 -12q-35 -8 -47.5 10.5t1.5 53.5q4 11 13.5 23t23 23t30.5 20t38 13q11 2 15 2.5t7 1.5q6 1 16 3t19 3.5t13.5 3t-1.5 1.5h-2q23 5 49.5 1t52.5 -19q25 -17 46 -37q10 -9 24 -19.5t25 -16.5h-1q29 -13 60.5 -17.5
t63.5 -2.5q64 5 119.5 22t96.5 34q20 8 36 16t27 14l24 13z" />
    <glyph glyph-name="at" unicode="@" horiz-adv-x="1489" 
d="M855 -87l13 11.5t9 8.5l31.5 31t18 12t3 -14t-12.5 -45q-2 -5 -14 -21t-37 -38h1q-22 -20 -56.5 -43t-83.5 -45q-48 -21 -108.5 -35.5t-129.5 -18.5q-12 -1 -27.5 -1.5t-28.5 -0.5q-44 0 -92 6q-39 6 -80.5 18t-81.5 37q-39 24 -71 65.5t-46 92.5q-6 22 -8 42.5t-2 40.5
q0 57 15 116q26 95 75.5 181.5t115.5 165.5q67 78 147 146t174 119q68 36 145 59.5t160 23.5q62 0 128 -18q29 -9 57 -24t51 -36q23 -22 41 -50t29 -55q11 -31 16.5 -65t5.5 -65q0 -48 -8 -94q-9 -54 -26 -103.5t-40 -96.5q-12 -23 -25.5 -44.5t-29.5 -43.5q-16 -21 -34 -41
t-41 -38q-11 -8 -25 -16t-31 -13q-18 -6 -37 -6h-15t-13 1q-28 4 -56.5 13.5t-52.5 27.5q-25 19 -41 43t-25 50q-1 2 -2 5l-2 6q-29 -21 -63 -42q-35 -22 -71.5 -38.5t-77.5 -24.5q-8 -2 -18.5 -3t-21.5 -1q-13 0 -27 2t-25 7q-24 10 -42 29.5t-27 38.5t-12.5 41t-0.5 42
q2 20 11 37.5t20 31.5q21 26 44 42t44 28q24 12 42.5 20l33.5 14q34 12 56.5 17t33.5 7q33 3 52 0t25.5 -10t1 -17t-20.5 -22q-8 -7 -26 -15.5l-44 -20.5q-8 -4 -17 -7.5t-19 -8.5q-18 -8 -39.5 -19t-41.5 -24q-19 -12 -36.5 -28t-23.5 -33v1q-5 -16 1 -32q6 -20 22 -28
q6 -4 18 -4t26 2q30 4 65 17q24 8 53.5 23t61.5 36q7 5 15 10t17 12q0 10 -0.5 21t0.5 23q10 -5 18 -10t14 -11q8 7 17 13.5t19 14.5l-1 -44v-18q0 -5 0.5 -10.5t1.5 -11.5q1 -1 1.5 -1t1.5 -1l-3 -1q2 -12 4 -22.5t7 -19.5q8 -22 24.5 -40.5t39.5 -29.5q11 -6 24.5 -9.5
t27.5 -5.5q6 -1 13.5 -1.5t14.5 0.5q6 1 12.5 2.5t12.5 4.5q28 14 49.5 35.5t40.5 45.5q20 26 36 55t30 58q12 29 23 62.5t19 68.5q5 26 8.5 52.5t3.5 52.5q0 10 -0.5 19t-1.5 20q-4 35 -16.5 70.5t-37.5 64.5t-59.5 47.5t-69.5 26.5v-1q-45 9 -86 9q-57 0 -111.5 -12
t-105.5 -34q-70 -29 -137 -74.5t-124 -95.5q-57 -51 -106 -110t-90 -122v1q-39 -63 -67.5 -129.5t-36.5 -138.5q-3 -23 -3 -42q0 -49 16 -91q12 -32 32 -57t45 -42q26 -17 53.5 -28t56.5 -18q27 -6 55 -9t57 -4q54 -2 103 3.5t91 15.5t76.5 23.5t61.5 28.5q47 26 71 46
t30 26zM771 211l25 25q46 -29 56 -41t-0.5 -12.5t-34.5 7.5t-48 19z" />
    <glyph glyph-name="bar" unicode="|" horiz-adv-x="528" 
d="M362 1066q-18 -118 -40.5 -251l-46 -267l-47.5 -261l-45 -233t-38.5 -184t-28.5 -113q0 1 6.5 40l17.5 106.5l26 158l33.5 193l38.5 212.5l41 216.5l42 205t41 177.5zM416 1245q-12 -29 -25.5 -75t-28.5 -104l27 183.5t18.5 145t7 93t-6.5 28.5q31 43 49.5 28.5
t18.5 -69.5q0 -18 -4 -44t-11.5 -56.5t-19 -63.5t-25.5 -66zM115 -247q0 3 1 4v-1z" />
    <glyph glyph-name="question" unicode="?" horiz-adv-x="1180" 
d="M245 400q-29 -15 -37 -15q-23 0 -25.5 7.5t11 22t42.5 36l70 49.5l84 57l103 71l191 135.5t217 165.5l113 92.5t113 100.5q62 56 109 109q26 29 49.5 59t41.5 61q12 20 19.5 41.5t7.5 40.5q0 11 -5 21q-10 20 -38.5 32.5t-61.5 18.5q-38 8 -76 10.5t-76 2.5
q-38 1 -77.5 -0.5t-77.5 -4.5q-72 -6 -149.5 -19.5t-141.5 -31.5q-66 -21 -131 -48.5t-117 -57.5q-54 -32 -100 -68t-85 -73t-70.5 -73.5t-54.5 -69.5q-32 -46 -53.5 -82.5t-34.5 -60.5l-18 -33q-29 -43 -45 -46.5t-24 32.5q-2 13 2.5 40.5t18.5 64.5q14 35 38 78.5t57 87.5
q33 42 81 87t97 79l92 59.5t134 70.5q77 35 171 64t203 44q54 8 111 12t117 5q58 0 119.5 -3.5t121.5 -17.5q30 -8 60 -22t47 -36q11 -13 15.5 -29t4.5 -33q0 -28 -11 -58q-11 -29 -27.5 -55.5t-35.5 -52.5q-18 -25 -38.5 -48.5l-42.5 -46.5h1q-85 -89 -177 -167l-183 -149
l-172 -128.5l-155 -110.5l-187 -127.5l-112 -73.5q-5 -3 -8.5 -5.5t-5.5 -4.5q-3 -2 -5 -3zM68 -179q-3 -3 -16 -9t-29.5 -10.5t-33 -4t-26.5 10.5q-11 10 -12 28t2.5 35.5t8.5 31.5t8 17v-1q3 3 18.5 10t35.5 12.5t39.5 6t29.5 -9.5t8.5 -27.5t-8 -36t-14.5 -34t-11 -19.5z
" />
    <glyph glyph-name="underscore" unicode="_" horiz-adv-x="1095" 
d="M956 -52q77 -13 54 -31t-137 -31q-54 -6 -128.5 -10t-156.5 -5h-39q-79 0 -155.5 3t-138.5 8t-103.5 12.5t-49.5 16.5q-14 15 -16.5 28.5t5.5 24t24.5 17t39.5 6.5q20 0 43 -6t46 -19q18 -10 52 -17.5t79 -12t97.5 -6.5t107.5 -2q14 0 28 0.5t28 0.5q63 2 118.5 4.5
t100.5 7.5l39 3.5t30 3.5q14 2 26 4h6z" />
    <glyph glyph-name="braceleft" unicode="{" horiz-adv-x="969" 
d="M593 -51q72 -8 104 -15.5t27.5 -14t-42.5 -11.5t-105 -8q-15 -1 -39 -0.5t-49 2.5q-26 2 -60 8.5t-71 20.5q-18 6 -39 19t-38 28q-18 17 -33 40.5t-23 48.5q-7 22 -9.5 43.5t-2.5 43.5q0 31 3.5 60t8.5 57l6 31q3 17 6.5 33t5.5 33q4 23 6 45.5t-1 42.5q-3 39 -27 59
q-14 12 -33 19t-41 12q-25 5 -55.5 6.5t-63.5 1.5q0 3 3.5 15.5l8 27.5t10 29.5t10.5 21.5l-11 12h5l7 1h26q3 0 6 0.5t7 0.5q22 1 49 6q49 7 93.5 23.5t80.5 44.5q36 27 62.5 64t48.5 78q10 19 19 38l18 38v-1l23 48t25 47l-1 -1q23 43 50.5 80.5t60.5 63.5v-1
q32 28 66.5 44.5t66.5 25.5t57 12t43 4q20 0 35.5 -2.5t26.5 -4.5q32 -11 35.5 -25t-14.5 -30q-9 -8 -26.5 -13.5t-40.5 -10.5q-4 -1 -8 -1.5t-8 -1.5l-46.5 -11t-52.5 -16t-55.5 -24.5t-56.5 -35.5q-22 -17 -47.5 -49.5t-51.5 -79.5q-7 -12 -13.5 -25t-14.5 -27l1 1
l-46 -84t-61 -87q-23 -28 -55.5 -52.5t-64.5 -41.5q-35 -17 -75.5 -27.5t-80.5 -15.5q-15 -2 -32 -3.5t-34 -1.5h4q5 -1 10 -1.5t10 -0.5q5 -1 10 -1h10q42 -5 83 -19t67 -44q18 -22 25.5 -49.5t7.5 -56.5q0 -14 -1 -27t-3 -25q-3 -20 -6.5 -40.5t-7.5 -40.5
q-4 -19 -7 -36.5t-5 -35.5q-3 -20 -5 -39.5t-2 -38.5q0 -35 7 -63q8 -32 28 -57q9 -11 20.5 -20t23.5 -17q24 -14 49 -21.5t48 -12.5q24 -5 44 -7t35 -3q17 -2 29.5 -2h21.5h18h3z" />
    <glyph glyph-name="braceright" unicode="}" horiz-adv-x="969" 
d="M395 1225q-72 8 -104 15.5t-27.5 14t42 11.5t105.5 8q15 1 39 0.5t49 -2.5q26 -2 60 -8.5t71 -20.5q18 -6 39 -19t38 -28q18 -17 33 -40.5t23 -48.5q7 -23 9.5 -44.5t2.5 -42.5q0 -32 -3.5 -61t-8.5 -57l-6 -30q-3 -17 -6.5 -33t-5.5 -33q-4 -23 -6 -46t1 -43
q3 -39 27 -59q14 -11 33 -18t41 -12q25 -5 55.5 -6.5t63.5 -1.5q0 -3 -3.5 -15.5t-8.5 -28t-11 -30t-10 -21.5l12 -11h-5l-7 -1h-13q-4 0 -7 -0.5t-6 -0.5h-13q-23 -1 -49 -6q-49 -7 -93.5 -23.5t-80.5 -44.5q-36 -27 -62.5 -64t-48.5 -78q-10 -19 -19 -38l-18 -38v1
l-23 -48t-25 -47l1 1q-23 -43 -50.5 -80.5t-60.5 -63.5v1q-32 -28 -66.5 -44.5t-66.5 -25.5t-57 -12t-44 -4q-19 0 -34.5 2t-26.5 5q-32 11 -35.5 25t14.5 30q9 8 26.5 13.5t40.5 10.5q4 1 8 1.5t8 1.5l46.5 11t52.5 16t55.5 24.5t56.5 35.5q22 17 47.5 49.5t51.5 79.5
q7 12 13.5 25t14.5 27l-1 -1l46 84t61 87q23 28 55.5 52.5t64.5 41.5q35 17 75.5 27.5t80.5 15.5q15 2 32 3l34 2h-1h-12.5t-11.5 1q-6 0 -10.5 0.5t-9.5 1.5h1q-42 5 -83 19t-67 44q-18 21 -25.5 49t-7.5 57q0 14 1 26.5t3 24.5q3 20 6.5 41t7.5 41q4 19 7 36t5 35
q3 20 5 40t2 39q0 35 -7 63q-8 31 -29 56q-10 13 -21 22.5t-22 15.5q-24 14 -49 21.5t-48 12.5q-24 5 -44 7t-35 3q-17 1 -29.5 1.5t-21.5 0.5h-18h-3z" />
    <glyph glyph-name="less" unicode="&#x3c;" horiz-adv-x="784" 
d="M519 165q29 -31 35 -44.5t-8.5 -13t-47 14.5t-80.5 39q-23 12 -50.5 28l-57.5 33h-1q-6 4 -12 7.5l-13 7.5l-19 10.5t-19 11.5q-5 2 -8.5 5t-7.5 5l1 -1q-5 2 -10 5.5l-9 6.5l-15 9l1 -1q-2 1 -5 3t-5 3l-14 12v69h39q-7 -8 -22 -31l19 -2l1 -1l10 17q0 3 1.5 9t2 10.5
t-1.5 5.5t-9 -7v29l131.5 76t119.5 64.5t92.5 43.5t51.5 13q26 -7 33 -25.5t-5 -38t-42 -35.5t-77 -17q-20 -1 -59.5 -16.5t-81.5 -35.5l-48.5 -25.5l-50.5 -27.5l-13 -7.5l-13 -7.5l-13.5 -7.5t-12.5 -7.5l-15 -10l12 -6q6 -4 12 -7.5l13 -7.5l99 -59.5l85 -47.5l81 -44z
M179 384q10 48 16.5 64t10.5 12t6 -21t2 -34l-18 -10.5zM213 375l1 1v-1h-1z" />
    <glyph glyph-name="greater" unicode="&#x3e;" horiz-adv-x="784" 
d="M325 557q-29 31 -35 44.5t8.5 13t47 -14.5t80.5 -39q23 -12 50.5 -28l57.5 -33q6 -4 12.5 -7.5l13.5 -7.5l18.5 -10t18.5 -11q13 -10 15 -11q4 -2 8 -5t9 -5l18 -10l-1 1q2 -1 5 -3t5 -3l14 -12l-1 -69h-37l25 -14l-138.5 -81t-128 -70.5t-100.5 -47.5t-55 -14
q-26 7 -33 25.5t5 38t42 35t77 17.5q20 1 59.5 16.5t81.5 35.5l48.5 25.5l50.5 27.5h-1q6 4 13 7.5t14 7.5l13 7.5l13 7.5q4 2 7 5t7 5l-11 6q-6 4 -12 7.5l-13 7.5l-99.5 59l-84.5 48l-81 44zM633 380l-10 -16q0 -3 -3 -11l-6 -16t-4.5 -13.5t2 -3t13 15.5t28.5 42l-19 2
h-1zM627 350l5 -3h-3z" />
    <glyph glyph-name="plus" unicode="+" horiz-adv-x="892" 
d="M206 371q17 -14 59 -19t96 -7l-6 -27.5t-5 -27.5h-14q-43 0 -82.5 1.5t-71 4.5t-53 8.5t-28.5 13.5q-9 13 -10 26.5t5 24.5t18.5 18t30.5 7q29 0 61 -23zM675 351q39 -17 31.5 -28t-46 -17.5t-101 -10t-132.5 -4.5h-24t-25 -1q3 14 5 27.5l4 27.5h22h50q41 1 78 2t66 3
q33 2 63 3zM410 453q-5 -3 -10 -9q5 49 1 80t-18 27q13 4 25 2t21 -8.5t14 -16t5 -20.5q0 -14 -9 -27.5t-29 -27.5zM332 127q1 24 4 51q2 23 5.5 52t8.5 60h28q-6 -31 -12.5 -59.5t-13 -51.5t-13 -39.5t-11.5 -23.5zM361 345q8 32 17.5 58.5t21.5 40.5q-2 -23 -5 -48t-8 -51
h-26z" />
    <glyph glyph-name="hyphen" unicode="-" horiz-adv-x="889" 
d="M707 309q24 -8 24.5 -16.5t-17 -16t-51 -13.5t-77.5 -10.5t-96 -7t-107 -2.5q-49 0 -94.5 2t-82 5.5t-61 9.5t-30.5 15q-10 14 -10.5 28t6 24.5t19 17t30.5 6.5q14 0 30.5 -5.5t33.5 -19.5q11 -9 32.5 -14.5t50 -8.5t62 -4.5t68.5 -1.5q48 0 94.5 2t83.5 4q43 3 83 7z
" />
    <glyph glyph-name="endash" unicode="&#x2013;" horiz-adv-x="889" 
d="M707 309q24 -8 24.5 -16.5t-17 -16t-51 -13.5t-77.5 -10.5t-96 -7t-107 -2.5q-49 0 -94.5 2t-82 5.5t-61 9.5t-30.5 15q-10 14 -10.5 28t6 24.5t19 17t30.5 6.5q14 0 30.5 -5.5t33.5 -19.5q11 -9 32.5 -14.5t50 -8.5t62 -4.5t68.5 -1.5q48 0 94.5 2t83.5 4q43 3 83 7z
" />
    <glyph glyph-name="emdash" unicode="&#x2014;" horiz-adv-x="889" 
d="M707 309q24 -8 24.5 -16.5t-17 -16t-51 -13.5t-77.5 -10.5t-96 -7t-107 -2.5q-49 0 -94.5 2t-82 5.5t-61 9.5t-30.5 15q-10 14 -10.5 28t6 24.5t19 17t30.5 6.5q14 0 30.5 -5.5t33.5 -19.5q11 -9 32.5 -14.5t50 -8.5t62 -4.5t68.5 -1.5q48 0 94.5 2t83.5 4q43 3 83 7z
" />
    <glyph glyph-name="minus" unicode="&#x2212;" horiz-adv-x="889" 
d="M707 309q24 -8 24.5 -16.5t-17 -16t-51 -13.5t-77.5 -10.5t-96 -7t-107 -2.5q-49 0 -94.5 2t-82 5.5t-61 9.5t-30.5 15q-10 14 -10.5 28t6 24.5t19 17t30.5 6.5q14 0 30.5 -5.5t33.5 -19.5q11 -9 32.5 -14.5t50 -8.5t62 -4.5t68.5 -1.5q48 0 94.5 2t83.5 4q43 3 83 7z
" />
    <glyph glyph-name="macron" unicode="&#xaf;" horiz-adv-x="889" 
d="M695 1100q24 -8 24.5 -16.5t-17 -16t-51 -13.5t-77.5 -10.5t-96 -7t-107 -2.5q-49 0 -94.5 2t-82 5.5t-61 9.5t-30.5 15q-10 14 -10.5 28t6 24.5t19 17t30.5 6.5q14 0 30.5 -5.5t33.5 -19.5q11 -9 32.5 -14.5t50 -8.5t62 -4.5t68.5 -1.5q48 0 94.5 2t83.5 4q43 3 83 7z
" />
    <glyph glyph-name="macron" unicode="&#x2c9;" horiz-adv-x="889" 
d="M695 1100q24 -8 24.5 -16.5t-17 -16t-51 -13.5t-77.5 -10.5t-96 -7t-107 -2.5q-49 0 -94.5 2t-82 5.5t-61 9.5t-30.5 15q-10 14 -10.5 28t6 24.5t19 17t30.5 6.5q14 0 30.5 -5.5t33.5 -19.5q11 -9 32.5 -14.5t50 -8.5t62 -4.5t68.5 -1.5q48 0 94.5 2t83.5 4q43 3 83 7z
" />
    <glyph glyph-name="breve" unicode="&#x2d8;" horiz-adv-x="770" 
d="M651 1191q56 21 50.5 -4.5t-76.5 -79.5q-34 -26 -86.5 -56t-117.5 -52h1q-33 -12 -69.5 -18t-74.5 -3q-37 2 -71.5 15.5t-60.5 33.5t-40.5 43.5t-22.5 43.5q-8 23 -8 39t5 24q8 13 18 16.5t20 3.5q19 0 34 -15q22 -22 29 -80q1 -7 5 -15t14 -18q23 -20 61 -31
q23 -5 50 -5q18 0 38 3q49 8 90 26q39 16 73.5 35.5t61.5 37.5t45.5 32t25.5 20l-1 -1z" />
    <glyph glyph-name="comma" unicode="," horiz-adv-x="447" 
d="M38 -304q-32 -18 -39.5 -11t0.5 31.5t28.5 63l45.5 82.5l24 42h-1l42 79.5t30 64.5l-1 -1q5 14 9 26.5t6 21.5q0 1 1 1q4 21 7 24q0 1 2 3q1 1 1 2q0 6 4 14l9 9q11 8 27.5 5.5t28.5 -16.5q10 -11 13 -25t1 -29q-6 -29 -30 -47q-11 -8 -24 -26t-27 -43q-33 -53 -66 -112
l-32 -56.5l-26 -48.5l-25 -47z" />
    <glyph glyph-name="ring" unicode="&#x2da;" horiz-adv-x="715" 
d="M109 1086q2 5 5 8.5t5 6.5q4 6 8.5 13.5t10.5 16.5q8 12 26 32t53 40v1q16 9 36.5 16t45.5 9q23 2 49.5 -1t50.5 -12h-1q49 -16 91 -49q8 -6 15 -12t15 -12q2 -2 5.5 -5t5.5 -5l9.5 -9.5t9.5 -10.5q7 -8 11 -16t7 -13v1q1 -2 2 -4.5t2 -4.5q8 -21 8 -44q0 -21 -7 -39v1
q-8 -22 -22 -38t-30 -26q-30 -18 -58 -24.5t-54 -10.5q-32 -3 -63 -3q-8 0 -17.5 0.5t-17.5 0.5q-23 1 -45.5 4.5t-45.5 8.5q-22 6 -44 15t-40 24q-20 17 -30.5 40t-10.5 43q0 21 5 35t10 23zM193 1119q-5 -5 -8 -8.5t-5 -6.5l4 -4q5 -7 6.5 -17t1.5 -21q0 -3 -0.5 -6.5
t-0.5 -6.5q-1 -6 -1.5 -11.5t-0.5 -9.5q0 -5 2.5 -13.5t11.5 -20.5q11 -16 54 -30h-1q22 -7 50 -10t60 -4q30 0 66 6q17 2 33 7.5t32 16.5q15 11 23 26q4 8 5 18t-1 18q-1 5 -2 9.5t-2 7.5l-1 2q1 -1 -0.5 2l-2.5 5l-2 4t-3 5h-1q-3 4 -10 10t-15 14q-26 24 -56 42.5
t-62 27.5q-21 6 -46 6q-37 0 -66 -13q-21 -10 -37 -22.5t-26 -22.5h1z" />
    <glyph glyph-name="slash" unicode="/" horiz-adv-x="771" 
d="M-179 -375q-46 -21 -66 -27.5t-19 1t20.5 27.5l53.5 53q29 27 80 83q61 66 140.5 161l166.5 203v-1l101 126.5l98 124.5l106 134l94.5 117t73.5 86t43 40q32 13 43.5 -2t2 -47t-41 -74.5t-85.5 -84.5q-26 -20 -65 -61.5t-86.5 -97l-101 -121.5l-107.5 -133v1l-42.5 -52.5
l-42.5 -52.5l-129.5 -156t-113.5 -130v1q-26 -29 -47.5 -50l-37.5 -36q-18 -18 -34 -30z" />
    <glyph glyph-name="fraction" unicode="&#x2044;" horiz-adv-x="736" 
d="M-90 -232q-46 -21 -66 -27.5t-19 1t20.5 27.5l53.5 53q29 27 80 83q61 66 140.5 161l166.5 203v-1l101 126.5l98 124.5l106 134l94.5 117t73.5 86t43 40q32 13 43.5 -2t2 -47t-41 -74.5t-85.5 -84.5q-26 -20 -65 -61.5t-86.5 -97l-101 -121.5l-107.5 -133v1l-42.5 -52.5
l-42.5 -52.5l-129.5 -156t-113.5 -130v1q-26 -29 -47.5 -50l-37.5 -36q-18 -18 -34 -30z" />
    <glyph glyph-name="fraction" unicode="&#x2215;" horiz-adv-x="736" 
d="M-90 -232q-46 -21 -66 -27.5t-19 1t20.5 27.5l53.5 53q29 27 80 83q61 66 140.5 161l166.5 203v-1l101 126.5l98 124.5l106 134l94.5 117t73.5 86t43 40q32 13 43.5 -2t2 -47t-41 -74.5t-85.5 -84.5q-26 -20 -65 -61.5t-86.5 -97l-101 -121.5l-107.5 -133v1l-42.5 -52.5
l-42.5 -52.5l-129.5 -156t-113.5 -130v1q-26 -29 -47.5 -50l-37.5 -36q-18 -18 -34 -30z" />
    <glyph glyph-name="percent" unicode="%" horiz-adv-x="736" 
d="M9 636q2 5 5 8.5t5 6.5q4 6 8.5 13.5t10.5 16.5q8 12 26 32t53 40v1q16 9 36.5 16t45.5 9q23 2 49.5 -1t50.5 -12h-1q49 -16 91 -49q8 -6 15 -12t15 -12q2 -2 5.5 -5t5.5 -5l9.5 -9.5t9.5 -10.5q7 -8 11 -16t7 -13v1q1 -2 2 -4.5t2 -4.5q8 -21 8 -44q0 -21 -7 -39v1
q-8 -22 -22 -38t-30 -26q-30 -18 -58 -24.5t-54 -10.5q-32 -3 -63 -3q-8 0 -17.5 0.5t-17.5 0.5q-23 1 -45.5 4.5t-45.5 8.5q-22 6 -44 15t-40 24q-20 17 -30.5 40t-10.5 43q0 21 5 35t10 23zM205 -156q2 5 5 8.5t5 6.5l8.5 14.5t10.5 15.5q8 12 26 32t53 40v1q16 9 36.5 16
t45.5 9q23 2 49.5 -1t50.5 -12h-1q49 -16 91 -49q8 -6 15 -12t15 -12q2 -2 5.5 -5t5.5 -5l9.5 -9.5t9.5 -10.5q7 -8 11 -16t7 -13v1q1 -2 2 -4.5t2 -4.5q8 -21 8 -44q0 -21 -7 -39v1q-8 -22 -22 -38t-30 -26q-30 -18 -58 -24.5t-54 -10.5q-32 -3 -63 -3q-8 0 -17.5 0.5
t-17.5 0.5q-23 1 -45.5 4.5t-45.5 8.5q-22 6 -44 15t-40 24q-20 17 -30.5 40t-10.5 43q0 21 5 35t10 23zM-179 -375q-46 -21 -66 -27.5t-19 1t20.5 27.5l53.5 53q29 27 80 83q61 66 140.5 161l166.5 203v-1l101 126.5l98 124.5l106 134l94.5 117t73.5 86t43 40
q32 13 43.5 -2t2 -47t-41 -74.5t-85.5 -84.5q-26 -20 -65 -61.5t-86.5 -97l-101 -121.5l-107.5 -133v1l-42.5 -52.5l-42.5 -52.5l-129.5 -156t-113.5 -130v1q-26 -29 -47.5 -50l-37.5 -36q-18 -18 -34 -30zM93 669q-5 -5 -8 -8.5t-5 -6.5l4 -4q5 -7 6.5 -17t1.5 -21
q0 -3 -0.5 -6.5t-0.5 -6.5q-1 -6 -1.5 -11.5t-0.5 -9.5q0 -5 2.5 -13.5t11.5 -20.5q11 -16 54 -30h-1q22 -7 50 -10t60 -4q30 0 66 6q17 2 33 7.5t32 16.5q15 11 23 26q4 8 5 18t-1 18q-1 5 -2 9.5t-2 7.5l-1 2q1 -1 -0.5 2l-2.5 5l-2 4t-3 5h-1q-3 4 -10 10t-15 14
q-26 24 -56 42.5t-62 27.5q-21 6 -46 6q-37 0 -66 -13q-21 -10 -37 -22.5t-26 -22.5h1zM289 -123q-5 -5 -8 -8.5t-5 -5.5q1 -2 2 -2.5t2 -2.5q5 -7 6.5 -17t1.5 -21q0 -3 -0.5 -6.5t-0.5 -6.5q-1 -6 -1.5 -11.5t-0.5 -9.5q0 -5 2.5 -13.5t11.5 -20.5q11 -16 54 -30h-1
q22 -7 50 -10t60 -4q30 0 66 6q17 2 33 7.5t32 16.5q15 11 23 26q4 8 5 18t-1 18q-1 5 -2 9.5t-2 7.5l-1 2q1 -1 -0.5 2l-2.5 5t-2 4.5t-3 4.5h-1q-3 4 -10 10t-15 14q-26 24 -56 42.5t-62 27.5q-21 6 -46 6q-37 0 -66 -13q-21 -10 -37 -22.5t-26 -22.5h1z" />
    <glyph glyph-name="acute" unicode="&#xb4;" horiz-adv-x="883" 
d="M679 1212q54 17 48.5 -6.5t-71.5 -74.5q-31 -23 -80.5 -50.5t-103.5 -50.5q-56 -24 -115 -41.5t-104 -26.5q-26 -5 -50 -7.5t-41 -2.5q-34 0 -46 12q-14 14 -17 28.5t4 26.5t22.5 19.5t38.5 7.5t52 -12l-1 1q13 -6 35 -6q21 0 49 5t59 13t63 19.5t62 25.5
q36 17 74.5 38.5t61.5 37.5q17 12 29 21.5t19 14.5l4 3z" />
    <glyph glyph-name="grave" unicode="`" horiz-adv-x="697" 
d="M522 976q19 -9 25.5 -20t-0.5 -18.5t-28 -10t-57 3.5q-29 5 -68.5 21.5t-77.5 39.5t-73.5 51t-63 54.5t-43 48t-13.5 32.5q5 20 18.5 30.5t29.5 10.5q18 0 34 -15t19 -49q1 -13 13 -29.5t31.5 -34t44 -34.5t51.5 -31q59 -33 103 -42q10 -3 18.5 -4t14.5 -2q7 -1 12 0z
" />
    <glyph glyph-name="caron" unicode="&#x2c7;" horiz-adv-x="816" 
d="M674 1192q34 11 47.5 9t8 -14t-28 -34t-61.5 -51q-38 -29 -93 -66t-121 -72h1q-32 -18 -72 -33l1 1q-12 -5 -22.5 -8.5t-21.5 -5.5q-1 0 -3 -0.5t-4 -0.5h2q-6 -1 -12 -1.5t-14 0.5q-5 0 -11.5 1t-11.5 3q-2 1 -3 1t-3 1q-5 2 -7 3q-24 13 -40 28t-28 29q-13 14 -23 28
l-18 26q-35 54 -50 98.5t-10 61.5q10 26 30.5 27t41.5 -18q15 -14 25.5 -39.5t12.5 -60.5q0 -8 4.5 -21.5t10.5 -26.5q8 -15 20 -33t29 -35q2 -2 6 -4.5l9 -5.5q4 -4 12 -7q5 -1 12 -1q14 1 26.5 4.5t25.5 8.5q23 9 47.5 21.5l50.5 26.5v-1q47 27 88.5 55t72.5 51
q36 26 67 51z" />
    <glyph glyph-name="circumflex" unicode="&#x2c6;" horiz-adv-x="819" 
d="M681 943q7 -38 4 -51t-15 -5.5t-31 33t-43 63.5q-2 2 -3 4t-2 3l-25 38.5t-30 43.5l-11 13.5l-12 14.5h-1q-2 -1 -5 -4q-32 -23 -63.5 -40.5l-61.5 -34.5t-60 -31.5l-57 -26.5q-56 -25 -97 -38.5t-55 -8.5q-24 10 -29.5 28.5t6.5 36.5t41 31t73 10q20 -2 53 8.5t75 29.5
l47.5 22.5t45.5 23.5q-8 -3 -6 -1t8.5 5.5l14.5 8l13 7.5q3 2 7.5 4.5t7.5 4.5l10 6.5t10 7.5l10 10l11 -10q0 4 2 4l18 -19q2 4 2 11l-11 18q2 -2 4.5 -3.5t6.5 -4.5q5 -4 9.5 -8.5t11.5 -12.5v1q6 -7 14 -17.5t17 -23.5l26.5 -38.5t22.5 -35.5v1l18 -29l14 -23
q7 -11 12 -20z" />
    <glyph glyph-name="cedilla" unicode="&#xb8;" horiz-adv-x="356" 
d="M-92 -215q-38 21 -46 31t6 14t47.5 2.5t78.5 -4.5q7 -1 14 -1t15 -1q18 -2 39.5 -3l42.5 -2h34q23 0 46.5 1t46.5 5q23 5 33 10v2q1 6 0 9q-5 10 -23 18q-11 5 -22 8t-22 4q-6 2 -15.5 2.5t-21.5 2.5q-26 28 -31.5 35.5t-5.5 6.5q0 1 -2 3l1 10l1 8l4 16l6 23.5t6 20.5
q8 22 14 36t14 19q30 20 49.5 4t19.5 -51q0 -14 -5.5 -32.5t-17.5 -37.5q2 -1 4.5 -2t5.5 -2q19 -6 40 -17t37 -28q19 -22 20 -47q0 -16 -2 -26q-2 -6 -7 -13t-10 -11q-10 -8 -23 -13t-27 -9q-12 -2 -26.5 -3.5t-28.5 -3.5q-14 -1 -27.5 -1h-27.5q-39 0 -75.5 2t-65.5 5
q-20 2 -35.5 2.5t-26.5 2.5q-13 1 -23 3z" />
    <glyph glyph-name="ogonek" unicode="&#x2db;" horiz-adv-x="412" 
d="M453 -198q36 -2 47.5 -8t2 -15.5t-39.5 -21.5t-77 -25q-26 -7 -56.5 -13t-60.5 -11q-25 -4 -54.5 -6.5t-60.5 -2.5h-18.5t-18.5 1q-20 1 -45 8l1 -1q-13 3 -26.5 8.5t-27.5 15.5q-18 16 -27 36q-4 10 -6 23t-2 21q0 1 0.5 2t0.5 2q0 2 -0.5 4.5t1.5 6.5q0 2 1 6t2 6v-1
q2 7 4 12.5t4 12.5l-1 -1q8 24 25 45t38 34q20 13 41 20t39 9q1 1 5 1q2 8 4 14.5l4 12.5v-1q12 46 28 57q30 20 49.5 4t19.5 -51q0 -20 -8 -43t-28 -48q-1 -2 -7 -8l-28 28q-14 -14 -19.5 -22t-4.5 -13q-12 2 -23 0q-16 -1 -35.5 -9t-33.5 -27q-8 -11 -12.5 -22t-8.5 -24
q-2 -5 -2.5 -11t1.5 -14q5 -16 16 -22v1q12 -8 25.5 -11.5t27.5 -5.5t29 -3t27 0q60 2 110 10t88 17l35 8.5t26 6.5q12 4 22 7zM164 -103q2 -1 3.5 -1t4.5 -2h1q-7 -1 -12.5 0t-6.5 6q6 -2 10 -3zM173 -106q13 2 20 5l-4 -2l-4 -2l-4 -2zM196 -100q0 -1 -1 -1h-2q3 0 3 1z
M196 -100h2h-2z" />
    <glyph glyph-name="quotesingle" unicode="'" horiz-adv-x="0" 
d="M-51 392q-23 -14 -33 -10.5t-12.5 19t0.5 40t8 54.5l4 23l4 24l6 45l6 47t8.5 42.5t14.5 33.5t23 20h-1q16 8 31.5 11.5t28.5 3.5q20 0 33 -9t13 -24q0 -11 -10.5 -23.5t-33.5 -27.5q-16 -9 -26 -24t-16.5 -34t-10.5 -40l-8 -43v1q-4 -23 -7 -43t-6 -37q-4 -19 -6 -36z
" />
    <glyph glyph-name="numbersign" unicode="#" horiz-adv-x="767" 
d="M439 -157q-21 -26 -32 -34t-14.5 0.5t-1 30.5t8.5 56q2 8 3.5 18t3.5 21q5 29 10 65t10 78q-56 -9 -117 -16t-121 -11q-7 -42 -14 -80t-15 -71q-5 -23 -10 -40t-10 -29q-5 -14 -10 -24l-4 -5q-25 -25 -36.5 -32t-14 0t2.5 27t14 50l6.5 23.5t7.5 29.5q7 28 13.5 66.5
l13.5 81.5h-34q-47 0 -79.5 4.5t-41.5 15.5q-12 14 -13.5 28t5.5 25t20.5 18t33.5 7q29 0 63 -20q9 -5 23 -8.5t32 -5.5l4 30l4 29q4 34 7.5 68t6.5 69q-24 3 -40 8t-21 13q-10 15 -11 28.5t5 24t18.5 16.5t29.5 6q11 0 28 -5q4 48 8 90.5t9 75.5t10.5 54.5t13.5 28.5v-1
q15 14 28.5 16.5t24 -5t17 -24t6.5 -39.5q0 -18 -6.5 -41t-20.5 -49q-10 -17 -18 -53t-15 -84q23 -7 57.5 -9.5t74.5 -2.5q50 0 98 3q6 54 12.5 102t13.5 86t14 63t15 31q15 12 28 14t23.5 -5.5t16.5 -22t6 -35.5q0 -18 -7 -41t-24 -47q-12 -17 -22 -54.5t-18 -86.5
q23 2 43 4t34 4q17 2 31 4l10 -1q20 -8 18.5 -16.5t-20 -16t-50.5 -14.5t-73 -13q-6 -41 -11.5 -84.5t-10.5 -87.5q-1 -4 -1.5 -7t-0.5 -7l41.5 5.5l32.5 4.5q16 3 29 5l8 -1q17 -5 15 -11.5t-18.5 -13.5t-46 -15t-67.5 -15q-5 -42 -10 -80t-10 -69v1q-3 -20 -6.5 -36.5
t-6.5 -28.5q-4 -14 -6 -25zM198 116q-1 -3 -1 -8h18q51 0 108 4t109 10q2 17 4.5 35t4.5 36l4 35l4 35v-1l2 23t3 23q-38 -3 -79 -5t-82 -2h-37.5t-34.5 1q-3 -22 -5.5 -44t-5.5 -45z" />
    <glyph glyph-name="parenleft" unicode="(" horiz-adv-x="599" 
d="M216 -278q26 -111 12 -110t-61 104q-11 23 -25.5 62t-26.5 93l1 -1q-11 47 -17.5 103.5t-6.5 119.5v23t1 23q3 75 18 157.5t40 163.5q25 77 60 155.5t75 152.5t82 140.5t81 118.5q41 55 80 99.5t70.5 77t54 51.5t31.5 22q28 10 43.5 8t18.5 -13.5t-4.5 -31t-25.5 -44.5
q-21 -30 -59.5 -70t-90.5 -80q-35 -26 -89 -90t-113 -159q-59 -94 -110 -209.5t-79 -238.5q-15 -60 -22 -120.5t-9 -118.5q-1 -56 4 -106.5t13 -94.5q14 -73 30 -119.5t22 -60.5q0 -1 -2 1l-1 1z" />
    <glyph glyph-name="parenright" unicode=")" horiz-adv-x="599" 
d="M320 1240q-26 111 -12 110t61 -104q11 -23 25.5 -62t26.5 -93l-1 1q11 -47 17.5 -103.5t6.5 -119.5v-23t-1 -23q-3 -75 -18 -157.5t-40 -163.5q-25 -77 -60 -155.5t-75 -152.5t-82 -140.5t-81 -118.5q-41 -54 -79.5 -98.5t-70.5 -77t-55 -51.5t-32 -23q-28 -10 -43 -7.5
t-18 13.5t4.5 30.5t25.5 44.5q21 30 59.5 70t90.5 80q35 26 89 90t113 159q59 94 110 209.5t79 237.5q15 60 22 120t9 119q1 56 -4 107t-13 95q-14 73 -30 119.5t-22 60.5l1 -1q1 -1 2 -1z" />
    <glyph glyph-name="ampersand" unicode="&#x26;" horiz-adv-x="1308" 
d="M1233 21q43 12 75 12q23 0 39 -7.5t21 -21.5q3 -10 -4 -22.5t-21 -25t-35 -23.5t-46 -18q-13 -4 -23.5 -6.5t-29.5 -5.5l-25 -4.5t-33 -5.5l2 1q-3 -1 -7 -1.5t-8 -1.5q-17 -3 -41 -6t-55 -5q-9 -1 -21.5 -1.5t-22.5 -0.5q-9 0 -20 0.5t-22 1.5q-24 2 -54 9.5t-59 25.5
q-16 10 -30 27.5t-22 37.5q-8 23 -9 47q-36 -38 -79.5 -75.5t-93.5 -70.5q-28 -18 -59.5 -35t-66.5 -30t-72.5 -20t-77.5 -7q-44 0 -88 11t-87 31q-40 19 -79 49q-19 14 -38 31t-35 38q-17 23 -27 54t-3 63q7 31 24 56t38 45q42 37 88 64t97 50q80 35 167.5 64.5t181.5 55.5
q-53 5 -110.5 15t-120.5 27q-40 11 -80 25t-78 34q-41 20 -80 47t-74 64q-35 36 -61.5 85t-38.5 103q-4 17 -5.5 37.5t-1.5 40.5q0 38 7 77.5t20 77.5q20 55 52.5 110t74.5 106.5t93.5 98.5t109.5 86q119 80 247 124.5t244 60.5q40 6 80.5 8t79.5 2h33.5t33.5 -1
q51 -2 104.5 -8.5t98.5 -18.5q47 -12 92.5 -33.5t78.5 -55.5q36 -38 51 -82q8 -22 10.5 -44.5t1.5 -43.5q-2 -41 -12 -77t-23 -69q-13 -31 -27 -58t-29 -52q-30 -51 -57.5 -89l-51.5 -69q-24 -32 -45.5 -56.5l-38.5 -44.5l-54.5 -61l-30.5 -32q-19 -18 -39 -31t-38 -19
t-32.5 -5.5t-21.5 9.5q-15 18 1 53.5t52 71.5q2 2 4.5 4t4.5 4l21.5 20l32.5 32q26 24 67.5 67.5t99.5 118.5q28 37 60.5 87t56.5 110q9 24 15.5 50t6.5 53q0 15 -3 33q-3 17 -10 33t-19 30q-12 15 -28.5 27t-36.5 23q-42 21 -93 33.5t-105 19.5q-36 4 -75.5 6.5t-78.5 2.5
q-23 0 -45.5 -1t-46.5 -3q-65 -5 -133.5 -18.5t-140.5 -39.5q-68 -23 -141.5 -61.5t-139.5 -86.5q-61 -46 -111 -99t-87 -109.5t-60 -115t-29 -115.5q-2 -11 -2 -20.5v-18.5q0 -45 10.5 -86t30.5 -75q23 -42 56 -73.5t68 -54.5t71 -39.5t71 -29.5h-1q32 -11 67 -19.5
t67 -14.5q64 -11 123 -16t110 -7h35q103 0 213 9q66 13 131.5 24l128.5 21q17 3 36 5.5t37 4.5q10 2 23 2l-1 -1l21 -12l4 -70l-14 -24h-7l-7 -2q-6 -1 -14 -1.5t-17 -2.5q-2 0 -4 -0.5t-4 -0.5h1q-38 -5 -78 -9t-84 -7q-12 -2 -24.5 -2.5t-26.5 -1.5l-80.5 -14.5
l-86.5 -15.5q-137 -26 -246.5 -52t-200.5 -55q-47 -14 -88.5 -29t-77.5 -32q-35 -16 -69 -35.5t-60 -40.5q-11 -10 -22 -23t-19 -27q-14 -25 -8 -52q3 -14 10 -27t16 -24t22 -23t25 -22q24 -19 53 -35.5t61 -28.5q29 -9 67 -15t71 -4q59 7 113 29.5t99 50.5q45 29 82.5 63.5
t70.5 69.5q25 26 46.5 51t40.5 50q6 14 13.5 28.5t15.5 28.5h-1q9 17 21.5 36l26.5 39l-1 -1l6 9q2 2 6.5 9t6.5 9q-1 0 -1 2t0.5 4.5t2.5 7.5l68 -52l-18 -20l3 3q-2 -2 -3.5 -5t-3.5 -5v1q-6 -10 -13 -20l-14 -20h1q-11 -14 -21 -29t-21 -29q-3 -6 -5 -12h1
q-11 -26 -17.5 -50.5t-6.5 -46.5q-1 -19 4.5 -33t15.5 -22q11 -9 25 -13t28 -6q21 -3 38 -3t34 2t32 4q45 7 68 13h-1q2 1 4 1t4 1l60.5 16.5z" />
    <glyph glyph-name="quotedbl" unicode="&#x22;" horiz-adv-x="270" 
d="M179 392q-23 -14 -33 -10.5t-12.5 19t0.5 40t8 54.5l4 23l4 24l6 45q3 30 7.5 58t13.5 49q-11 -16 -38 -33q-16 -9 -26 -24t-16.5 -34t-10.5 -40l-8 -43v1q-4 -23 -7 -43t-6 -37q-4 -19 -6 -36l-10 -13q-23 -14 -33 -10.5t-12.5 19t0.5 40t8 54.5l4 23l4 24l6 45l6 47
t8.5 42.5t14.5 33.5t23 20h-1q16 8 31.5 11.5t28.5 3.5q20 0 33 -9t13 -24q0 -5 -1 -8q9 18 26 26h-1q16 8 31.5 11.5t28.5 3.5q20 0 33 -9t13 -24q0 -11 -10.5 -23.5t-33.5 -27.5q-16 -9 -26 -24t-16.5 -34t-10.5 -40l-8 -43v1q-4 -23 -7 -43t-6 -37q-4 -19 -6 -36z" />
    <glyph glyph-name="dollar" unicode="$" horiz-adv-x="1539" 
d="M913 1675q2 -29 -1.5 -92t-11.5 -152q39 4 75 3h-1q49 -1 93.5 -10.5t82.5 -30.5q20 -12 36.5 -29.5t23.5 -43.5q6 -26 -1 -48t-19 -39q-22 -31 -47.5 -51.5t-51.5 -37.5q-51 -32 -100.5 -55t-101.5 -44h1q-8 -3 -16 -6.5t-16 -6.5q-12 -106 -26.5 -219l-29.5 -230
l62 -89.5l75 -105.5l35.5 -50.5l38.5 -55.5q2 -2 4 -5t4 -5l-1 1l71.5 -104t79.5 -128q21 -36 40.5 -78.5t33.5 -92.5q8 -26 11.5 -54.5t-0.5 -57.5q-3 -31 -18 -61.5t-39 -53.5t-52 -37t-55 -24q-27 -9 -55.5 -15.5t-53.5 -11.5q-52 -8 -102 -10.5t-99 -2.5q-38 0 -74 1
t-71 3q-21 -103 -39 -162t-31 -59q-5 -7 -13.5 -22l-17.5 -30t-17 -26t-12 -11q-18 0 -27.5 21t-9.5 57q0 22 8 48t21.5 55.5t30.5 63l35 70.5q-68 6 -128 18q-37 8 -74 18t-72 26q-35 15 -66 35t-54 44q-25 26 -40 58t-20 64q-3 19 -3 41q0 20 2.5 38.5t7.5 35.5
q14 49 33 88t37 68q18 30 35.5 54.5t31.5 41.5q29 36 47 56t26 28h-1q15 16 31.5 27t31.5 16t27 4t19 -8q12 -14 -0.5 -44t-40.5 -60l1 2l-17 -17q-6 -6 -13.5 -14.5l-19.5 -21.5l-21.5 -24.5l-27.5 -33.5v1l-32.5 -44.5t-34.5 -56.5q-9 -17 -17 -35.5t-15 -39.5
q-6 -19 -9 -42t-1 -48q4 -23 15 -46.5t31 -43.5q21 -21 51 -38t65 -30q52 -20 113.5 -32t130.5 -19l38 89l56 467.5l49 388.5l-39.5 56.5l-34.5 53.5q-23 34 -45 70.5t-39 72.5q-14 26 -26 54t-23 60q-113 -31 -209.5 -54t-175.5 -40q-20 -5 -39 -8t-37 -8
q-106 -25 -183 -47.5t-131 -42.5q-46 -17 -82.5 -33t-58.5 -27q-23 -11 -42.5 -23l-41.5 -26q-14 -9 -27.5 -16.5t-23.5 -12.5q-14 -6 -23.5 -8.5t-20.5 2.5q-14 5 -17 22t8 37q7 13 21.5 27.5t34.5 28.5q9 5 13.5 8t15.5 9l1 1l4 2q-1 -1 4 1.5l9 4.5q16 8 42.5 19l69.5 28
q53 19 135 44t208 53l-1 -1q32 8 66.5 15l72.5 15q36 8 76 15.5t82 16.5l112 24.5t121 29.5q-5 24 -7.5 50t-1.5 55q2 61 32 122q15 29 38 57t53 53t65.5 45.5t76.5 35.5q21 7 42.5 12.5t42.5 9.5q10 68 18 115t14 77t10.5 46t7.5 22q6 14 8 -13zM870 381l-42 56l-39 53
l-34.5 -244.5l-35 -234t-35 -214t-33.5 -185.5q14 -1 28 -1.5t28 -1.5q22 -1 48 -1.5t49 -0.5q30 0 62.5 1t64.5 4q29 3 59.5 8t59.5 13q28 8 56 20.5t51 34.5q20 19 30.5 42.5t11.5 48.5q2 27 -3.5 53t-13.5 51v-1q-18 51 -41 95t-47 83q-38 63 -81 123l-83 115
q-5 7 -9 13.5t-9 12.5zM612 1181q-15 -27 -20.5 -54.5t-5.5 -53.5q0 -18 2 -34.5t5 -32.5q20 5 40 11.5l41 13.5q31 9 63.5 19.5t66.5 23.5l20.5 148.5l17.5 122.5q-26 -8 -52.5 -18t-52.5 -24v1q-38 -21 -71 -51.5t-54 -71.5zM904 1357q-3 -1 -5.5 -1t-5.5 -1
q-5 -58 -12 -122l-15 -135l30 12.5l30 13.5q30 14 62.5 31t64.5 39l31 22t26 22q12 11 22 24t14 26q5 20 -15 35q-12 11 -29 17.5t-33 11.5q-22 5 -45.5 7.5t-48.5 2.5q-17 0 -35 -1.5t-37 -3.5h1zM656 832q23 -45 46 -85.5l48 -81.5l23.5 183.5l21.5 160.5l-58.5 -20
l-63.5 -20l-60 -18h-1l-2 -1h-3q10 -29 24 -61.5z" />
    <glyph glyph-name="asterisk" unicode="*" horiz-adv-x="892" 
d="M125 561q-27 13 -33 22.5t5 15.5t36.5 8.5t63.5 2.5q35 0 81.5 -1.5t97.5 -3.5h2h1h1q8 -1 15 -1.5t15 -0.5q-3 5 -6 9.5t-6 9.5q14 11 27 23.5t27 24.5l57.5 52.5l48.5 45.5l46 44l8 5q40 12 41.5 -1.5t-23.5 -44t-69 -73.5l-96 -90q-6 -6 -9 -8q43 -3 83.5 -7.5
t73.5 -9.5t56 -12t31 -15q9 -14 9 -27t-6.5 -23.5t-18.5 -16.5t-28 -6q-13 0 -30.5 6.5t-33.5 20.5q-20 12 -59.5 20.5t-87.5 13.5q-8 16 -17 31l-21 -18l6 -9h-7.5t-8.5 1l-62.5 -51.5l-56 -43.5t-45.5 -30t-31 -11q-18 5 -28 17.5t-10 26.5q0 21 20 41.5t61 24.5
q12 1 29.5 9t37.5 22q-36 2 -68.5 2.5t-56.5 1.5q-29 1 -53 1zM346 719q-2 -5 -2 -18q-29 39 -52 61t-32 13q8 12 20.5 18.5t23.5 6.5t21 -5t16.5 -15.5t8 -25.5t-3.5 -35zM502 421l-28 38q-13 17 -29 40t-32 49l16 -2l16 -2q26 -45 43 -82t18 -52zM379 605
q-14 28 -23.5 52.5t-11.5 43.5q14 -17 27 -37.5l27 -41.5q-5 -5 -9.5 -8.5t-9.5 -8.5z" />
    <glyph glyph-name="period" unicode="." horiz-adv-x="415" 
d="M127 0q-11 10 -14 24.5t-2.5 28t3.5 24t6 13.5v-1q3 3 15.5 4t28.5 -0.5t32 -7t26 -15.5t11.5 -22.5t-1 -24t-7.5 -20.5t-8 -12t-14 -5.5t-25 -2.5t-28 3.5t-23 13.5z" />
    <glyph glyph-name="quotesinglbase" unicode="&#x201a;" horiz-adv-x="447" 
d="M38 -304q-32 -18 -39.5 -11t0.5 31.5t28.5 63l45.5 82.5l24 42h-1l42 79.5t30 64.5l-1 -1q5 14 9 26.5t6 21.5q0 1 1 1q4 21 7 24q0 1 2 3q1 1 1 2q0 6 4 14l9 9q11 8 27.5 5.5t28.5 -16.5q10 -11 13 -25t1 -29q-6 -29 -30 -47q-11 -8 -24 -26t-27 -43q-33 -53 -66 -112
l-32 -56.5l-26 -48.5l-25 -47z" />
    <glyph glyph-name="quotedblbase" unicode="&#x201e;" horiz-adv-x="447" 
d="M38 -304q-32 -18 -39.5 -11t0.5 31.5t28.5 63l45.5 82.5l24 42h-1l42 79.5t30 64.5l-1 -1q5 14 9 26.5t6 21.5q0 1 1 1q4 21 7 24q0 1 2 3q1 1 1 2q0 6 4 14l9 9q11 8 27.5 5.5t28.5 -16.5q10 -11 13 -25t1 -29q-6 -29 -30 -47q-11 -8 -24 -26t-27 -43q-33 -53 -66 -112
l-32 -56.5l-26 -48.5l-25 -47zM187 -304q-32 -18 -39.5 -11t0.5 31.5t28.5 63l45.5 82.5l24 42h-1l42 79.5t30 64.5l-1 -1q5 14 9 26.5t6 21.5q0 1 1 1q4 21 7 24q0 1 2 3q1 1 1 2q0 6 4 14l9 9q11 8 27.5 5.5t28.5 -16.5q10 -11 13 -25t1 -29q-6 -29 -30 -47
q-11 -8 -24 -26t-27 -43q-33 -53 -66 -112l-32 -56.5l-26 -48.5l-25 -47z" />
    <glyph glyph-name="quotedblright" unicode="&#x201d;" horiz-adv-x="447" 
d="M138 496q-32 -18 -39.5 -11t0.5 31.5t28.5 63l45.5 82.5l24 42h-1l42 79.5t30 64.5l-1 -1q5 14 9 26.5t6 21.5q0 1 1 1q4 21 7 24q0 1 2 3q1 1 1 2q0 6 4 14l9 9q11 8 27.5 5.5t28.5 -16.5q10 -11 13 -25t1 -29q-6 -29 -30 -47q-11 -8 -24 -26t-27 -43q-33 -53 -66 -112
l-32 -56.5l-26 -48.5l-25 -47zM287 496q-32 -18 -39.5 -11t0.5 31.5t28.5 63l45.5 82.5l24 42h-1l42 79.5t30 64.5l-1 -1q5 14 9 26.5t6 21.5q0 1 1 1q4 21 7 24q0 1 2 3q1 1 1 2q0 6 4 14l9 9q11 8 27.5 5.5t28.5 -16.5q10 -11 13 -25t1 -29q-6 -29 -30 -47q-11 -8 -24 -26
t-27 -43q-33 -53 -66 -112l-32 -56.5l-26 -48.5l-25 -47z" />
    <glyph glyph-name="quotedblleft" unicode="&#x201c;" horiz-adv-x="447" 
d="M420 938q32 18 39.5 11t-0.5 -31.5t-28.5 -63l-45.5 -82.5l-24 -42h1l-42 -79.5t-30 -64.5l1 1l-9 -26t-6 -22l-1 -2q-4 -17 -8 -23q-2 -2 -2.5 -4t0.5 -1q0 -5 -4 -14l-9 -9q-11 -8 -27.5 -5.5t-28.5 16.5q-11 11 -14 25t-1 28q6 28 31 48q12 8 24.5 26t26.5 42l32.5 55
l33.5 58l32 56.5l26 48.5l25 47zM271 938q32 18 39.5 11t-0.5 -31.5t-28.5 -63l-45.5 -82.5l-24 -42h1l-42 -79.5t-30 -64.5l1 1l-9 -26t-6 -22l-1 -2q-4 -17 -8 -23q-2 -2 -2.5 -4t0.5 -1q0 -5 -4 -14l-9 -9q-11 -8 -27.5 -5.5t-28.5 16.5q-11 11 -14 25t-1 28q6 28 31 48
q12 8 24.5 26t26.5 42l32.5 55l33.5 58l32 56.5l26 48.5l25 47z" />
    <glyph glyph-name="quoteleft" unicode="&#x2018;" horiz-adv-x="447" 
d="M420 938q32 18 39.5 11t-0.5 -31.5t-28.5 -63l-45.5 -82.5l-24 -42h1l-42 -79.5t-30 -64.5l1 1l-9 -26t-6 -22q-1 -2 -1 -1q-4 -17 -8 -24q-2 -2 -2.5 -4t0.5 -1q0 -5 -4 -14l-9 -9q-11 -8 -27.5 -5.5t-28.5 16.5q-11 11 -14 25t-1 28q6 28 31 48q12 8 24.5 26t26.5 42
l32.5 55l33.5 58l32 56.5l26 48.5l25 47z" />
    <glyph glyph-name="quoteright" unicode="&#x2019;" horiz-adv-x="447" 
d="M138 496q-32 -18 -39.5 -11t0.5 31.5t28.5 63l45.5 82.5l24 42h-1l42 79.5t30 64.5l-1 -1q5 14 9 26.5t6 21.5q0 1 1 1q4 21 7 24q0 1 2 3q1 1 1 2q0 6 4 14l9 9q11 8 27.5 5.5t28.5 -16.5q10 -11 13 -25t1 -29q-6 -29 -30 -47q-11 -8 -24 -26t-27 -43q-33 -53 -66 -112
l-32 -56.5l-26 -48.5l-25 -47z" />
    <glyph glyph-name="dieresis" unicode="&#xa8;" horiz-adv-x="833" 
d="M25 929q-35 -8 -50 -5t-9 15t35 31.5t84 45.5q-24 -10 -23.5 -9t12 6.5l27 12.5t20.5 10h-1l37 19.5t50 18.5q8 2 24 12l33 21l42.5 26t35.5 12q19 0 27.5 -14t0.5 -47q4 4 20 -1.5l38 -13.5q36 -14 75 -32t60 -39l-1 2q26 -20 53 -20q8 0 16.5 2t18.5 5l-1 -1
q24 11 44.5 26t35.5 28q7 5 15.5 13.5l18.5 18.5l29 27.5t21 14.5q35 8 47.5 -10.5t-1.5 -53.5q-4 -10 -18.5 -28t-34.5 -36.5t-43 -33t-43 -18.5q-11 -2 -15 -2.5t-7 -1.5q-6 -1 -21 -3l-27 -3.5t-14.5 -3t16.5 -1.5h2q-24 -5 -50.5 -1t-52.5 19q-20 13 -49 28t-61 30
l-59 29.5t-47 26.5q-60 -19 -118.5 -39.5t-98.5 -37.5q-20 -8 -36 -16t-27 -14l-24 -13z" />
    <glyph glyph-name="Euro" unicode="&#x20ac;" horiz-adv-x="1576" 
d="M607 709q35 -13 21 -24.5t-60.5 -20.5t-118.5 -15t-152 -6l-22.5 -54.5l-24.5 -63.5q-17 -45 -31.5 -98t-22.5 -116q-1 -11 -1.5 -21.5t-0.5 -20.5q0 -56 18 -104q11 -31 31 -52t43 -35q24 -14 49.5 -21.5t50.5 -11.5q26 -4 49.5 -5t45.5 0q45 2 88.5 8.5t85.5 15.5
q43 9 87 21t89 27q78 25 144 50l124 49q115 49 198 90q85 40 142.5 70l98.5 52l-1 -1l64.5 36.5l45.5 25.5l38.5 21.5l38.5 21.5h-1q32 18 62 17.5t39 -17.5t-7.5 -41.5t-49.5 -41.5q-6 -3 -11 -5l-12 -5q-5 -2 -12.5 -5.5l-19.5 -9l-29 -13.5l-42 -20l-107.5 -51
l-154.5 -72l-104.5 -46l-123.5 -53l-145 -55.5t-172 -57.5q-51 -16 -106.5 -30.5t-113.5 -25.5q-39 -7 -80.5 -12.5t-88.5 -5.5q-25 0 -49 2t-48 6q-37 7 -74.5 23t-69.5 45h1q-33 30 -53 70t-28 84q-6 36 -6 74q0 25 2 49.5t6 47.5q14 85 45 170q9 26 18.5 49.5l19.5 46.5
q-38 1 -71 3.5t-58.5 6t-42.5 9t-22 12.5q-10 14 -10.5 28t6 24.5t19 17t30.5 6.5q14 0 30.5 -5.5t33.5 -19.5q14 -11 43 -17t67 -9q13 28 27 54q-36 1 -68 3.5t-56.5 6.5t-41 9t-20.5 12q-10 14 -10.5 28t6 24.5t19 17t30.5 6.5q14 0 30.5 -5.5t33.5 -19.5q13 -11 41 -17
t66 -9l13.5 24t13.5 23q32 56 62.5 102.5l65.5 97.5l78.5 110.5t106.5 137.5l67 78.5l90 98.5h-1l48.5 48.5t59.5 54.5q15 13 32 26l34 26q20 13 40 24.5t41 19.5q11 3 21 5l15 3h26q26 0 49 -3q24 -4 48.5 -12t45.5 -21q23 -13 40.5 -33t28.5 -42q10 -21 16 -44t8 -44
q1 -8 1.5 -17t0.5 -19q0 -32 -4.5 -62t-10.5 -58q-8 -33 -17.5 -67t-20.5 -64q-22 -60 -44.5 -111.5t-45.5 -96.5l-43 -84l-40 -72q-60 -108 -99 -170l-53 -84v1q-2 -4 -4 -7.5t-4 -5.5q-10 -14 -22.5 -25.5t-25 -18t-23.5 -8t-19 4.5q-16 12 -12 40.5t24 57.5q3 5 7.5 10
t9.5 13l15 21.5l22 32l31 47l43 65.5v-1q2 4 4.5 7t4.5 7q34 54 78 131.5t95 188.5q13 28 26 60t25 69q11 33 21 72t14 81q1 8 1.5 17.5t0.5 16.5q0 11 -1 22.5t-4 24.5q-4 20 -11.5 39t-21.5 33q-14 15 -34.5 25.5t-43.5 15.5q-19 4 -49 6q-7 1 -13 1h-12q-3 0 -9 -1
t-13 -3l2 1q-23 -8 -43 -19.5t-38 -24.5q-17 -11 -35.5 -26.5l-35.5 -30.5l-59 -56.5l-57 -58.5l-93.5 -108t-74.5 -94q-68 -91 -112 -160l-78 -127l-32 -57l-30 -57h19q48 0 94.5 2t83.5 4q43 3 83 7l9 -1q24 -9 24.5 -17t-16.5 -15.5t-49.5 -13.5t-75.5 -10.5t-94.5 -7
t-105.5 -2.5l-13.5 -28l-13.5 -28h14q48 0 94.5 2t83.5 4q43 3 83 7z" />
    <glyph glyph-name="equal" unicode="=" horiz-adv-x="970" 
d="M707 309q24 -8 24.5 -16.5t-17 -16t-51 -13.5t-77.5 -10.5t-96 -7t-107 -2.5q-49 0 -94.5 2t-82 5.5t-61 9.5t-30.5 15q-10 14 -10.5 28t6 24.5t19 17t30.5 6.5q14 0 30.5 -5.5t33.5 -19.5q11 -9 32.5 -14.5t50 -8.5t62 -4.5t68.5 -1.5q48 0 94.5 2t83.5 4q43 3 83 7z
M767 419q24 -9 24.5 -17t-17 -15.5t-51 -13.5t-77.5 -10.5t-96 -7t-107 -2.5q-49 0 -94.5 2t-82 5.5t-61 9.5t-30.5 15q-10 14 -10.5 28t6 24.5t19 17t30.5 6.5q14 0 30.5 -5.5t33.5 -19.5q11 -9 32.5 -14.5t50 -8.5t62 -4.5t68.5 -1.5q48 0 94.5 2t83.5 4q43 3 83 7z" />
    <glyph glyph-name="colon" unicode=":" horiz-adv-x="415" 
d="M283 501q-11 10 -12 24t2.5 27.5t8.5 24t8 13.5v-1q3 3 18 6t34.5 3.5t38 -3t28.5 -13.5t9 -24.5t-7 -28.5t-13.5 -25t-10.5 -14q-4 -3 -17 -5t-29.5 -2t-32.5 4t-25 14zM218 -9h-1v-1v1q-3 -3 -15.5 -6t-27.5 -3.5t-30 2.5t-24 13q-11 10 -13 25t0 29t6 25t7 14v-1
q3 3 12 4t21 -1t24.5 -7.5t22.5 -15.5t14.5 -22.5t6 -23.5t0.5 -20t-4 -12h1z" />
    <glyph glyph-name="semicolon" unicode=";" horiz-adv-x="415" 
d="M46 -297l25 47l26 48.5l32 56.5q33 59 66 112q14 25 27 43t24 26q24 18 30 47q2 15 -1 29t-13 25q-12 14 -28.5 16.5t-27.5 -5.5l-9 -9q-4 -8 -4 -14q0 -1 -1 -2q-2 -2 -2 -3q-3 -3 -7 -24q-1 0 -1 -1q-2 -9 -6 -21.5t-9 -26.5l1 1q-11 -27 -30 -64.5l-42 -79.5h1
l-24 -42l-45.5 -82.5t-28.5 -63t-0.5 -31.5t39.5 11zM297 478q-11 10 -14 28t-2.5 35.5t3.5 31.5t6 17v-1q3 3 10.5 2t18 -1t22 3t22.5 12q43 38 63.5 47.5t25.5 -0.5t-1.5 -32.5t-18 -48.5t-24.5 -49t-21 -32q-4 -3 -15 -9t-24.5 -10t-27.5 -3.5t-23 10.5z" />
    <glyph glyph-name="ellipsis" unicode="&#x2026;" horiz-adv-x="1245" 
d="M633 -9q-3 -3 -20.5 -10.5t-39 -13.5t-42.5 -7.5t-31 8.5q-11 10 -7.5 29.5t12 39t18 35t12.5 18.5v-1q5 5 23 -6t38 -31q19 -20 29.5 -37t7.5 -24zM1048 -9q-3 -3 -18 -8t-34 -8t-37.5 -2t-28.5 11q-11 10 -10 27t7 33.5t13 29.5t10 16v-1q5 5 23 -6t38 -31
q19 -20 29.5 -37t7.5 -24zM218 -9h-1v-1v1q-3 -3 -15.5 -7t-27.5 -5.5t-30 0.5t-24 12q-11 10 -13 26t0 31t6 27t7 15v-1q5 5 23 -6t38 -31q19 -20 29.5 -37t7.5 -24z" />
    <glyph glyph-name="cent" unicode="&#xa2;" horiz-adv-x="936" 
d="M250 69q28 -9 59.5 -14.5t65.5 -8.5q-2 -14 -5 -28t-5 -27q-53 4 -100 14t-89 27h1q-33 13 -61 31t-49 44q-10 12 -17.5 27t-12.5 32v-1q-5 15 -6.5 31t-0.5 30q2 52 15 97t31 80q17 33 39.5 61.5t42.5 46.5q19 17 38.5 30l36.5 24q10 6 39 16.5t66 22.5l77.5 24.5
l74.5 22.5l-10 -50l-10 -51l-58.5 -16.5l-53.5 -15.5t-41 -12.5t-22 -6.5q-9 -3 -20.5 -8t-25.5 -13h1q-16 -10 -34.5 -23t-37.5 -33h1q-20 -21 -38.5 -50.5t-31.5 -69.5q-12 -40 -15 -94q-1 -21 9.5 -43t30.5 -39q23 -20 52 -33.5t64 -23.5zM831 35q-208 -46 -368 -48
q-40 0 -77 3q3 14 5.5 27t5.5 27h9q14 -1 31.5 -1.5t32.5 -0.5q75 0 162.5 11t187.5 35zM593 1046q-12 -29 -25.5 -75t-28.5 -104l27 183.5t18.5 145t7 93t-6.5 28.5q31 43 49.5 28.5t18.5 -69.5q0 -18 -4 -44t-11.5 -56.5t-19 -63.5t-25.5 -66zM603 588q-5 -2 -38 -11
l-77 -21q5 25 9 50l8 50q8 2 15 4t13 4l15.5 4t12.5 4l12 4q23 9 42.5 -1.5t24.5 -29.5q3 -17 -8.5 -33.5t-28.5 -23.5zM375 46l46 250.5l49 253.5l6 2t7 2q1 0 5 2l-45 -261l-46 -251q-5 1 -11 1t-11 1zM386 -10l-28.5 -145.5l-25.5 -124.5t-22 -97.5t-17 -64.5
q0 1 5.5 34.5l15 91.5l22.5 136.5l29 170.5q5 -1 10.5 -1h10.5zM490 651l25 114t24 102l-16.5 -103.5l-17.5 -107.5q-4 -2 -7.5 -2.5t-7.5 -2.5zM292 -446q0 3 1 4v-1z" />
    <glyph glyph-name="florin" unicode="&#x192;" horiz-adv-x="1450" 
d="M73 -993v3q-1 -1 -1 -5q0 -6 -1 -10q-5 -21 -12.5 -40t-16.5 -32.5t-19 -20t-19 -4.5q-14 4 -22 21t-8 43q0 11 1 24t5 29l-1 -1q2 10 5 23l8.5 35.5l14 58l21.5 90.5l-1 -2q10 69 23.5 176.5t31.5 269.5q24 210 37.5 355t21 239.5t10 146l3.5 72.5q0 6 0.5 11.5t0.5 7.5
q3 17 17.5 27.5t34.5 7.5q18 -2 30 -14.5t11 -29.5v-2q-1 -2 -1 -5.5t-1 -6.5q-2 -8 -5.5 -25t-9.5 -51.5t-15 -91t-20.5 -143.5l-26.5 -209.5t-33 -287.5q8 28 15.5 57l15.5 60l47.5 177l56 203.5l68 231l82.5 259.5l81.5 236t76.5 201.5t71.5 170t66.5 142.5
q66 132 125 223t122 158q33 34 69.5 61.5t81.5 44.5l-1 -1q14 6 25.5 9.5t22.5 5.5l-1 -1q8 2 14 3l12 2h9q8 0 20 -5q11 -5 16.5 -14.5t7.5 -16.5l-1 1q3 -11 3 -20t-1 -15q-1 -5 -2 -12t-3 -16v1q-2 -10 -5 -20l-6 -20l-3 -10q-17 -47 -38.5 -98t-48.5 -108.5t-61 -123.5
l-74 -142l-134.5 -248l-107.5 -195l-41 -73t-38 -68l-50 -89.5l-48 -85.5l-62 -112l-68 -121q4 -1 8 -1h8q25 -3 49 -4.5t47 -3.5q21 -1 40.5 -1.5t39.5 -0.5q24 0 46 0.5t44 1.5q78 3 147 10.5t129 18.5q115 20 194.5 43.5t134.5 43.5q57 20 90.5 35.5l59.5 27.5l48 22.5
t48 24.5q40 20 74 23.5t43 -14.5q4 -8 0.5 -19.5t-13.5 -24.5t-26 -25.5t-36 -22.5q-11 -6 -19 -9.5t-23 -9.5l1 1l-12 -5t-15 -6h1l-41.5 -16.5l-60.5 -23.5q-55 -20 -143.5 -47.5t-218.5 -52.5q-66 -12 -146.5 -22t-174.5 -14q-22 -1 -45 -1.5t-46 -0.5q-54 0 -112 3
l-55.5 4t-57.5 5l-21 3q-9 2 -24 4.5t-25 4.5q-5 10 -7 15t-2.5 6.5t-1 2t-1.5 2.5l4 16l5 11l9 15q4 6 7.5 12l7.5 13l139 249.5l153 289.5l171 329l185 374l53 117.5t41 102.5v-1q2 5 3 10t3 10q-9 -2 -17 -4.5t-15 -5.5q-30 -14 -58 -35.5t-54 -45.5v1q-24 -24 -47 -50.5
t-46 -57.5q-45 -62 -91.5 -141.5t-101.5 -194.5l-56.5 -126t-60.5 -148t-64 -174.5l-68 -204.5q-72 -226 -123.5 -414l-90.5 -343q-38 -153 -65.5 -277.5l-48.5 -218.5l-40 -190l-25 -124z" />
    <glyph glyph-name="dagger" unicode="&#x2020;" horiz-adv-x="689" 
d="M324 826q-2 -14 -5 -27l-6 -27h-33q-49 0 -94.5 2t-82 5.5t-61 9.5t-30.5 15q-10 14 -10.5 28t6 24.5t19 17t30.5 6.5q14 0 30.5 -5.5t33.5 -19.5q10 -8 31 -13.5t48 -9t59 -5t65 -1.5zM313 772h17l-37 -215.5l-38.5 -212l-37.5 -197.5l-34 -171t-29 -134t-22 -85
q0 1 7 45.5t20 120.5l30 176.5l37 213l42 230.5t45 229zM432 1245q-12 -29 -25.5 -75t-28.5 -104l27 183.5t18.5 145t7 93t-6.5 28.5q31 43 49.5 28.5t18.5 -69.5q0 -18 -4 -44t-11.5 -56.5t-19 -63.5t-25.5 -66zM604 838q33 -12 22.5 -23t-51.5 -20t-105.5 -15t-139.5 -8
l9 54q48 0 93.5 2t81.5 4q42 3 81 7zM378 1066q-8 -57 -18 -117l-21 -123h-5h-10l27.5 127zM131 -247q0 3 1 4v-1z" />
    <glyph glyph-name="backslash" unicode="\" horiz-adv-x="771" 
d="M717 -390q12 -55 14.5 -78.5t-4.5 -20.5t-23 29t-41 71l-25.5 42l-36.5 57l-54.5 82l-66 94.5l-75 103l-80.5 108.5l-98.5 130.5l-97.5 127.5l-105.5 138.5l-89.5 120t-63 89.5t-27 48q-6 37 12 47t47 -6.5t63 -59.5t61 -111l-1 1q12 -28 44 -78t76 -113l96 -133.5
l104 -139.5l35.5 -47.5l35.5 -47.5l119.5 -164.5t97.5 -142.5l33 -54.5l26 -45.5l22 -43z" />
    <glyph glyph-name="daggerdbl" unicode="&#x2021;" horiz-adv-x="678" 
d="M272 323q-2 -14 -5 -27t-5 -26q-14 -1 -28.5 -1h-29.5q-49 0 -94.5 2t-82 5.5t-61 9.5t-30.5 15q-10 14 -10.5 28t6 24.5t19 17t30.5 6.5q14 0 30.5 -5.5t33.5 -19.5q11 -9 32.5 -14.5t50 -8.5t62 -4.5t68.5 -1.5h14zM393 941l-6 -27l-6 -27h-46q-49 0 -94.5 2t-82 5.5
t-61 9.5t-30.5 15q-10 14 -10.5 28t6 24.5t19 17t30.5 6.5q14 0 30.5 -5.5t33.5 -19.5q11 -9 32.5 -14.5t50 -8.5t62 -4.5t68.5 -1.5h4zM476 1245q-12 -29 -25.5 -75t-28.5 -104l27 183.5t18.5 145t7 93t-6.5 28.5q31 43 49.5 28.5t18.5 -69.5q0 -18 -4 -44t-11.5 -56.5
t-19 -63.5t-25.5 -66zM659 953q33 -12 23 -22.5t-50 -19.5t-102.5 -15t-135.5 -8q2 14 4 26.5t4 26.5q46 0 90.5 2.5l79.5 4.5q41 3 78 6zM528 335q31 -11 23 -21.5t-44 -19.5t-94.5 -15t-127.5 -9q2 14 4.5 26.5l5.5 26.5q43 1 83 3t72 4q37 3 69 6zM381 887q3 0 6 0.5
t7 0.5l-48.5 -283.5l-50.5 -281.5h-23l53 287.5t56 276.5zM262 270h23l-33.5 -173l-30.5 -149t-25.5 -116t-19.5 -75q0 1 6.5 41.5l18 110.5l27.5 163zM422 1066l-10 -61.5l-10 -63.5h-9l15 65zM175 -247q0 3 1 4v-1z" />
    <glyph glyph-name="perthousand" unicode="&#x2030;" horiz-adv-x="736" 
d="M205 -156q2 5 5 8.5t5 6.5l8.5 14.5t10.5 15.5q8 12 26 32t53 40v1q16 9 36.5 16t45.5 9q23 2 49.5 -1t50.5 -12h-1q49 -16 91 -49q8 -6 15 -12t15 -12q2 -2 5 -4.5t5 -4.5q9 12 27 31.5t51 37.5v1q16 9 36.5 16t45.5 9q23 2 49.5 -1t50.5 -12h-1q49 -16 91 -49
q8 -6 15 -12t15 -12q2 -2 5.5 -5t5.5 -5l9.5 -9.5t9.5 -10.5q7 -8 11 -16t7 -13v1q1 -2 2 -4.5t2 -4.5q8 -21 8 -44q0 -21 -7 -39v1q-8 -22 -22 -38t-30 -26q-30 -18 -58 -24.5t-54 -10.5q-32 -3 -63 -3q-8 0 -17.5 0.5t-17.5 0.5q-23 1 -45.5 4.5t-45.5 8.5q-20 5 -40 13
t-37 20l-12 -9q-30 -18 -58 -24.5t-54 -10.5q-32 -3 -63 -3q-8 0 -17.5 0.5t-17.5 0.5q-23 1 -45.5 4.5t-45.5 8.5q-22 6 -44 15t-40 24q-20 17 -30.5 40t-10.5 43q0 21 5 35t10 23zM9 636q2 5 5 8.5t5 6.5q4 6 8.5 13.5t10.5 16.5q8 12 26 32t53 40v1q16 9 36.5 16t45.5 9
q23 2 49.5 -1t50.5 -12h-1q49 -16 91 -49q8 -6 15 -12t15 -12q2 -2 5.5 -5t5.5 -5l9.5 -9.5t9.5 -10.5q7 -8 11 -16t7 -13v1q1 -2 2 -4.5t2 -4.5q8 -21 8 -44q0 -21 -7 -39v1q-8 -22 -22 -38t-30 -26q-30 -18 -58 -24.5t-54 -10.5q-32 -3 -63 -3q-8 0 -17.5 0.5t-17.5 0.5
q-23 1 -45.5 4.5t-45.5 8.5q-22 6 -44 15t-40 24q-20 17 -30.5 40t-10.5 43q0 21 5 35t10 23zM-179 -375q-46 -21 -66 -27.5t-19 1t20.5 27.5l53.5 53q29 27 80 83q61 66 140.5 161l166.5 203v-1l101 126.5l98 124.5l106 134l94.5 117t73.5 86t43 40q32 13 43.5 -2t2 -47
t-41 -74.5t-85.5 -84.5q-26 -20 -65 -61.5t-86.5 -97l-101 -121.5l-107.5 -133v1l-42.5 -52.5l-42.5 -52.5l-129.5 -156t-113.5 -130v1q-26 -29 -47.5 -50l-37.5 -36q-18 -18 -34 -30zM93 669q-5 -5 -8 -8.5t-5 -6.5l4 -4q5 -7 6.5 -17t1.5 -21q0 -3 -0.5 -6.5t-0.5 -6.5
q-1 -6 -1.5 -11.5t-0.5 -9.5q0 -5 2.5 -13.5t11.5 -20.5q11 -16 54 -30h-1q22 -7 50 -10t60 -4q30 0 66 6q17 2 33 7.5t32 16.5q15 11 23 26q4 8 5 18t-1 18q-1 5 -2 9.5t-2 7.5l-1 2q1 -1 -0.5 2l-2.5 5l-2 4t-3 5h-1q-3 4 -10 10t-15 14q-26 24 -56 42.5t-62 27.5
q-21 6 -46 6q-37 0 -66 -13q-21 -10 -37 -22.5t-26 -22.5h1zM675 -218q0 -10 14 -30q11 -16 54 -30h-1q22 -7 50 -10t60 -4q30 0 66 6q17 2 33 7.5t32 16.5q15 11 23 26q4 8 5 18t-1 18q-1 5 -2 9.5t-2 7.5l-1 2q1 -1 -0.5 2l-2.5 5t-2 4.5t-3 4.5h-1q-3 4 -10 10t-15 14
q-26 24 -56 42.5t-62 27.5q-21 6 -46 6q-37 0 -66 -13q-21 -10 -37 -22.5t-26 -22.5h1q-5 -5 -8 -8.5t-5 -5.5q1 -2 2 -2.5t2 -2.5q5 -7 6.5 -17t1.5 -21q0 -3 -0.5 -6.5t-0.5 -6.5q-1 -5 -1.5 -9t-0.5 -7v-1v-8zM289 -123q-5 -5 -8 -8.5t-5 -5.5q1 -2 2 -2.5t2 -2.5
q5 -7 6.5 -17t1.5 -21q0 -3 -0.5 -6.5t-0.5 -6.5q-1 -6 -1.5 -11.5t-0.5 -9.5q0 -5 2.5 -13.5t11.5 -20.5q11 -16 54 -30h-1q22 -7 50 -10t60 -4q30 0 66 6q17 2 33 7.5t32 16.5q-13 23 -13 48q0 21 5 35t10 23q0 1 1 2q-4 3 -7.5 6t-7.5 7q-26 24 -56 42.5t-62 27.5
q-21 6 -46 6q-37 0 -66 -13q-21 -10 -37 -22.5t-26 -22.5h1z" />
    <glyph glyph-name="Scaron" unicode="&#x160;" horiz-adv-x="1539" 
d="M1780 551q14 -5 17 -22t-8 -37q-7 -13 -21.5 -27.5t-34.5 -28.5q-9 -5 -14 -8.5t-16 -9.5l-4 -2q1 1 -4 -1.5l-9 -4.5q-16 -8 -42.5 -19l-69.5 -28q-53 -19 -135 -44t-208 -53l1 1q-32 -8 -66.5 -15l-72.5 -15q-36 -8 -76 -15.5t-82 -16.5l-112 -25t-122 -30
q5 -24 8 -49.5t2 -54.5q-2 -61 -32 -122q-15 -29 -38 -57t-53 -53t-66 -45.5t-76 -35.5q-54 -18 -106.5 -25.5t-99.5 -5.5q-50 1 -94 10.5t-81 29.5q-20 12 -37 29.5t-24 43.5q-6 26 1 48t19 39q22 31 48 52t52 38q51 32 100.5 55t101.5 44h-1q47 19 100 37.5t117 38.5
l60 18h1h2h1l2 1q-10 29 -24 61.5l-25 56.5q-33 66 -68.5 124.5l-74.5 119.5l-63 92l-77 108l-75 105q-2 2 -3.5 5.5t-3.5 5.5l1 -1l-71.5 104t-79.5 128q-21 36 -40.5 78.5t-33.5 92.5q-8 26 -11.5 54.5t0.5 57.5q3 31 18 61t39 53q26 23 53.5 37.5t53.5 24.5
q27 9 55.5 15.5t53.5 11.5q52 8 102 10.5t99 2.5q97 0 182.5 -6t162.5 -21q37 -8 74 -18t72 -26q35 -15 66 -35t54 -44q25 -26 40 -58t20 -64q3 -20 3 -41q0 -20 -2.5 -38.5t-7.5 -35.5q-14 -49 -33 -88t-37 -68q-18 -30 -35.5 -54.5t-31.5 -41.5q-29 -36 -47 -56t-26 -28h1
q-15 -16 -31.5 -27t-31.5 -16t-27 -4.5t-19 8.5q-12 14 0.5 44t40.5 60l-1 -2l17 17q6 6 13.5 14.5l19.5 21.5l21.5 24.5l27.5 33.5v-1l32.5 44.5t34.5 56.5q9 17 17 35.5t15 39.5q6 19 9 42t1 48q-4 23 -15 46.5t-31 43.5q-21 21 -51 38t-65 30q-72 27 -163 40.5t-194 18.5
q-22 1 -48 1.5t-49 0.5q-30 0 -62.5 -1t-64.5 -4q-30 -3 -60.5 -8t-59.5 -13q-28 -8 -56 -20.5t-51 -34.5q-20 -18 -30 -42t-11 -49q-2 -27 3.5 -53t13.5 -51v1q18 -51 41 -95t47 -83q45 -73 85.5 -130.5l77.5 -108.5l9.5 -13t9.5 -12l42 -57l116.5 -158.5t90.5 -132.5
q23 -34 45 -70.5t39 -72.5q14 -26 26 -54t23 -60q113 31 209.5 54t175.5 40q20 5 39 8t37 8q106 25 183 47.5t131 42.5q46 17 82.5 33t58.5 27q23 11 42.5 22.5t41.5 26.5q14 9 27 16.5t23 12.5q14 6 24 8.5t21 -2.5zM603 -45q15 27 20.5 54.5t5.5 53.5q0 18 -2 34.5
t-5 32.5q-20 -5 -40 -11.5l-41 -13.5q-59 -17 -123.5 -40.5t-128.5 -52.5q-30 -14 -62.5 -31t-64.5 -39l-28.5 -20.5t-28.5 -24.5q-12 -11 -22.5 -24t-13.5 -25q-5 -23 14 -36q11 -10 28.5 -16.5t34.5 -11.5q22 -5 45.5 -7.5t48.5 -2.5q17 0 35 1.5t37 3.5h-1q42 5 84 18.5
t83 35.5v-1q38 21 71 51.5t54 71.5zM1172 2317q34 11 47.5 9t8 -14t-28 -34t-61.5 -51q-38 -29 -93 -66t-121 -72h1q-32 -18 -72 -33l1 1q-12 -5 -22.5 -8.5t-21.5 -5.5q-1 0 -3 -0.5t-4 -0.5h2q-6 -1 -12 -1.5t-14 0.5q-5 0 -11.5 1t-11.5 3q-2 1 -3 1t-3 1q-5 2 -7 3
q-24 13 -40 28t-28 29q-13 14 -23 28l-18 26q-35 54 -50 98.5t-10 61.5q10 26 30.5 27t41.5 -18q15 -14 25.5 -39.5t12.5 -60.5q0 -8 4.5 -21.5t10.5 -26.5q8 -15 20 -33t29 -35q2 -2 6 -4.5l9 -5.5q4 -4 12 -7q5 -1 12 -1q14 1 26.5 4.5t25.5 8.5q23 9 47.5 21.5l50.5 26.5
v-1q47 27 88.5 55t72.5 51q36 26 67 51z" />
    <glyph glyph-name="fi" unicode="&#xfb01;" horiz-adv-x="3290" 
d="M73 -993v3q-1 -1 -1 -5q0 -6 -1 -10q-5 -21 -12.5 -40t-16.5 -32.5t-19 -20t-19 -4.5q-14 4 -22 21t-8 43q0 11 1 24t5 29l-1 -1q2 10 5 23l8.5 35.5l14 58l21.5 90.5l-1 -2q10 69 23.5 176.5t31.5 269.5q24 210 37.5 355t21 239.5t10 146l3.5 72.5q0 6 0.5 11.5t0.5 7.5
q3 17 17.5 27.5t34.5 7.5q18 -2 30 -14.5t11 -29.5v-2q-1 -2 -1 -5.5t-1 -6.5q-2 -8 -5.5 -25t-9.5 -51.5t-15 -91t-20.5 -143.5l-26.5 -209.5t-33 -287.5q8 28 15.5 57l15.5 60l47.5 177l56 203.5l68 231l82.5 259.5l81.5 236t76.5 201.5t71.5 170t66.5 142.5
q66 132 125 223t122 158q33 34 69.5 61.5t81.5 44.5l-1 -1q14 6 25.5 9.5t22.5 5.5l-1 -1q8 2 14 3l12 2h9q8 0 20 -5q11 -5 16.5 -14.5t7.5 -16.5l-1 1q3 -11 3 -20t-1 -15q-1 -5 -2 -12t-3 -16v1q-2 -10 -5 -20l-6 -20l-3 -10q-17 -47 -38.5 -98t-48.5 -108.5t-61 -123.5
l-74 -142l-134.5 -248l-107.5 -195l-41 -73t-38 -68l-50 -89.5l-48 -85.5l-62 -112l-68 -121q4 -1 8 -1h8q25 -3 49 -4.5t47 -3.5q21 -1 40.5 -1.5t39.5 -0.5q24 0 46 0.5t44 1.5q78 3 147 10.5t129 18.5q115 20 194.5 43.5t134.5 43.5q57 20 90.5 35.5l59.5 27.5l48 22.5
t48 24.5q40 20 74 23.5t43 -14.5q4 -8 0.5 -19.5t-13.5 -24.5t-26 -25.5t-36 -22.5q-11 -6 -19 -9.5t-23 -9.5l1 1l-12 -5t-15 -6h1l-41.5 -16.5l-60.5 -23.5q-55 -20 -143.5 -47.5t-218.5 -52.5q-66 -12 -146.5 -22t-174.5 -14q-22 -1 -45 -1.5t-46 -0.5q-54 0 -112 3
l-55.5 4t-57.5 5l-21 3q-9 2 -24 4.5t-25 4.5q-5 10 -7 15t-2.5 6.5t-1 2t-1.5 2.5l4 16l5 11l9 15q4 6 7.5 12l7.5 13l139 249.5l153 289.5l171 329l185 374l53 117.5t41 102.5v-1q2 5 3 10t3 10q-9 -2 -17 -4.5t-15 -5.5q-30 -14 -58 -35.5t-54 -45.5v1q-24 -24 -47 -50.5
t-46 -57.5q-45 -62 -91.5 -141.5t-101.5 -194.5l-56.5 -126t-60.5 -148t-64 -174.5l-68 -204.5q-72 -226 -123.5 -414l-90.5 -343q-38 -153 -65.5 -277.5l-48.5 -218.5l-40 -190l-25 -124zM3542 528q8 -17 -1 -36t-29 -28q-5 -2 -8 -3.5t-8 -2.5l1 1q-3 -1 -9 -2.5t-18 -5.5
l-32 -11l-53 -19l-111.5 -41.5l-170.5 -63.5l-243.5 -88.5t-333.5 -109.5q-195 -58 -356 -91.5t-297 -36.5q-68 -1 -129.5 8.5t-112.5 38.5q-26 15 -47 34.5t-34 42.5q-14 23 -21 47.5t-9 44.5q-3 43 3 78t13 64q10 35 17 54.5t13 33.5q11 29 20.5 47t14.5 26
q12 20 32.5 26.5t36.5 -4.5q14 -11 18 -29.5t-5 -35.5q-4 -9 -4.5 -10t-2.5 -3l-7.5 -12l-11.5 -18q-7 -10 -13 -22l-14 -28q-8 -18 -16.5 -41t-15.5 -52q-3 -14 -5 -30t-2 -34q1 -18 4.5 -36t13.5 -34q10 -17 26.5 -32.5t39.5 -27.5q24 -12 52 -19.5t60 -11.5q43 -6 91 -6
q50 0 105.5 5.5t118.5 15.5q90 15 194 41t214 58l158.5 50.5l145 50.5l127.5 47.5l105 40.5l158.5 65l109.5 48h-1q50 23 76 36.5l42 21.5l21.5 10.5t21.5 9.5q21 8 40.5 2t27.5 -23zM2015 1043q-16 -2 -30 -3.5t-28 -3.5q-56 -7 -94 -10.5t-62 -3.5q-37 0 -51 10t-16 33
q-2 20 7 34t21 14h4.5t7.5 -2l-2 1q7 -2 28.5 -4t76.5 -2q43 0 109.5 2t166.5 8q81 5 131.5 10t80 9.5t43.5 8t21 6.5q10 3 18 4q6 2 13.5 4t14 0.5t11.5 -7.5t6 -20q1 -18 -10.5 -28.5t-35.5 -17t-60.5 -10.5t-85.5 -7l-124.5 -9t-160.5 -16z" />
    <glyph glyph-name="fl" unicode="&#xfb02;" horiz-adv-x="2939" 
d="M73 -993v3q-1 -1 -1 -5q0 -6 -1 -10q-5 -21 -12.5 -40t-16.5 -32.5t-19 -20t-19 -4.5q-14 4 -22 21t-8 43q0 11 1 24t5 29l-1 -1q2 10 5 23l8.5 35.5l14 58l21.5 90.5l-1 -2q10 69 23.5 176.5t31.5 269.5q24 210 37.5 355t21 239.5t10 146l3.5 72.5q0 6 0.5 11.5t0.5 7.5
q3 17 17.5 27.5t34.5 7.5q18 -2 30 -14.5t11 -29.5v-2q-1 -2 -1 -5.5t-1 -6.5q-2 -8 -5.5 -25t-9.5 -51.5t-15 -91t-20.5 -143.5l-26.5 -209.5t-33 -287.5q8 28 15.5 57l15.5 60l47.5 177l56 203.5l68 231l82.5 259.5l81.5 236t76.5 201.5t71.5 170t66.5 142.5
q66 132 125 223t122 158q33 34 69.5 61.5t81.5 44.5l-1 -1q14 6 25.5 9.5t22.5 5.5l-1 -1q8 2 14 3l12 2h9q8 0 20 -5q11 -5 16.5 -14.5t7.5 -16.5l-1 1q3 -11 3 -20t-1 -15q-1 -5 -2 -12t-3 -16v1q-2 -10 -5 -20l-6 -20l-3 -10q-17 -47 -38.5 -98t-48.5 -108.5t-61 -123.5
l-74 -142l-134.5 -248l-107.5 -195l-41 -73t-38 -68l-50 -89.5l-48 -85.5l-62 -112l-68 -121q4 -1 8 -1h8q25 -3 49 -4.5t47 -3.5q21 -1 40.5 -1.5t39.5 -0.5q24 0 46 0.5t44 1.5q78 3 147 10.5t129 18.5q115 20 194.5 43.5t134.5 43.5q57 20 90.5 35.5l59.5 27.5l48 22.5
t48 24.5q40 20 74 23.5t43 -14.5q4 -8 0.5 -19.5t-13.5 -24.5t-26 -25.5t-36 -22.5q-11 -6 -19 -9.5t-23 -9.5l1 1l-12 -5t-15 -6h1l-41.5 -16.5l-60.5 -23.5q-55 -20 -143.5 -47.5t-218.5 -52.5q-66 -12 -146.5 -22t-174.5 -14q-22 -1 -45 -1.5t-46 -0.5q-54 0 -112 3
l-55.5 4t-57.5 5l-21 3q-9 2 -24 4.5t-25 4.5q-5 10 -7 15t-2.5 6.5t-1 2t-1.5 2.5l4 16l5 11l9 15q4 6 7.5 12l7.5 13l139 249.5l153 289.5l171 329l185 374l53 117.5t41 102.5v-1q2 5 3 10t3 10q-9 -2 -17 -4.5t-15 -5.5q-30 -14 -58 -35.5t-54 -45.5v1q-24 -24 -47 -50.5
t-46 -57.5q-45 -62 -91.5 -141.5t-101.5 -194.5l-56.5 -126t-60.5 -148t-64 -174.5l-68 -204.5q-72 -226 -123.5 -414l-90.5 -343q-38 -153 -65.5 -277.5l-48.5 -218.5l-40 -190l-25 -124zM3187 529q11 -17 -6 -42.5t-52 -45.5q-7 -4 -15 -8l-20 -10q-5 -2 -10.5 -5
l-12.5 -7l-64 -29l-105 -46l-159.5 -65.5t-230.5 -84.5q-66 -23 -146.5 -48.5l-169.5 -51.5l-93.5 -26l-100.5 -26q-54 -13 -112.5 -25.5t-112.5 -21.5q-14 -2 -28.5 -3.5t-27.5 -3.5q-4 0 -8.5 -0.5t-7.5 -0.5h-13q-2 0 -4 0.5t-4 0.5q-6 0 -12 0.5t-14 3.5
q-20 14 -29.5 26.5t-15.5 26.5q-5 13 -8.5 26t-5.5 26q-2 16 -3 31.5t-1 32.5q0 34 3 64t7 58q4 29 7.5 50t7.5 40l8 37l9 41q-19 -5 -34 -1.5t-20 14.5q-9 17 7 41.5t44 47.5q3 3 5 3.5t4 2.5l-2 -1q5 3 9.5 6t12.5 9q2 2 3 2.5t3 2.5q30 111 55.5 194.5l48.5 152.5
l46.5 136.5t53.5 142.5l72 172t107 225l85 156t84 127l5 5l20.5 23.5t24.5 20.5q7 4 14 7.5t13 4.5q9 2 16.5 0.5t15.5 -5.5q14 -8 20.5 -19t9.5 -21q5 -18 6.5 -34t0.5 -31q0 -16 -1 -29.5t-3 -25.5q-6 -49 -17 -96.5t-25 -95.5q-13 -46 -28 -93.5t-34 -99.5
q-62 -166 -122.5 -288.5t-112.5 -210.5q-54 -92 -95 -150t-71 -96q-29 -36 -52.5 -61.5l-43.5 -45.5l-29 -28t-28 -24q0 -1 -0.5 -2.5t-0.5 -2.5l1 1q-1 -4 -2.5 -7.5t-2.5 -8.5q-12 -48 -24 -109.5t-20 -132.5q-2 -15 -2.5 -32t-0.5 -33q0 -21 1.5 -41t6.5 -39
q3 -16 16 -33l4 -4q20 -2 42 0.5t44 6.5q96 17 185 40t163 44h-1q79 23 149 46t133 46q127 45 223.5 83t171.5 71q121 54 186.5 88.5l91.5 48.5h-1q5 3 6 3t3 2q37 21 69 24t42 -15zM1796 774q-11 -29 -22 -61.5t-22 -69.5q32 33 77 86.5t104 141.5q60 90 133 229t144 323
q20 53 37.5 111t31.5 115q7 29 12.5 61t9.5 65t3 65q0 10 -3 25q-7 -6 -14 -16q-9 -11 -19.5 -26l-21.5 -32q-20 -32 -39 -66.5l-37 -69.5q-38 -73 -74 -151l-74 -163q-47 -107 -79 -187l-58 -144q-2 -5 -3 -9t-3 -8l-42.5 -109.5t-40.5 -109.5zM2310 1872l-1 -1z" />
    <glyph glyph-name="Lslash" unicode="&#x141;" horiz-adv-x="1758" 
d="M496 568q-84 -40 -162 -73q-33 -14 -68.5 -27.5t-69 -25t-63.5 -19t-53 -9.5q54 26 120 54t127.5 50.5t110 37t67.5 14.5zM48 416q14 -3 32 -2q-30 -14 -54.5 -27.5t-40.5 -24.5t-22 -19.5t0 -12.5q-18 12 -22.5 28t2 30.5t23.5 24t44 9.5q9 0 18.5 -1t19.5 -5zM1917 521
q23 20 47 24t38 -11q13 -14 5 -38.5t-29 -44.5q-5 -5 -9 -8t-8 -5v1q-8 -5 -22.5 -17l-47.5 -38l-13 -10.5l-15 -11.5l-62 -48.5t-87 -65.5l-72.5 -50t-91.5 -56q-51 -28 -112 -56t-135 -45q-34 -8 -71 -12.5t-78 -4.5q-8 0 -15 0.5t-15 0.5q-26 1 -50.5 4.5t-49.5 8.5
q-24 5 -47.5 9t-49.5 8q-42 5 -86.5 8t-89.5 3q-131 0 -287 -21q-63 -8 -111.5 -15.5t-89.5 -14.5l-27 -4l-26 -4l-60.5 -9.5l-57.5 -9.5q-15 -2 -30.5 -5t-31.5 -5q-3 0 -5 -0.5t-3 -0.5q-3 -1 -8.5 -1.5t-8.5 -1.5l-17 -2q-1 2 -11.5 19.5l-19.5 33.5l11 12l2 4q1 2 2.5 4
t2.5 4l13.5 22l12.5 22q16 27 30 56l29 61q30 66 67 168.5t75 226.5q39 131 69.5 248.5l52.5 208.5q23 94 38.5 167.5l27.5 130.5q16 74 25.5 122l14.5 75q6 27 7 35q5 31 23.5 49.5t36.5 14.5t28 -28t4 -53q-2 -7 -4 -16.5t-7 -26.5l-13 -49l-21 -82l-30 -119l-44 -170l1 1
l-4 -14l-4 -14l-60 -219.5t-84 -278.5q-48 -149 -91 -261t-80 -193l-20.5 -44.5t-15.5 -30.5v2q-2 -3 -2.5 -5.5t-2.5 -5.5q5 2 9 2.5t8 1.5q11 2 22 5t22 5v-1l101 22.5t107 21.5q54 9 137.5 20t176.5 14h44q61 0 112 -3.5t95.5 -9.5t82 -13.5t71.5 -15.5q33 -8 65.5 -11.5
t65.5 -3.5q64 0 135 18q59 15 107.5 38t90.5 46q40 23 74 46.5t63 45.5q59 44 96.5 76l63.5 55t42 39.5t29 28.5v-1q14 14 25 24z" />
    <glyph glyph-name="lslash" unicode="&#x142;" horiz-adv-x="1489" 
d="M702 1080q-84 -40 -162 -73q-33 -14 -68.5 -27.5t-69 -25t-63.5 -19t-53 -9.5q54 26 120 54t127.5 50.5t110 37t67.5 14.5zM254 928q14 -3 32 -2q-30 -14 -54.5 -27.5t-40.5 -24.5t-22 -19.5t0 -12.5q-18 12 -22.5 28t2 30.5t23.5 24t44 9.5q9 0 18.5 -1t19.5 -5z
M1737 529q11 -17 -6 -42.5t-52 -45.5q-7 -4 -15 -8l-20 -10q-5 -2 -10.5 -5l-12.5 -7l-64 -29l-105 -46l-159.5 -65.5t-230.5 -84.5q-66 -23 -146.5 -48.5l-169.5 -51.5l-93.5 -26l-100.5 -26q-54 -13 -112.5 -25.5t-112.5 -21.5q-14 -2 -28.5 -3.5t-27.5 -3.5
q-4 0 -8.5 -0.5t-7.5 -0.5h-13q-2 0 -4 0.5t-4 0.5q-6 0 -12 0.5t-14 3.5q-20 14 -29.5 26.5t-15.5 26.5q-5 13 -8.5 26t-5.5 26q-2 16 -3 31.5t-1 32.5q0 34 3 64t7 58q4 29 7.5 50t7.5 40l8 37l9 41q-19 -5 -34 -1.5t-20 14.5q-9 17 7 41.5t44 47.5q3 3 5 3.5t4 2.5l-2 -1
q5 3 9.5 6t12.5 9q2 2 3 2.5t3 2.5q30 111 55.5 194.5l48.5 152.5l46.5 136.5t53.5 142.5l72 172t107 225l85 156t84 127l5 5l20.5 23.5t24.5 20.5q7 4 14 7.5t13 4.5q9 2 16.5 0.5t15.5 -5.5q14 -8 20.5 -19t9.5 -21q5 -18 6.5 -34t0.5 -31q0 -16 -1 -29.5t-3 -25.5
q-6 -49 -17 -96.5t-25 -95.5q-13 -46 -28 -93.5t-34 -99.5q-62 -166 -122.5 -288.5t-112.5 -210.5q-54 -92 -95 -150t-71 -96q-29 -36 -52.5 -61.5l-43.5 -45.5l-29 -28t-28 -24q0 -1 -0.5 -2.5t-0.5 -2.5l1 1q-1 -4 -2.5 -7.5t-2.5 -8.5q-12 -48 -24 -109.5t-20 -132.5
q-2 -15 -2.5 -32t-0.5 -33q0 -21 1.5 -41t6.5 -39q3 -16 16 -33l4 -4q20 -2 42 0.5t44 6.5q96 17 185 40t163 44h-1q79 23 149 46t133 46q127 45 223.5 83t171.5 71q121 54 186.5 88.5l91.5 48.5h-1q5 3 6 3t3 2q37 21 69 24t42 -15zM346 774q-11 -29 -22 -61.5t-22 -69.5
q32 33 77 86.5t104 141.5q60 90 133 229t144 323q20 53 37.5 111t31.5 115q7 29 12.5 61t9.5 65t3 65q0 10 -3 25q-7 -6 -14 -16q-9 -11 -19.5 -26l-21.5 -32q-20 -32 -39 -66.5l-37 -69.5q-38 -73 -74 -151l-74 -163q-47 -107 -79 -187l-58 -144q-2 -5 -3 -9t-3 -8
l-42.5 -109.5t-40.5 -109.5zM860 1872l-1 -1z" />
    <glyph glyph-name="Zcaron" unicode="&#x17d;" horiz-adv-x="1464" 
d="M1700 533q7 -6 8.5 -17t-2.5 -25.5t-13.5 -30.5t-23.5 -31q-6 -6 -11 -11.5t-12 -10.5q-2 -2 -4 -3.5t-4 -3.5q-3 -2 -12 -11l-30.5 -29.5l-39 -36l-40.5 -37t-36 -31.5q-17 -16 -43.5 -36l-59.5 -44l-76.5 -50.5t-92.5 -52.5q-50 -25 -119 -51.5t-145 -46.5
q-63 -17 -137.5 -26.5t-156.5 -9.5q-42 0 -84 3q-106 6 -231 29t-256 61l-14.5 -10l-15.5 -10h1q-14 -10 -29.5 -19t-32.5 -17q-18 -8 -38.5 -13.5t-45.5 -4.5q-37 2 -64 24l1 -1q-26 20 -38 46q-5 11 -9.5 22t-9.5 29v-2q-5 14 -6.5 28.5t4.5 30.5q6 14 16 21t20 9
q8 2 13.5 2h10.5h5q11 -1 22 -3.5t22 -4.5l28.5 -7.5t27.5 -8.5q4 -1 11.5 -3.5l10.5 -3.5l30.5 -11t29.5 -10l17 -5l8.5 7l8.5 7l-1 -1q6 5 12 11t13 11q46 43 81.5 80l63.5 68l55 63.5l48 57.5l84.5 101.5l79.5 100.5l57 75l65.5 88.5l77.5 108l92.5 133.5l111.5 164.5
l135 201.5q-26 -10 -51.5 -18.5l-49.5 -16.5q-82 -26 -157.5 -45l-144.5 -35q-136 -31 -243 -51.5l-190 -35.5q-74 -14 -130 -23.5l-96 -16l-65.5 -10.5l-38.5 -6q-4 -2 -10 -2q-19 -3 -37 -1.5t-32 6t-23 11.5t-10 17q-2 20 23.5 37t65.5 23q6 1 13 1.5t17 1.5q12 1 29 3
t43 5.5l62.5 8.5l87.5 12l176 27.5t245 42.5l154 31t176 43q45 12 93 27t102 36l-1 -1l23 10t27 13q1 1 4.5 2.5t5.5 2.5q2 3 7 8q2 4 6.5 11.5t5.5 9.5l29 -12l7 -7t6 -10q9 -6 9.5 -13t-4 -13t-12.5 -8.5t-17 0.5l13 -5q-1 0 -1.5 -1t-1.5 -1l9 2q-2 -1 -2.5 -1.5
t-2.5 -1.5q-1 -1 -1.5 -1t-1.5 -1q-5 -3 -7 -4q-3 -5 -7 -10t-7 -10v1l-42 -60h1l-157.5 -231l-129 -189l-106.5 -153l-87.5 -124.5l-73.5 -103.5l-64 -88l-90 -119t-101 -122l-62 -67t-75 -73q-6 -6 -10 -9q14 -5 28 -8.5t28 -7.5q46 -13 95 -24t96 -19t98 -14t105 -8
q11 0 21 -0.5t21 -0.5q75 0 142.5 8.5t127.5 22.5l-1 -1q66 16 121 36t102 42h-1q90 44 148.5 85t97.5 73v-1q38 32 62 55l41 40h-1q8 9 27.5 28l40.5 40l39.5 39.5t27.5 28.5v-1q27 29 55.5 41.5t42.5 -0.5zM-51 45q8 3 16 7t16 9q-22 7 -45 13.5l-46 12.5q-8 2 -16.5 3.5
t-17.5 3.5h-1q3 -9 8 -20q7 -14 14.5 -24t17.5 -13q11 -5 25.5 -2t28.5 10zM1186 2218q34 11 47.5 9t8 -14t-28 -34t-61.5 -51q-38 -29 -93 -66t-121 -72h1q-32 -18 -72 -33l1 1q-12 -5 -22.5 -8.5t-21.5 -5.5q-1 0 -3 -0.5t-4 -0.5h2q-6 -1 -12 -1.5t-14 0.5q-5 0 -11.5 1
t-11.5 3q-2 1 -3 1t-3 1q-5 2 -7 3q-24 13 -40 28t-28 29q-13 14 -23 28l-18 26q-35 54 -50 98.5t-10 61.5q10 26 30.5 27t41.5 -18q15 -14 25.5 -39.5t12.5 -60.5q0 -8 4.5 -21.5t10.5 -26.5q8 -15 20 -33t29 -35q2 -2 6 -4.5l9 -5.5q4 -4 12 -7q5 -1 12 -1q14 1 26.5 4.5
t25.5 8.5q23 9 47.5 21.5l50.5 26.5v-1q47 27 88.5 55t72.5 51q36 26 67 51z" />
    <glyph glyph-name="zcaron" unicode="&#x17e;" horiz-adv-x="1487" 
d="M1731 524q9 -17 -10.5 -43.5t-55.5 -47.5h1q-6 -4 -10.5 -6.5t-12.5 -6.5l-14.5 -7.5l-22.5 -12l-35 -19.5l-51 -30q-38 -23 -91.5 -61.5l-128.5 -92.5l-66 -48q-99 -72 -233 -184.5t-303 -271.5v1q-90 -86 -188 -191t-201 -230l-115 -143l-118 -155l-34 -67.5l-32 -61.5
l-116.5 -207.5l-96.5 -158.5l-14 -20l-13 -20l-19 -28l-12.5 -16.5t-13.5 -16.5q-2 -2 -3.5 -4t-3.5 -4l-3.5 -3.5l-3.5 -3.5l-11 -11t-16 -11t-23 -2q-8 1 -14 5.5t-10 9.5q-4 6 -7 16v5q0 2 0.5 4t0.5 4v6q2 14 7 26l7 20.5t9 20.5l17.5 39t17.5 34q2 2 2.5 4t1.5 4l48 86
t58.5 95.5l72.5 107.5l89 122l40.5 53l38.5 49q10 15 23 29v1q1 0 1 1t1 1l-1 -1l28.5 60t28.5 65q32 75 64 162t60 192q28 104 42.5 202t13.5 189q0 21 -8 44.5t-17 47t-16.5 45t-7 39t12 29.5t40.5 16q10 9 16 12q4 3 8 5.5t7 5.5l9 7.5t8 5.5q3 2 5.5 4t5.5 4l24.5 19
l23.5 19l111 88t93 81v-1q3 3 6 5.5t5 4.5l12 11.5t11 12.5q-11 3 -24 5.5t-25 4.5q-29 5 -56 6.5t-50 1.5q-11 0 -21.5 -0.5t-21.5 -0.5q-32 -1 -58 -3t-48 -4q-29 -2 -48.5 -4.5t-33.5 -4.5q-7 -1 -11.5 -1.5t-9.5 -0.5q-8 -2 -18 -2h-18q-30 0 -50 8.5t-22 25.5
q-3 18 25 36.5t71 23.5q11 2 26.5 3l46.5 3h10.5t11.5 1q23 1 53.5 2.5t71.5 1.5h30t33 -1h4q20 -2 43 -3.5t44 -5.5q2 0 3.5 -0.5t2.5 -0.5l50.5 -11.5t59.5 -26.5l4 -4l4 -3l4 -4q7 -8 9 -17.5t0 -15.5q-3 -20 -12 -30q-6 -11 -11 -17.5t-10 -11.5q-8 -9 -21.5 -21.5
l-28.5 -25.5l-55.5 -47l-60.5 -48l-66 -50.5l-71 -52.5l-19.5 -14.5l-19.5 -13.5h1q-8 -6 -11 -8q-2 -2 -3.5 -2.5t-3.5 -2.5q6 -23 9 -46t5 -46q2 -16 2 -34v-35q0 -95 -16 -198t-48 -217q-23 -85 -49.5 -158t-53.5 -139l77 87l69 76q5 5 9 10t9 10h-1l75.5 81l73.5 77
l76 77l84 82q145 139 261 236.5l205 167.5l70 54.5l61 48.5l73 57.5l59 44.5l70 50l50 38q25 19 47.5 34.5t50.5 32.5q18 10 36 16.5t33.5 8t26.5 -1.5t16 -10zM63 -919l1 1l-1 -2v1zM1022 1192q34 11 47.5 9t8 -14t-28 -34t-61.5 -51q-38 -29 -93 -66t-121 -72h1
q-32 -18 -72 -33l1 1q-12 -5 -22.5 -8.5t-21.5 -5.5q-1 0 -3 -0.5t-4 -0.5h2q-6 -1 -12 -1.5t-14 0.5q-5 0 -11.5 1t-11.5 3q-2 1 -3 1t-3 1q-5 2 -7 3q-24 13 -40 28t-28 29q-13 14 -23 28l-18 26q-35 54 -50 98.5t-10 61.5q10 26 30.5 27t41.5 -18q15 -14 25.5 -39.5
t12.5 -60.5q0 -8 4.5 -21.5t10.5 -26.5q8 -15 20 -33t29 -35q2 -2 6 -4.5l9 -5.5q4 -4 12 -7q5 -1 12 -1q14 1 26.5 4.5t25.5 8.5q23 9 47.5 21.5l50.5 26.5v-1q47 27 88.5 55t72.5 51q36 26 67 51z" />
    <glyph glyph-name="guilsinglleft" unicode="&#x2039;" horiz-adv-x="784" 
d="M519 165q29 -31 35 -44.5t-8.5 -13t-47 14.5t-80.5 39q-23 12 -50.5 28l-57.5 33h-1q-6 4 -12 7.5l-13 7.5l-19 10.5t-19 11.5q-5 2 -8.5 5t-7.5 5l1 -1q-5 2 -10 5.5l-9 6.5l-15 9l1 -1q-2 1 -5 3t-5 3l-14 12v69h39q-7 -8 -22 -31l19 -2l1 -1l10 17q0 3 1.5 9t2 10.5
t-1.5 5.5t-9 -7v29l131.5 76t119.5 64.5t92.5 43.5t51.5 13q26 -7 33 -25.5t-5 -38t-42 -35.5t-77 -17q-20 -1 -59.5 -16.5t-81.5 -35.5l-48.5 -25.5l-50.5 -27.5l-13 -7.5l-13 -7.5l-13.5 -7.5t-12.5 -7.5l-15 -10l12 -6q6 -4 12 -7.5l13 -7.5l99 -59.5l85 -47.5l81 -44z
M179 384q10 48 16.5 64t10.5 12t6 -21t2 -34l-18 -10.5zM213 375l1 1v-1h-1z" />
    <glyph glyph-name="guilsinglright" unicode="&#x203a;" horiz-adv-x="784" 
d="M325 557q-29 31 -35 44.5t8.5 13t47 -14.5t80.5 -39q23 -12 50.5 -28l57.5 -33q6 -4 12.5 -7.5l13.5 -7.5l18.5 -10t18.5 -11q13 -10 15 -11q4 -2 8 -5t9 -5l18 -10l-1 1q2 -1 5 -3t5 -3l14 -12l-1 -69h-37l25 -14l-138.5 -81t-128 -70.5t-100.5 -47.5t-55 -14
q-26 7 -33 25.5t5 38t42 35t77 17.5q20 1 59.5 16.5t81.5 35.5l48.5 25.5l50.5 27.5h-1q6 4 13 7.5t14 7.5l13 7.5l13 7.5q4 2 7 5t7 5l-11 6q-6 4 -12 7.5l-13 7.5l-99.5 59l-84.5 48l-81 44zM633 380l-10 -16q0 -3 -3 -11l-6 -16t-4.5 -13.5t2 -3t13 15.5t28.5 42l-19 2
h-1zM627 350l5 -3h-3z" />
    <glyph glyph-name="asciicircum" unicode="^" horiz-adv-x="819" 
d="M686 473q7 -38 4 -51t-15 -5.5t-31 33t-43 63.5q-2 2 -3 4t-2 3l-25 38.5t-30 43.5l-11 13.5l-12 14.5h-1q-2 -1 -5 -4q-32 -23 -63.5 -40.5l-61.5 -34.5t-60 -31.5l-57 -26.5q-56 -25 -97 -38.5t-55 -8.5q-24 10 -29.5 28.5t6.5 36.5t41 31t73 10q20 -2 53 8.5t75 29.5
l47.5 22.5t45.5 23.5q-8 -3 -6 -1t8.5 5.5l14.5 8l13 7.5q3 2 7.5 4.5t7.5 4.5l10 6.5t10 7.5l10 10l11 -10q0 4 2 4l18 -19q2 4 2 11l-11 18q2 -2 4.5 -3.5t6.5 -4.5q5 -4 9.5 -8.5t11.5 -12.5v1q6 -7 14 -17.5t17 -23.5l26.5 -38.5t22.5 -35.5v1l18 -29l14 -23
q7 -11 12 -20z" />
    <glyph glyph-name="OE" unicode="&#x152;" horiz-adv-x="2355" 
d="M1207 650q3 -35 -11 -60t-34 -24l-14.5 -42.5l-15.5 -43.5q-19 -44 -41 -88.5t-50 -87.5q-29 -45 -65 -90t-81 -87q-45 -41 -102 -77.5t-124 -60.5q-32 -12 -70.5 -20t-74.5 -11q-7 -1 -15.5 -1h-16.5q-31 0 -63.5 4.5t-64.5 13.5q-50 15 -91 38t-71 47q-29 25 -51.5 52
t-38.5 53q-32 54 -46.5 104t-20.5 107q-1 12 -1.5 25.5t-0.5 26.5q0 45 8 101.5t26 121.5q11 43 28 92.5t41 103.5q26 56 59 117t81 126q98 131 211 215q57 41 116 68.5t116 38.5q17 4 37.5 5.5t38.5 1.5q10 0 19.5 -0.5t17.5 -1.5q56 -3 99 -20q47 -17 82 -43.5t58 -55.5
h-1q23 -28 38 -55.5t26 -53.5q11 -29 16.5 -49l9.5 -34q2 -9 4.5 -36l6 -65.5t6.5 -83t6.5 -88.5t6 -82.5t4.5 -64.5q1 -29 3 -36zM1082 515q11 29 19.5 55t15.5 50q-3 10 -3 22q0 2 -1.5 22.5t-3.5 52.5q-3 43 -6.5 100.5l-7 110t-6.5 91.5t-4 47q0 2 -0.5 5.5t-0.5 5.5
q-3 20 -10 50.5t-24 68.5v-1q-11 23 -28.5 47.5t-46.5 47.5q-28 23 -68.5 38.5t-93.5 17.5q-52 4 -112 -12.5t-122 -53.5t-124.5 -94t-120.5 -132q-51 -69 -89 -138.5t-62 -127.5q-24 -59 -39.5 -112.5t-25.5 -102.5v1q-12 -69 -12 -123q0 -47 7.5 -86.5t19.5 -74.5
q20 -48 52.5 -93.5t75.5 -80.5q24 -18 54.5 -34.5t67.5 -27.5q25 -8 54.5 -12.5t62.5 -4.5q15 0 31 1t34 4q72 10 128 35t99 54q43 30 76.5 60.5t58.5 59.5q25 30 47.5 61.5t40.5 61.5q35 61 67 141zM2606 537q7 -7 6.5 -18.5t-6.5 -24.5t-17 -27t-27 -26q-6 -6 -10 -9
t-8 -5t-8.5 -4.5t-12.5 -7.5l-32 -21l-55 -35l-105 -64t-164 -90l-110 -54.5t-131 -58.5l-15.5 -6l-15.5 -6h1l-60.5 -24l-64.5 -24l-89.5 -31t-96.5 -27q-26 -6 -55.5 -10.5t-63.5 -6.5q-15 0 -31.5 0.5t-35.5 5.5t-39 16t-32 32q-10 19 -10 44q0 22 8 44q7 18 16 35t22 32
q23 30 50.5 55t58.5 48q9 7 18.5 13t19.5 13q-100 2 -176 25q-35 11 -68 27t-59 39q-27 23 -47 55.5t-30 67.5q-10 36 -10 73q0 21 2.5 43t7.5 42q9 40 26.5 86.5t41.5 93.5q27 51 62 103.5t80 109.5q46 57 105 117t139 123t161.5 108.5t167.5 63.5q20 5 42 6.5t43 1.5
q42 1 82 -3q20 -3 41 -8.5t40 -15.5q20 -11 37 -27.5t28 -37.5q11 -20 14 -40.5t2 -39.5q0 -18 -2.5 -35.5t-7.5 -34.5q-18 -61 -41 -111t-46 -91.5l-43 -76.5l-52.5 -90l-42.5 -70q-8 -12 -14 -22.5l-12 -20.5q-15 -24 -24.5 -40.5l-15.5 -26.5q-2 -3 -3.5 -6.5t-3.5 -5.5
v1q-19 -33 -43.5 -50t-41.5 -8t-16 40t21 65q5 9 13 21.5l24 36.5l38 57.5l59 89.5l41.5 66l47.5 77q13 22 25 45.5l25 49.5q11 24 22 54t18 61q2 9 3 16.5t1 15.5q0 5 -1 12.5t-4 17.5q-5 26 -28 40q-28 18 -67 24q-43 6 -85 5q-44 0 -89 -12t-91 -34q-45 -21 -92.5 -50.5
t-93.5 -64.5q-83 -66 -149.5 -134.5t-114.5 -131.5q-49 -64 -82.5 -123t-55.5 -115q-34 -88 -34 -157v-16.5t2 -17.5q5 -40 23.5 -70t43.5 -49q26 -20 56 -31t62 -18q34 -8 68.5 -11t72.5 -3t82 2.5t96 9.5h11l5 1q3 0 9 2q11 4 23 7t23 7l42 10.5l43 10.5l22 3l10.5 2
l10.5 2l7 1q9 3 20 1.5t20 -7.5t15 -15t6 -19q0 -12 -9 -24.5t-31 -24.5l-9 -1l-4 -1q-4 -1 -9.5 -2.5t-9.5 -2.5q-39 -8 -86 -16.5t-92 -14.5q-5 -1 -10 -1.5t-10 -1.5q-26 -9 -51.5 -20t-46.5 -22q-57 -29 -101 -62.5t-75 -68.5q-12 -15 -22.5 -34t-14.5 -36
q0 -6 1.5 -13.5t4.5 -11.5q7 -10 24 -15q21 -6 50 -6q7 0 16.5 0.5t17.5 1.5q24 2 48.5 7t47.5 11q32 9 69 21t71 25q3 2 6.5 2.5t7.5 2.5l68 26.5t64 26.5q117 49 207 99q87 45 145.5 81.5l99.5 63.5v-1l48.5 33.5l36.5 26.5l28.5 21.5l24.5 18.5l21 16l22 17q30 23 58 30
t42 -8z" />
    <glyph glyph-name="bullet" unicode="&#x2022;" horiz-adv-x="533" 
d="M46 236q0 22 8.5 42t23.5 35t34.5 23.5t42.5 8.5q22 0 42 -8.5t35 -23.5t23.5 -35t8.5 -42q0 -23 -8.5 -42.5t-23.5 -34.5t-35 -23.5t-42 -8.5q-23 0 -42.5 8.5t-34.5 23.5t-23.5 34.5t-8.5 42.5z" />
    <glyph glyph-name="trademark" unicode="&#x2122;" horiz-adv-x="1243" 
d="M1334 561q9 -9 4 -26t-21 -33l-15 -15l-13.5 -13.5t-25.5 -22.5l-3 -3q-8 -8 -18 -16.5l-22 -18.5v1q-7 -6 -13.5 -11l-11.5 -9q-2 -2 -4 -3t-4 -3l1 1q-1 -1 -2 -1t-1 -1q-20 -15 -43 -25q-12 -7 -29 -10q-8 -2 -18.5 -2t-21.5 3q-13 3 -22.5 11.5t-15.5 19.5
q-11 19 -14 39q-2 11 -3 24t-1 26v17t1 17q1 21 3.5 44.5t6.5 44.5l4 25.5t4 26.5q0 4 1 7l-29 -41t-31 -41l1 1q-2 -2 -3.5 -5t-3.5 -5q-41 -56 -92 -119v1q-11 -15 -22.5 -28.5l-21.5 -25.5q-5 -5 -8.5 -10t-7.5 -10q-1 -1 -2 -2.5t-2 -2.5l-13 -14q-23 10 -33.5 17
t-13 11.5t1 8l8.5 8.5q0 4 3 10q1 2 1 4.5t1 4.5v-1q2 8 4.5 16.5t4.5 16.5v-1l12 48l15 63q8 29 15.5 64l17.5 83q5 24 9.5 51.5l9.5 59.5q1 5 1 11t1 11v-1q2 12 2.5 23.5t1.5 24.5q1 7 0.5 14.5t-1.5 15.5l-18 -18q-5 -5 -8.5 -10.5t-8.5 -10.5l1 1q-2 -3 -4.5 -5.5
t-4.5 -5.5l-44 -63q-6 -10 -12.5 -19.5t-12.5 -19.5q3 0 6 1q5 0 8 0.5t8 1.5q17 3 32 -3.5t17 -17.5q2 -13 -10 -23.5t-31 -13.5h-22q-5 0 -13 -0.5t-20 0.5h-10q-4 -5 -6.5 -10t-5.5 -10q-32 -53 -55 -95l-41 -75l-33.5 -59.5t-21.5 -40.5l-11.5 -22t-7.5 -13
q-11 -17 -25 -26.5t-25 -3.5q-8 8 -8.5 24.5t8.5 35.5q2 3 4.5 8t5.5 10v-1l17 28.5l31 53.5q4 6 7.5 12.5t8.5 14.5l35.5 61.5l46.5 77.5q-1 -1 0.5 2l2.5 5q4 6 7.5 12l7.5 13q-41 2 -101.5 9t-148.5 22h-2l-2 -14.5t-3 -15.5q-5 -34 -12 -74l-9 -51t-12 -58
q-3 -16 -7 -33t-9 -34l-4 -12q-3 -11 -4.5 -16t-3.5 -10v1q-2 -6 -4 -11l-4 -10q-3 -5 -7.5 -11.5t-11.5 -13.5q-5 -3 -11 -5.5t-14 -0.5t-11 4l-6 4q-5 4 -9 8.5t-7 8.5q-7 8 -11.5 16t-9.5 16l1 -1l-15.5 28l-13.5 26l-17 35.5l-15 31.5q-2 4 -4.5 9.5t-4.5 9.5
q-3 5 -6 11.5t-5 11.5v-1l-24.5 51t-21.5 42q-11 23 -22 42.5l-25 43.5q-3 4 -6 10t-4.5 16.5t-0.5 26.5t5 41q-2 1 1.5 0t5.5 -2q3 -1 8 -1.5t9 -1.5l14 -4t15 -4q63 -15 106 -24l78 -16q12 -2 19.5 -3.5l14.5 -3l14.5 -3t18.5 -3.5q1 7 1 13.5t1 11.5l3 30t1 15
q3 19 12.5 31.5t23.5 9.5q11 -2 18 -16t4 -34q-1 -4 -1 -8t-2 -13q-2 -8 -4 -19.5t-4 -30.5q8 0 12 -1l-2 1q111 -18 173 -22t95 -4q7 10 13.5 20.5t14.5 21.5q2 2 6 8l-1 -1l23 35t26 35l15.5 19.5l15.5 20.5q5 5 9.5 10t9.5 10l6 6q5 4 10 8.5t10 6.5q4 2 10 4.5t13 2.5
q15 0 29 -17q5 -10 6.5 -17t2.5 -14q2 -9 1.5 -19t-0.5 -19v-12q-2 -23 -4.5 -44.5t-5.5 -38.5q-5 -36 -11 -69.5l-11 -59.5l-19.5 -94.5l-16.5 -73.5q-1 -2 -1 -4t-1 -4l30 37.5l36 44.5v-1l49 63.5l40 53.5q10 13 17 24t15 22q2 4 4 6q5 8 9.5 16t8.5 18l35 -25l11 8v-13
q-1 -4 -1 -10q0 -3 -0.5 -7.5t-0.5 -6.5q-2 -11 -3.5 -22t-3.5 -22q-1 -9 -1.5 -16t-2.5 -13v1q-2 -14 -4.5 -29t-4.5 -32q-4 -29 -6.5 -55.5t-2.5 -47.5q0 -7 0.5 -16t1.5 -17q2 -13 5.5 -24t8.5 -18q0 2 2.5 0t4.5 -3q7 -1 13 0q17 3 32 13l14 9t14 10q25 19 39 33
l19 17.5l14 13.5l12 12q7 8 15.5 16.5l16.5 16.5q14 17 30.5 22.5t25.5 -0.5zM349 724q2 8 2 15t1 14l-18 3l-46.5 8t-49.5 9q-14 2 -29.5 5l-30.5 6q-11 2 -18.5 4t-19.5 4q-5 2 -12.5 2.5t-15.5 2.5q-3 0 -5 1q2 -2 2.5 -3t-0.5 0l7 -14q5 -10 10 -19t9 -17v1l11.5 -25
l10.5 -23v1q4 -8 7.5 -16t7.5 -16l8 -18l9 -20l13 -30l15 -34v1l17 -34.5l20 -41.5q5 -11 11 -22t13 -22q2 -8 12 -18l1 2l2 4q2 5 3.5 11t3.5 13q4 13 8 28.5l7 27.5v1q5 23 9 44.5t7 41.5q1 4 1 8t1 8v-1l9 58.5t7 49.5zM286 421q1 0 1 1l1 2v-1v1q-1 0 -5 -7q2 0 2 1t1 3
zM872 923q-1 -1 -2 -1q2 0 3 1h-1z" />
    <glyph glyph-name="scaron" unicode="&#x161;" horiz-adv-x="1141" 
d="M1387 527q11 -17 -1 -39.5t-36 -39.5q-4 -2 -7.5 -4t-11.5 -6h2q-8 -5 -25.5 -13.5t-55.5 -31.5l-77 -47l-116.5 -73.5l-164.5 -107.5l-221 -148q-69 -46 -143.5 -101.5l-161.5 -121.5l-168 -130.5l-187 -146.5q-5 -18 -9.5 -36l-9.5 -37q-24 -80 -56 -148t-74 -116
q-22 -24 -46.5 -43t-50.5 -30t-53.5 -17t-50.5 -7q-13 0 -25 1t-23 3q-15 3 -28.5 11.5t-20.5 26.5l1 -1q-7 16 -5 29.5t6 24.5t8.5 19.5t9.5 16.5q19 31 38.5 54.5l38.5 45.5q37 40 76 77l84 76l63 54t78 61l13 70.5t11 65.5q8 57 15 113.5t12 104.5q2 14 3.5 28.5
t3.5 28.5l16.5 142.5t15.5 115.5q20 119 43 179q10 27 21 46.5t16 26.5q19 27 49 35h-1q17 4 29.5 -2t17.5 -16t3.5 -20t-5.5 -21l-8 -14.5t-9 -15.5q-5 -5 -5 -6l-7 -9.5t-9 -17.5q-8 -16 -19 -43.5t-23 -75.5q-12 -47 -24.5 -119.5t-26.5 -179.5q-5 -32 -9 -66
q-6 -40 -12 -85t-14 -93q-2 -7 -2.5 -12.5t-2.5 -12.5q-3 -16 -4 -25l-2 -17.5t-3 -19t-6 -28.5l17.5 13.5l18.5 13.5l129 93l105 74h-1l54 37.5l48 34.5l56.5 39.5l54.5 38.5h-1l62 43.5l67 46.5l181.5 126l138.5 96l110.5 76.5l76.5 55.5l41 29l31 22l34.5 25t34.5 23
q26 17 51.5 17.5t36.5 -15.5v-1zM-158 -757q29 41 52.5 95t41.5 118l-87 -71.5l-68 -58.5q-2 -2 -4.5 -4t-4.5 -4l-62.5 -58t-58.5 -63q-5 -7 -10.5 -16l-10.5 -17q-3 -6 -5 -11t-1 -6q1 -2 9 -3t19 -2q31 -2 63 6q33 8 66 32t61 63zM849 1192q34 11 47.5 9t8 -14t-28 -34
t-61.5 -51q-38 -29 -93 -66t-121 -72h1q-32 -18 -72 -33l1 1q-12 -5 -22.5 -8.5t-21.5 -5.5q-1 0 -3 -0.5t-4 -0.5h2q-6 -1 -12 -1.5t-14 0.5q-5 0 -11.5 1t-11.5 3q-2 1 -3 1t-3 1q-5 2 -7 3q-24 13 -40 28t-28 29q-13 14 -23 28l-18 26q-35 54 -50 98.5t-10 61.5
q10 26 30.5 27t41.5 -18q15 -14 25.5 -39.5t12.5 -60.5q0 -8 4.5 -21.5t10.5 -26.5q8 -15 20 -33t29 -35q2 -2 6 -4.5l9 -5.5q4 -4 12 -7q5 -1 12 -1q14 1 26.5 4.5t25.5 8.5q23 9 47.5 21.5l50.5 26.5v-1q47 27 88.5 55t72.5 51q36 26 67 51z" />
    <glyph glyph-name="oe" unicode="&#x153;" horiz-adv-x="1749" 
d="M534 525q0 -1 -1 -1.5t-1 -1.5l2 9q-1 -2 -2 -3.5t-2 -3.5l1 1l-4 -6l-4 -6l-9 -15t-13 -18l-23.5 -28.5l-46.5 -56.5l-58 -70.5l-59 -71l-49 -58l-27 -31.5l-41.5 -42t-48.5 -39q-14 -9 -30 -17.5t-36 -15.5q-25 -10 -47 -10q-15 0 -25 5h1q-18 9 -26.5 27t-11.5 37
q-4 20 -4 42q0 18 3 39q4 40 11.5 73t21.5 59q12 26 27.5 44t30.5 30q14 12 28.5 20.5t27.5 13.5q38 14 62 19q2 0 3 0.5t3 0.5q1 0 12.5 -1.5t28 -4.5l36 -6.5l37.5 -6.5q26 -5 45 -8t27 -3q19 4 31.5 17.5t12.5 32.5q0 5 -14.5 12.5t-37 16.5t-49.5 17.5l-51 15.5
t-42.5 11t-23.5 3t-15.5 -3.5t-30.5 -8.5q-19 -6 -46.5 -17.5t-61.5 -35.5l1 1q-17 -12 -35 -28.5t-35 -38.5t-30.5 -49t-22.5 -60v1q-5 -17 -8.5 -34t-5.5 -33q-2 -17 -3.5 -36t-1.5 -40q1 -20 3 -41t9 -44q7 -25 23.5 -49.5t45.5 -38.5h-1q15 -8 33 -9h3q4 -1 10 -1h6t8 1
q24 1 45 9q19 6 38 15t33 18q29 17 53 36.5t41 36.5v-1q13 12 45 48.5l71.5 82.5l80 94l70.5 83q16 18 26.5 31.5t15.5 18.5q2 3 4.5 5.5t4.5 5.5l9 12q2 2 7 9l7 10l-9 33l-18 -18zM581 549h-24q76 43 82 41t-53 -61zM537 549l-22 -5.5t-21 -6.5t-24.5 -9.5l-34.5 -14.5
q-3 -3 -6 -3q-20 -10 -49 -26.5t-62 -46.5q-18 -17 -35 -43t-25 -61q-3 -15 -3 -34q0 -58 31 -118v1q11 -26 27 -44.5t34 -32.5q16 -14 36.5 -27t39.5 -23q40 -21 99 -42t140 -34q38 -6 70.5 -8.5t61.5 -2.5q37 0 64 3q38 4 69 8t61 11l71 17.5t90 24.5l118.5 39t159.5 63
q98 44 169.5 83.5l125.5 71.5l63.5 40l51.5 32l20.5 14.5t18.5 11.5l28.5 19l21.5 14q20 14 28.5 19.5t13.5 9.5q17 14 20 35t-9 35q-11 14 -32 15.5t-38 -12.5l-33.5 -28.5t-77.5 -60.5q-26 -21 -62.5 -47.5t-87.5 -58.5q-48 -32 -109 -67t-137 -72q-76 -35 -133.5 -56
t-101.5 -34h1q-42 -11 -75 -18t-62 -12t-53.5 -7.5t-53.5 -4.5h-5l-64 -4.5t-83 -1.5q-78 2 -145.5 11.5t-124.5 28.5q-29 8 -53.5 20.5t-46.5 26.5q-43 28 -60 63q-25 49 -25 93q0 18 6 36q9 26 25.5 43.5t33.5 28.5q35 24 61.5 33t43.5 14q4 0 8 2q23 5 34 6t16 1h6.5
t7.5 2h-1q20 5 32 20t9 34q-3 20 -20.5 31t-40.5 6z" />
    <glyph glyph-name="Ydieresis" unicode="&#x178;" horiz-adv-x="1253" 
d="M1509 536q11 -17 -7 -44.5t-54 -50.5q-10 -5 -17 -9t-23 -12l-38 -19.5l-68 -35.5l-120.5 -60l-185.5 -87l-122 -53.5l-144 -60.5q-17 -8 -38 -17l-39 -17v1l-133.5 -57.5t-146.5 -68.5l-79 -42t-75 -46q-2 -2 -3.5 -4t-2.5 -4l-10.5 -19t-11.5 -19v1l-50.5 -86.5
l-48.5 -78.5l-45.5 -70t-52.5 -67l-11 -11l-7 -12t-5 -9l-41 39v18q0 9 0.5 16.5t1.5 15.5q2 18 6.5 35.5t9.5 34.5q11 32 27 59.5t34 52.5q29 38 61.5 67t66.5 55l56 103l57 107v-1l105.5 196.5l80.5 149l67 123.5l65 119q2 2 4.5 6t4.5 8l-1 -1l70 132.5l89 171.5
q5 11 11 21.5l12 21.5l-31.5 -32.5l-32.5 -33.5q-76 -78 -150 -146.5t-146 -122.5q-18 -14 -38 -27l-39 -25q-20 -11 -42 -20.5t-48 -13.5h-1q-14 -2 -31 0.5t-33 12.5q-15 10 -24 23t-14 27q-8 23 -10 44.5t-3 41.5q0 42 3.5 77t8.5 68q5 32 11 63l12 60q12 57 25 107
l24 93l37 130.5l28.5 97l21 67t13.5 40.5q2 5 2.5 8t1.5 5q7 20 16.5 36.5t20 27.5t21 15.5t19.5 1.5h-2q13 -4 19 -16.5t6 -29.5q0 -13 -3 -29.5t-9 -33.5q-2 -6 -4.5 -12.5t-5.5 -15.5q-4 -12 -10.5 -28.5t-15.5 -43l-21.5 -64l-29.5 -89.5l1 2q-1 -4 -1.5 -5.5t-1.5 -5.5
l-24 -77.5l-27 -91.5q-14 -51 -28.5 -114.5t-27.5 -140.5q-3 -19 -5 -38t-3 -39q-1 -8 -1 -14.5v-13.5q0 -14 1 -26t3 -23q2 -8 4.5 -14.5t7.5 -10.5q4 -6 19 -4q19 2 40 11.5t41 20.5v-1q42 26 84 58.5t86 70.5q45 38 88.5 80l90.5 89l82 83.5l74 79.5v-1q5 6 11 12.5
l12 12.5l24 27l-2 -2l2 4t2 5l1 1q0 1 2 3l-1 -1l10 20l18 17q11 -5 17.5 -10t-6.5 -6q5 -2 13 -9.5t14 -28.5l-7 -7q-3 -3 -3 -4q-3 -4 -6 -7.5t-9 -9.5q-3 -5 -7 -14t-6 -13l-37 -73l-37.5 -74.5l-35.5 -70l-30 -60.5l-79.5 -159.5l-64.5 -131.5l-37 -74q-8 -15 -14.5 -30
t-14.5 -29l-54.5 -110.5l-60.5 -117.5l-31 -58.5l-29.5 -55.5l-35.5 -65l-48 -87l86 46q71 35 135 63l122 54q13 5 27 12t26 12q8 3 14.5 6.5t13.5 6.5l109 48.5l95 43.5q100 46 167 80.5l115 60.5l53.5 31l42.5 25t33.5 20.5t28.5 17.5t26.5 16.5t28.5 17.5h-1q18 11 35 18
t32 9t26.5 -1t16.5 -11zM509 1872q-35 -8 -50 -5t-9 15t35 31.5t84 45.5q-24 -10 -23.5 -9t12 6.5l27 12.5t20.5 10h-1l37 19.5t50 18.5q8 2 24 12l33 21l42.5 26t35.5 12q19 0 27.5 -14t0.5 -47q4 4 20 -1.5l38 -13.5q36 -14 75 -32t60 -39l-1 2q26 -20 53 -20q8 0 16.5 2
t18.5 5l-1 -1q24 11 44.5 26t35.5 28q7 5 15.5 13.5l18.5 18.5l29 27.5t21 14.5q35 8 47.5 -10.5t-1.5 -53.5q-4 -10 -18.5 -28t-34.5 -36.5t-43 -33t-43 -18.5q-11 -2 -15 -2.5t-7 -1.5q-6 -1 -21 -3l-27 -3.5t-14.5 -3t16.5 -1.5h2q-24 -5 -50.5 -1t-52.5 19
q-20 13 -49 28t-61 30l-59 29.5t-47 26.5q-60 -19 -118.5 -39.5t-98.5 -37.5q-20 -8 -36 -16t-27 -14l-24 -13z" />
    <glyph glyph-name="exclamdown" unicode="&#xa1;" horiz-adv-x="505" 
d="M349.014 594.02q18.999 116.992 34.498 102.493t15.499 -158.49q0 -38.9971 -3 -94.9941q-5 -93.9941 -25.499 -224.486q-20.498 -130.492 -54.4961 -273.483v1q-20.999 -93.9941 -46.9971 -186.988q-25.999 -92.9941 -52.9971 -178.989t-53.4971 -161.49
q-26.498 -75.4951 -48.9961 -133.491q-22.499 -57.9971 -39.998 -94.9941q-17.499 -36.998 -26.498 -46.998q-27.999 -22.998 -44.9971 -12.499q-16.999 10.5 -16.999 44.4971q0 33.998 18.498 85.9951q18.499 51.9971 60.4971 111.993q13.999 19.999 31.498 57.9961
q17.499 37.998 36.9971 88.9951q19.499 50.9971 39.498 112.493t39.4971 128.992q19.499 67.4961 37.998 138.491q18.499 70.9961 33.498 139.991q10.999 51.9971 19.999 104.494l16.999 102.494q7.99902 49.9961 13.499 94.9941q5.49902 44.9971 8.49902 80.9941
q4 37.998 5 68.9961t2 52.9971q1 25.998 0 44.9971v4zM437.008 1077.99q11 -10 14.999 -23.999q4 -13.999 4.5 -26.998t-1.5 -22.999q-2 -9.99902 -4.99902 -12.999v1q-3 -3 -14 -5.5q-10.999 -2.5 -24.998 -2.99902q-13.999 -0.5 -28.498 2.99902
q-14.499 3.5 -24.499 13.499q-9.99902 10 -12.999 23.999t-2 27.498t4 24.499q3 10.999 6 13.999q2.99902 3 12.999 4.99902q9.99902 2 22.998 1.5t25.999 -4.49902q12.999 -4 21.998 -13.999z" />
    <glyph glyph-name="sterling" unicode="&#xa3;" horiz-adv-x="1758" 
d="M631 686q24 -8 24.5 -16.5t-17 -16t-51 -13.5t-77.5 -10.5t-96 -7t-107 -2.5h-34q-4 -9 -7.5 -18t-7.5 -17q-20 -42 -33 -82l-27 -83q-17 -55 -41.5 -124.5t-68.5 -163.5l-9 -18v1l-13.5 -29t-13.5 -27v1q-2 -3 -2.5 -5.5t-2.5 -5.5q5 2 9 2.5t8 1.5q11 2 22 5t22 5v-1
l101 22.5t107 21.5q54 9 137.5 20t176.5 14h44q61 0 112 -3.5t95.5 -9.5t82 -13.5t71.5 -15.5q33 -8 65.5 -11.5t65.5 -3.5q64 0 135 18q59 15 107.5 38t90.5 46q40 23 74 46.5t63 45.5q59 44 96.5 76l63.5 55t42 39.5t29 28.5v-1q14 14 25 24l25 22q23 20 47 24t38 -11
q13 -14 5 -38.5t-29 -44.5q-5 -5 -9 -8t-8 -5v1q-8 -5 -22.5 -17l-47.5 -38l-13 -10.5l-15 -11.5l-62 -48.5t-87 -65.5l-72.5 -50t-91.5 -56q-51 -28 -112 -56t-135 -45q-34 -8 -71 -12.5t-78 -4.5q-8 0 -15 0.5t-15 0.5q-26 1 -50.5 4.5t-49.5 8.5q-24 5 -47.5 9t-49.5 8
q-42 5 -86.5 8t-89.5 3q-131 0 -287 -21q-63 -8 -111.5 -15.5t-89.5 -14.5l-27 -4l-26 -4l-60.5 -9.5l-57.5 -9.5q-15 -2 -30.5 -5t-31.5 -5q-3 0 -5 -0.5t-3 -0.5q-3 -1 -8.5 -1.5t-8.5 -1.5l-17 -2q-1 2 -11.5 19.5l-19.5 33.5l11 12l2 4q1 2 2.5 4t2.5 4l13.5 22l12.5 22
q16 27 30 56l29 61q30 66 67 168.5t75 226.5l2 8t3 9q-66 3 -112.5 10t-55.5 20q-10 14 -10.5 28t6 24.5t19 17t30.5 6.5q14 0 30.5 -5.5t33.5 -19.5q10 -8 30 -13.5t46 -9.5q32 109 56.5 206.5l43.5 175.5q8 30 13 58.5l10 56.5q11 59 23.5 110.5t35.5 86.5q20 28 50 43.5
t65 15.5q41 0 90 -17t99 -44t100 -60.5t94 -67l79.5 -63l57.5 -47.5l2 -2v1q4 20 10.5 44.5t14 46t16.5 36.5t19 15q28 -7 28 -29t-8 -58q-5 -20 -9 -45t-4 -56v-13.5t1 -14.5v1q3 -24 -3 -30t-20 1t-35 24l-47 37l-66.5 52l-80 59l-87.5 59t-89 51.5t-85 36.5t-75 14
q-26 0 -46.5 -11t-33.5 -35q-7 -13 -13.5 -36.5t-13 -54.5t-13.5 -68.5l-15 -78.5l-19 -99.5t-21.5 -104t-25 -104t-29.5 -97.5q17 -1 34 -1h34q48 0 94.5 2t83.5 4q43 3 83 7z" />
    <glyph glyph-name="currency" unicode="&#xa4;" horiz-adv-x="826" 
d="M771 755q39 15 42 1t-19.5 -49t-66 -86.5l-98.5 -112.5h3l4 -24q6 -8 6 -14q0 -2 -0.5 -2.5t-0.5 -1.5v-4l1 -10q-2 -3 -6 -8.5t-6 -7.5l-9 -12q-2 -3 -6.5 -8t-6.5 -8q-5 -5 -15 -35l-23 -69l-21 -62t-22.5 -60.5t-23.5 -51t-24 -33.5l-4 -4l17 -20l14 -16q7 -8 13 -14
l5 -12q5 -45 -21 -34.5t-72 58.5q-11 -8 -22.5 -15.5l-23.5 -15.5q-14 -9 -33 -18t-38 -15q-21 -8 -45 -9q-4 -1 -8 -1h-6q-6 0 -10 1h-4q-17 1 -31 9q-8 4 -14.5 8t-11.5 9q-37 -32 -64 -49.5t-41 -15.5q-27 4 -41 20t-14 38q0 27 26.5 56t80.5 38h1q2 0 4 1q-4 18 -5 34.5
l-2 33.5q0 21 1.5 40t3.5 36q2 16 5.5 33t8.5 34v-1q9 33 22.5 60t30.5 49q1 1 1 1.5t1 1.5q-29 51 -42 88.5t-4 53.5q11 20 26.5 29.5t32.5 9.5q14 0 27 -6.5t21.5 -19.5t11.5 -33t-2 -46l-1 -1q-1 -3 -1 -11q33 23 60 34.5t46 17.5q20 6 30.5 8.5t15.5 3.5q5 0 18.5 -2
t32.5 -5.5t40.5 -8.5t41.5 -11l78.5 86.5l65.5 73.5l62 70zM513 322l16 59.5t15 44.5l-19.5 4t-20.5 4l-32 6t-29 5t-21 3.5t-9 1.5q-2 0 -3.5 -0.5t-3.5 -0.5q-24 -5 -62 -19q-13 -5 -27.5 -13.5t-28.5 -20.5q-15 -12 -30.5 -30t-27.5 -44q-14 -26 -21.5 -59t-11.5 -73
q-3 -21 -3 -39q0 -22 4 -42q3 -19 11.5 -37t26.5 -27h-1q10 -5 25 -5q22 0 47 10q20 7 36 15.5t30 17.5q26 17 49 39t41 42q4 6 10 22.5t12.5 38.5l14 47.5t13.5 49.5z" />
    <glyph glyph-name="yen" unicode="&#xa5;" horiz-adv-x="1253" 
d="M713 309q34 -12 22.5 -23.5t-54 -20.5t-109 -15t-142.5 -7q-2 -5 -4.5 -8.5t-4.5 -8.5l-31 -58.5l-29.5 -55.5l-35.5 -65l-48 -87l86 46q71 35 135 63l122 54q13 5 27 12t26 12q8 3 14.5 6.5t13.5 6.5l109 48.5l95 43.5q100 46 167 80.5l115 60.5l53.5 31l42.5 25
t33.5 20.5t28.5 17.5t26.5 16.5t28.5 17.5h-1q18 11 35 18t32 9t26.5 -1t16.5 -11q11 -17 -7 -44.5t-54 -50.5q-10 -5 -17 -9t-23 -12l-38 -19.5l-68 -35.5l-120.5 -60l-185.5 -87l-122 -53.5l-144 -60.5q-17 -8 -38 -17l-39 -17v1l-133.5 -57.5t-146.5 -68.5l-79 -42
t-75 -46q-2 -2 -3.5 -4t-2.5 -4l-10.5 -19t-11.5 -19v1l-50.5 -86.5l-48.5 -78.5l-24 -34.5t-29.5 -28.5t-43 -17t-63.5 0q2 18 6.5 35.5t9.5 34.5q11 32 27 59.5t34 52.5q29 38 61.5 67t66.5 55l56 103l57 107v-1l46 86.5l41 76.5q-41 1 -78 3t-66 6t-48 9.5t-24 13.5
q-10 14 -10.5 28t6 24.5t19 17t30.5 6.5q14 0 30.5 -5.5t33.5 -19.5q16 -13 52.5 -19.5t84.5 -8.5q8 14 15 28t15 27q-41 1 -78 3t-66 6t-48 9.5t-24 13.5q-10 14 -10.5 28t6 24.5t19 17t30.5 6.5q14 0 30.5 -5.5t33.5 -19.5q16 -13 52.5 -19.5t84.5 -8.5l71.5 133.5
l69.5 126.5q2 2 4.5 6t4.5 8l-1 -1l70 132.5l89 171.5q5 11 11 21.5l12 21.5l-31.5 -32.5l-32.5 -33.5q-76 -78 -150 -146.5t-146 -122.5q-18 -14 -38 -27l-39 -25q-20 -11 -42 -20.5t-48 -13.5h-1q-14 -2 -31 0.5t-33 12.5q-15 10 -24 23t-14 27q-8 23 -10 44.5t-3 41.5
q0 42 3.5 77t8.5 68q5 32 11 63l12 60q12 57 25 107l24 93l37 130.5l28.5 97l21 67t13.5 40.5q2 5 2.5 8t1.5 5q7 20 16.5 36.5t20 27.5t21 15.5t19.5 1.5h-2q13 -4 19 -16.5t6 -29.5q0 -13 -3 -29.5t-9 -33.5q-2 -6 -4.5 -12.5t-5.5 -15.5q-4 -12 -10.5 -28.5t-15.5 -43
l-21.5 -64l-29.5 -89.5l1 2q-1 -4 -1.5 -5.5t-1.5 -5.5l-24 -77.5l-27 -91.5q-14 -51 -28.5 -114.5t-27.5 -140.5q-3 -19 -5 -38t-3 -39q-1 -8 -1 -14.5v-13.5q0 -14 1 -26t3 -23q2 -8 4.5 -14.5t7.5 -10.5q4 -6 19 -4q19 2 40 11.5t41 20.5v-1q42 26 84 58.5t86 70.5
q45 38 88.5 80l90.5 89l82 83.5l74 79.5v-1q5 6 11 12.5l12 12.5l24 27l-2 -2l2 4t2 5l1 1q0 1 2 3l-1 -1l10 20l31 -65q-3 -5 -7 -14t-6 -13l-37 -73l-37.5 -74.5l-35.5 -70l-30 -60.5l-79.5 -159.5l-64.5 -131.5l-37 -74q-8 -15 -14.5 -30t-14.5 -29l-11.5 -23.5
l-11.5 -23.5q47 0 92 2t80 4q41 3 79 7l9 -1q34 -12 22 -23.5t-55 -20.5t-110 -15t-144 -7l-14 -28l-14 -28q46 0 90 2.5l79 4.5l77 6z" />
    <glyph glyph-name="brokenbar" unicode="&#xa6;" horiz-adv-x="583" 
d="M240 258q-29 -89 -59 -168l-27.5 -69t-30 -67.5t-30.5 -59.5t-30 -45q18 57 44 124.5t52 127.5t49 105.5t36 59.5zM511 973q-29 -90 -59 -169l-27.5 -69t-30 -67t-30.5 -59t-30 -45q18 57 44 124.5t52 127.5t49 105.5t36 59.5zM312 542q-26 -16 -39.5 -36.5t-13.5 -37.5
q0 -23 15.5 -37t41.5 -9q-8 -2 -10 8t1 29t10 46t17 59q-5 -8 -11 -13zM41 -173q-26 -16 -39.5 -36.5t-13.5 -37.5q0 -23 15.5 -37t41.5 -9q-8 -2 -10 8.5t1 29.5t10 45.5t17 58.5q-11 -14 -22 -22z" />
    <glyph glyph-name="section" unicode="&#xa7;" horiz-adv-x="1141" 
d="M317 845l10.5 40.5t11.5 40.5q24 80 56 148t74 116q22 24 46.5 43t50.5 30t53 17t50 7q14 0 26 -1t23 -3q15 -3 28.5 -11.5t20.5 -26.5l-1 1q7 -16 5 -29.5t-6 -24.5t-8.5 -19.5t-9.5 -16.5q-20 -33 -39.5 -56.5l-37.5 -44.5q-35 -38 -73.5 -74.5t-86.5 -77.5l-63 -54
t-78 -61l-13 -70.5t-11 -65.5q-8 -57 -15 -113.5t-12 -104.5q-2 -14 -3.5 -28.5t-3.5 -28.5l-16.5 -142.5t-15.5 -115.5q-20 -119 -43 -179q-10 -27 -21 -46.5t-16 -26.5q-6 -7 -25 -24.5l-41.5 -37.5l-43.5 -37.5t-31 -23.5q-1 -4 -1 -7.5t-1 -7.5q-3 -16 -4 -25l-2 -17.5
t-3 -19t-6 -28.5l17.5 13.5l18.5 13.5l129 93l105 74h-1l54 37.5l48 34.5l56.5 39.5l54.5 38.5h-1l62 43.5l67 46.5l181.5 126l138.5 96l110.5 76.5l76.5 55.5l41 29l31 22l34.5 25t34.5 23q26 17 51.5 17.5t36.5 -15.5v-1q11 -17 -1 -39.5t-36 -39.5q-4 -2 -7.5 -4
t-11.5 -6h2q-8 -5 -25.5 -13.5t-55.5 -31.5l-77 -47l-116.5 -73.5l-164.5 -107.5l-221 -148q-69 -46 -143.5 -101.5l-161.5 -121.5l-168 -130.5l-187 -146.5q-5 -18 -9.5 -36l-9.5 -37q-24 -80 -56 -148t-74 -116q-22 -24 -46.5 -43t-50.5 -30t-53.5 -17t-50.5 -7
q-13 0 -25 1t-23 3q-15 3 -28.5 11.5t-20.5 26.5l1 -1q-7 16 -5 29.5t6 24.5t8.5 19.5t9.5 16.5q19 31 38.5 54.5l38.5 45.5q37 40 76 77l84 76l63 54t78 61l13 70.5t11 65.5q8 57 15 113.5t12 104.5q2 14 3.5 28.5t3.5 28.5l16.5 142.5t15.5 115.5q20 119 43 179
q10 27 21 46.5t16 26.5q5 6 23.5 24.5l41 39.5l44 39.5t32.5 25.5q0 2 0.5 4t1.5 5l12 68.5t14 72.5zM87 -68q-2 -14 -4.5 -28.5t-4.5 -29.5l30.5 31t15.5 17q1 1 1.5 2t1.5 2q6 6 17 28q8 16 19 43.5t23 75.5q12 47 24.5 119.5t26.5 179.5q4 31 9 66l4 28.5l4 30.5
l-31 -35.5t-14 -13.5q-4 -4 -4 -5l-7 -9.5t-9 -17.5q-8 -16 -19 -43.5t-23 -75.5q-12 -47 -24.5 -119.5t-26.5 -179.5q-5 -32 -9 -66zM491 1127q-30 -41 -53 -95t-41 -118l87 71.5l68 58.5q2 2 4 3.5t4 3.5l63 58.5t59 63.5q5 7 10.5 16l10.5 17q3 6 5 11t1 6q-1 2 -9 3
t-19 2q-31 2 -63 -6q-33 -8 -66 -32t-61 -63zM-158 -757q29 41 52.5 95t41.5 118l-87 -71.5l-68 -58.5q-2 -2 -4.5 -4t-4.5 -4l-62.5 -58t-58.5 -63q-5 -7 -10.5 -16l-10.5 -17q-3 -6 -5 -11t-1 -6q1 -2 9 -3t19 -2q31 -2 63 6q33 8 66 32t61 63z" />
    <glyph glyph-name="copyright" unicode="&#xa9;" horiz-adv-x="720" 
d="M208 581l47 28.5t47 22.5t50 12.5t55 -0.5h-2q36 -3 77 -20.5t78 -44t65.5 -59t39.5 -63.5q2 -6 5 -13.5t5 -13.5v1l23.5 -71.5t11.5 -76.5q0 -47 -21 -87q-6 -11 -11 -22l-10 -23q-12 -28 -25 -53.5t-30 -47.5q-49 -60 -108 -113.5t-132 -88.5q-33 -16 -73.5 -29
t-82.5 -13q-18 0 -34.5 2.5t-30.5 8.5q-39 16 -67.5 46.5t-47 68t-27.5 79.5t-9 81q0 79 6 148.5t27 130t62 113t112 97.5zM304 476q-24 -21 -48 -14.5t-30 30.5l-28.5 -19t-25.5 -23q-54 -67 -77 -149t-23 -168v-21.5t1 -21.5q2 -28 7.5 -60t17 -61.5t31 -53t48.5 -34.5
q25 -9 53 -9q41 0 83.5 17t83 45t77 64t66 75t50.5 77.5t31 71.5q5 16 7.5 33t2.5 34q0 10 -1 21t-3 22q-5 37 -23 74.5t-45.5 68t-62.5 52.5t-74 28q-4 -2 -8 -2h-8l-12.5 2.5l-7.5 1.5q-11 -1 -23 -4t-20 -11q-7 -6 -13 -17t-11 -22l-6 -12t-9 -15zM480 368q4 -20 -4 -34
t-21.5 -19.5t-29.5 -1t-28 21.5q-2 6 -4 13.5l-4 15.5l-2 6t-3 7h-2q-26 -11 -55 -34t-52.5 -53t-38 -62.5t-11.5 -60.5q1 -4 4 -9l6 -10q2 -4 5 -7q6 -2 11 -2.5t10 -2.5l-1 1q17 -4 29 -6.5t17 -2.5q6 0 8.5 8.5t3.5 32.5q7 19 18.5 27.5t25.5 8.5q15 0 28.5 -10.5
t17.5 -31.5q-2 -22 -10 -45.5t-23 -41.5t-37 -26.5t-50 -0.5q-10 3 -18.5 5l-16.5 4q-19 4 -35 10t-28.5 16.5t-21.5 28t-13 45.5q-5 31 7.5 66t33.5 68.5t45.5 63l42.5 49.5q29 31 51 42t51 11q7 0 15.5 -0.5t16.5 -0.5q14 -1 23 -7t17 -23q1 -3 3 -8t6 -16t6.5 -18.5
t4.5 -12.5z" />
    <glyph glyph-name="registered" unicode="&#xae;" horiz-adv-x="720" 
d="M165 -31q-17 -15 -34 -15t-29 10.5t-15 27.5t10 35q-22 19 -35 45l1 -1q-11 19 -15.5 42.5t-4.5 47.5q0 26 5 51q8 34 18 56.5t18 38.5q6 9 10.5 16.5t9.5 12.5q11 21 31 53q14 23 42.5 59.5t72.5 69.5q23 17 49 31t54 16q30 4 59.5 -2.5t55.5 -23.5v1q48 -30 85 -93
l-1 2q11 -15 19 -31l16 -32q1 -7 5 -13l4.5 -11.5t4.5 -12.5q5 -13 6 -25l2 -23q0 -8 1 -13q0 -31 -6 -68t-22 -73q-16 -35 -37 -63t-38 -43q-41 -33 -76 -45t-68 -19q-19 -3 -37.5 -4t-37.5 -1h-20.5t-19.5 1q-18 2 -36 4.5t-34 7.5q-3 -3 -6 -7t-6 -7zM165 346
q7 -10 8 -21q2 -13 1 -26.5t-4 -27.5l-10 -33t-8 -34q-2 -8 -3 -16.5t-1 -16.5q0 -15 6 -42q1 -8 4 -15t7 -12q46 56 89 115q0 1 0.5 1.5t0.5 1.5q-14 6 -21 17t-7 22.5t8 21.5t23 14q22 5 40 -3q2 0 4 -0.5t4 -0.5h4q13 17 25.5 36.5t23.5 39.5l5 10q2 5 4.5 9.5t4.5 7.5
v-1q11 23 24 46.5t38 35.5l9 3q-5 5 -10.5 8l-10.5 6q-11 6 -23.5 8.5t-24.5 2.5q-21 0 -41.5 -7t-39.5 -18h1q-32 -20 -56 -44t-40 -43l1 1l-14 -19t-11 -14l-9 -12zM552 241q0 6 0.5 13t0.5 14q-3 -10 -9 -17q-13 -16 -29.5 -18.5t-32.5 -1.5h-6q-2 0 -3 1q-13 -2 -28 -4
t-28 -4q-9 -1 -11 -1.5t-3.5 -1t-4 -0.5t-11.5 -1q31 -37 48 -62q9 -2 24 -4q18 -7 25.5 -18.5t7.5 -24.5v-3q19 21 36 53q10 20 15.5 40t8.5 40zM397 55q8 2 16.5 5t17.5 7q-37 8 -57 29t-38 47l-10.5 14.5t-8.5 11.5l-37 -55.5t-42 -56.5q36 -11 82 -12q20 0 38.5 2.5
t38.5 7.5zM404 302q-2 -2 -2 -3t-1 -2l-1 -1l-1 -2q8 1 18 2t18 2h-1q5 1 8.5 1t8.5 1t12.5 1t13.5 -1q5 0 10.5 -0.5t6.5 -1.5q3 3 3 15q0 14 -4 32t-9 34t-11.5 25.5t-10.5 7.5q-3 -1 -7 -7.5t-8.5 -16l-10 -20.5l-10.5 -22q-13 -27 -22 -44z" />
    <glyph glyph-name="ordfeminine" unicode="&#xaa;" horiz-adv-x="711" 
d="M306 1089q17 11 33 9.5t25.5 -12t11.5 -27t-8 -34.5l-17.5 -15l-17.5 -15q-37 -31 -73.5 -65t-60.5 -76q-5 -7 -9 -22.5t-4 -30.5q0 -8 2 -14t9 -6q23 1 45.5 17t39.5 32q8 8 11 10l-2 -2q19 17 35.5 34l33.5 34l30 30q18 14 34 9t26 -24q2 -6 6 -24.5t9.5 -38t12 -34
t14.5 -11.5q2 2 5.5 7t6.5 10q2 2 3.5 6t3.5 6q14 19 32.5 22t32.5 -5t19.5 -25t-6.5 -38q-26 -36 -49 -51.5t-43 -15.5q-18 0 -33 9.5t-27 25t-22 35.5t-18 42q-16 -16 -31.5 -29.5t-32.5 -26.5h1l-35 -25.5t-37 -22t-37.5 -15.5t-34.5 -6q-35 0 -56 27t-19 93
q1 25 19 55.5t43.5 62t54 60.5l50.5 51l24 24v0z" />
    <glyph glyph-name="guillemotleft" unicode="&#xab;" horiz-adv-x="784" 
d="M619 165q29 -31 35 -44.5t-8.5 -13t-47 14.5t-80.5 39q-23 12 -50.5 28l-57.5 33h-1q-6 4 -12 7.5l-13 7.5l-19 10.5t-19 11.5q-5 2 -8.5 5t-7.5 5l1 -1q-5 2 -10 5.5l-9 6.5l-15 9l1 -1q-2 1 -5 3t-5 3l-14 12v69h39q-7 -8 -22 -31l19 -2l1 -1l10 17q0 3 1.5 9t2 10.5
t-1.5 5.5t-9 -7v29l77.5 45.5t76.5 42.5q-11 -3 -23.5 -5t-26.5 -2q-17 -1 -46 -11.5t-62 -25.5q-2 11 -6 11.5t-10 -18.5q-5 -2 -9 -4l-8 -4l-48.5 -25.5l-50.5 -27.5l-13 -7.5l-13 -7.5l-13.5 -7.5t-12.5 -7.5l-15 -10l12 -6q6 -4 12 -7.5l13 -7.5l99 -59.5l85 -47.5
l81 -44l6 -4q29 -31 35 -44.5t-8.5 -13t-47 14.5t-80.5 39q-23 12 -50.5 28l-57.5 33h-1q-6 4 -12 7.5l-13 7.5l-19 10.5t-19 11.5q-5 2 -8.5 5t-7.5 5l1 -1q-5 2 -10 5.5l-9 6.5l-15 9l1 -1q-2 1 -5 3t-5 3l-14 12v69h39q-7 -8 -22 -31l19 -2l1 -1l10 17q0 3 1.5 9t2 10.5
t-1.5 5.5t-9 -7v29l131.5 76t119.5 64.5t92.5 43.5t51.5 13q31 -8 34.5 -31.5t-17.5 -45.5q69 36 118.5 58t64.5 19q26 -7 33 -25.5t-5 -38t-42 -35.5t-77 -17q-20 -1 -59.5 -16.5t-81.5 -35.5l-48.5 -25.5l-50.5 -27.5l-13 -7.5l-13 -7.5l-13.5 -7.5t-12.5 -7.5l-15 -10
l12 -6q6 -4 12 -7.5l13 -7.5l99 -59.5l85 -47.5l81 -44zM79 384q10 48 16.5 64t10.5 12t6 -21t2 -34l-18 -10.5zM310 449q2 -8 2.5 -20t1.5 -24l-18 -10.5l-17 -10.5q9 39 15 58q4 2 8 3.5t8 3.5zM113 375l1 1v-1h-1zM313 375l1 1v-1h-1z" />
    <glyph glyph-name="guillemotright" unicode="&#xbb;" horiz-adv-x="784" 
d="M125 557q-29 31 -35 44.5t8.5 13t47 -14.5t80.5 -39q23 -12 50.5 -28l57.5 -33q6 -4 12.5 -7.5l13.5 -7.5l18.5 -10t18.5 -11q13 -10 15 -11q4 -2 8 -5t9 -5l18 -10l-1 1q2 -1 5 -3t5 -3l14 -12l-1 -69h-37l25 -14l-179 -104q19 5 48 7q20 1 59.5 16.5t81.5 35.5
l48.5 25.5l50.5 27.5h-1q6 4 13 7.5t14 7.5l13 7.5l13 7.5q4 2 7 5t7 5l-11 6q-6 4 -12 7.5l-13 7.5l-99.5 59l-84.5 48l-81 44l-6 4q-29 31 -35 44.5t8.5 13t47 -14.5t80.5 -39q23 -12 50.5 -28l57.5 -33q6 -4 12.5 -7.5l13.5 -7.5l18.5 -10t18.5 -11q13 -10 15 -11
q4 -2 8 -5t9 -5l18 -10l-1 1q2 -1 5 -3t5 -3l14 -12l-1 -69h-37l25 -14l-138.5 -81t-128 -70.5t-100.5 -47.5t-55 -14q-31 8 -35 30.5t16 44.5q-68 -36 -117 -57.5t-64 -17.5q-26 7 -33 25.5t5 38t42 35t77 17.5q20 1 59.5 16.5t81.5 35.5l48.5 25.5l50.5 27.5h-1
q6 4 13 7.5t14 7.5l13 7.5l13 7.5q4 2 7 5t7 5l-11 6q-6 4 -12 7.5l-13 7.5l-99.5 59l-84.5 48l-81 44zM633 380l-10 -16q0 -3 -3 -11l-6 -16t-4.5 -13.5t2 -3t13 15.5t28.5 42l-19 2h-1zM433 380l-10 -16q0 -4 -5 -16.5t-7.5 -20.5t1 -6t20.5 26l9 13.5l12 17.5l-19 2h-1z
M627 350l5 -3h-3zM427 350l5 -3h-3z" />
    <glyph glyph-name="logicalnot" unicode="&#xac;" horiz-adv-x="889" 
d="M436 350q62 0 119.5 3l94.5 5l1 5q6 17 17.5 25t25.5 8q15 0 29 -11t18 -33q-4 -20 -9.5 -42l-10.5 -42q-9 -37 -17 -77t-4 -82q-4 -21 -17 -31.5t-28 -10.5q-17 0 -31 13.5t-14 38.5q4 20 8.5 38.5l9.5 37.5q7 28 13 55t8 56q-46 -5 -117 -7.5t-149 -2.5q-49 0 -95 2
t-83 5.5t-61.5 9.5t-30.5 15q-10 14 -10.5 28t6 24.5t19 17t30.5 6.5q14 0 30.5 -5.5t33.5 -19.5q11 -9 33 -14.5t50.5 -8.5t62 -4.5t68.5 -1.5z" />
    <glyph glyph-name="degree" unicode="&#xb0;" horiz-adv-x="623" 
d="M255 694q11 15 24.5 19.5t25.5 2t21 -11.5t12 -22h9q6 -2 13.5 -5t13.5 -5t13 -5t14 -5q9 -5 14 -9.5t11 -13.5l4 -17q6 -20 6 -40q0 -26 -21.5 -61t-52 -67t-64.5 -56.5t-58 -30.5q-8 -2 -16 -1l-16 2q-3 1 -8 1h-10q-6 3 -10.5 5.5t-13.5 11.5q-9 27 -14.5 52.5
t-5.5 50.5q0 37 12 71.5t39 67.5v-1q5 7 12 13.5l14 13.5l10.5 10.5t10.5 12.5q2 4 5.5 8.5t5.5 8.5zM316 597q-9 5 -16 14l-24 -21q-2 -2 -4.5 -4t-4.5 -4q-4 -4 -8 -8.5t-8 -9.5l1 1l-7.5 -9.5t-8.5 -9.5q-9 -18 -14.5 -34.5t-5.5 -35.5q0 -20 6 -45q1 0 1.5 0.5t2.5 0.5
l-2 -1q19 6 41 23.5t41.5 40t32 47.5t12.5 46q-9 2 -18 4.5t-17 4.5zM231 559l-21 22q-2 -2 -3 -4t-1 -7zM254 690q-4 -4 -4.5 -5.5t-0.5 -6.5z" />
    <glyph glyph-name="twosuperior" unicode="&#xb2;" horiz-adv-x="351" 
d="M145 530q-11 -21 -27.5 -26t-30.5 2t-22 23.5t-1 39.5q8 20 29 34.5t47 24t52 14t45 4.5h-2q11 2 20.5 -2.5t16.5 -9.5q2 -1 4.5 -2.5t4.5 -3.5l-2 2q11 -7 13 -13.5t4 -17.5q-3 -27 -10.5 -47t-19.5 -35t-27.5 -27t-33.5 -22q3 1 5.5 1.5t5.5 1.5q22 -3 34.5 -16.5
t12.5 -29.5q0 -13 -7.5 -24.5t-25.5 -18.5q-18 -2 -31.5 -4.5t-25.5 -5.5q-24 -6 -48.5 -10.5t-47.5 -4.5q-21 0 -41 6t-40 20q-11 17 -11 32t14 23q5 2 17 7.5t20 9.5l48 21.5t53 27t47.5 30.5t30.5 34q-10 -2 -21.5 -6t-21.5 -8.5t-17.5 -10t-8.5 -10.5z" />
    <glyph glyph-name="threesuperior" unicode="&#xb3;" horiz-adv-x="391" 
d="M96 515q-21 -3 -34 6t-17 23.5t2 30t23 26.5q17 4 32.5 12.5l31.5 16.5v-1q21 12 43 22t48 13q16 1 30 -8.5t23.5 -24t12.5 -31.5t-3 -30l1 1q-7 -17 -12 -25t-16 -19q20 -10 31.5 -29t2.5 -45v1q-6 -17 -23.5 -34.5t-40.5 -32.5t-49.5 -24.5t-50.5 -9.5q-16 0 -30.5 4
t-25.5 15q-6 6 -10 16t-7 20q-1 2 -1.5 4.5t-2.5 6.5q0 26 13 39.5t31 13.5q28 0 42 -26l1 -3q2 -2 2 -4t1 -5q9 -2 19.5 0.5t21 8t19.5 12.5t14 13q-7 -5 -20 -8l-12 -3l-7.5 -2.5t-8.5 -2.5q-11 -2 -19 3t-18 16q0 1 -0.5 2t-0.5 3q-3 9 -1 17t7 17q10 11 19.5 20t20.5 17
q4 3 10.5 8.5t4.5 3.5q1 1 6.5 5.5l11 9l10 8.5l4.5 4q-13 -5 -26 -13.5l-27 -17.5l1 1q-17 -12 -34 -22.5t-40 -17.5z" />
    <glyph glyph-name="onesuperior" unicode="&#xb9;" horiz-adv-x="310" 
d="M142 607q6 17 17.5 25t25.5 8q15 0 29 -10.5t18 -32.5q-8 -31 -21 -59t-27 -52q-17 -30 -31 -61.5t-15 -68.5q-4 -20 -17 -30t-28 -10q-17 0 -31 12.5t-14 36.5q9 33 21 58t26 48q17 29 31 60t15 69z" />
    <glyph glyph-name="ordmasculine" unicode="&#xba;" horiz-adv-x="410" 
d="M200 635q24 -3 34 -20l14 -4t14 -7q24 -17 36 -39.5t12 -47.5q0 -30 -15 -60.5t-39 -55t-55 -40.5t-63 -16q-17 0 -27.5 7t-16.5 18.5t-9 25t-4 26.5q-1 3 -1 7.5t-1 6.5q-3 15 -3 27t2 22.5t6 20.5l9 23l-1 -2q1 2 2.5 7.5t2.5 8.5q7 19 14.5 33.5t18 26t25.5 19.5
t38 13h7zM194 532q-5 1 -6 1t-4 2q-3 -5 -7 -12.5l-8 -15.5q-2 -3 -5.5 -7t-5.5 -8q-6 -7 -9 -17q-5 -14 -3.5 -23.5t4.5 -19.5q2 -8 3 -8t2 -10q17 3 31 13.5t24 24t15.5 28.5t5.5 28q0 16 -6 18q-5 2 -9.5 3t-6.5 2q-7 0 -17 2z" />
    <glyph glyph-name="plusminus" unicode="&#xb1;" horiz-adv-x="727" 
d="M313 502q6 17 17.5 25t25.5 8q15 0 29 -10.5t18 -32.5q-5 -30 -11 -60.5l-12 -58.5q-2 -10 -3.5 -15t-2 -9.5t-1.5 -9.5l-3 -15q27 7 53 15.5l52 16.5h-1q8 3 13.5 4.5t13.5 4.5q4 2 7 3t5 3q20 5 35 -2t21.5 -19.5t4 -29t-18.5 -29.5q-26 -9 -50.5 -13t-50.5 -7
q-8 -1 -14 -2t-13 -2q-20 -4 -34.5 -6t-34.5 -7q-2 -17 -3 -34.5t-1 -34.5v-16t1 -16q-4 -21 -17 -31.5t-28 -10.5q-17 0 -31 13t-14 38q2 18 6 38t9 41q-23 -3 -48 -4.5t-49 -2.5q-14 -1 -30 -1.5t-30 -1.5q-20 4 -29.5 17.5t-9.5 27.5q0 15 10 27.5t32 17.5l38 -3
q26 -2 52 -4.5t49 -2.5h16t16 1q1 3 1.5 6.5t1.5 6.5q1 4 2 7l-1 -2q7 32 9.5 62t2.5 60q0 11 -0.5 21.5t-0.5 21.5zM122 -45q-20 4 -29 17.5t-9 27.5q0 15 10 27.5t31 17.5q48 -2 90.5 6.5t85.5 19.5l46 11t47 10q23 -2 34.5 -16t11.5 -29q0 -17 -10.5 -30t-33.5 -15
q-47 2 -90.5 -6.5t-83.5 -18.5q-25 -7 -49 -13t-44 -9h-7zM526 342v30q-2 0 -4 -0.5t-6 -4.5z" />
    <glyph glyph-name="mu" unicode="&#xb5;" horiz-adv-x="1073" 
d="M212 538q12 16 27.5 20t29 -1.5t21 -19.5t3.5 -34q-57 -129 -101 -264q23 -8 29 -37v-22q0 -16 0.5 -37.5t3.5 -42t9 -37t17 -22.5q14 -4 34 1t41 15t41.5 22t35.5 22q4 2 9 5t8 5h-1l171 110.5t155 125.5q18 18 38 44q14 19 30 37t36 33q17 11 30 6.5t21 -21.5
q9 -20 9 -44q0 -18 -3 -36.5t-7 -35.5l-6 -29t-3 -22v-31q0 -16 -0.5 -31.5t0.5 -31.5q5 -68 16 -68q15 0 46 27q14 11 25.5 22l22.5 22l19 19t18 19l23 22q18 12 33.5 10.5t25.5 -12t12 -27t-8 -34.5l-18 -18l-47 -43t-54 -46q-31 -23 -55.5 -33.5t-44.5 -10.5
q-29 0 -46.5 16t-27 42.5t-13 59.5t-3.5 67q0 17 0.5 33t1.5 30q0 12 1.5 24.5t3.5 24.5q-80 -84 -172.5 -151.5l-187.5 -130.5l-52.5 -33t-52 -28.5t-50.5 -20t-48 -7.5q-37 0 -65.5 23.5t-45.5 76.5q-12 -67 -25.5 -158t-27 -196l-27 -219t-25.5 -226.5l-22.5 -219
t-18.5 -197.5t-13 -160.5t-6 -108.5q-4 -20 -17 -30t-28 -10q-17 0 -31 13t-14 37q3 33 10 104t17.5 166.5l23 208.5l26.5 229.5l28 230.5l26.5 210.5t23 170t18.5 109.5q29 131 62.5 262t81.5 257z" />
    <glyph glyph-name="mu" unicode="&#x3bc;" horiz-adv-x="1073" 
d="M212 538q12 16 27.5 20t29 -1.5t21 -19.5t3.5 -34q-57 -129 -101 -264q23 -8 29 -37v-22q0 -16 0.5 -37.5t3.5 -42t9 -37t17 -22.5q14 -4 34 1t41 15t41.5 22t35.5 22q4 2 9 5t8 5h-1l171 110.5t155 125.5q18 18 38 44q14 19 30 37t36 33q17 11 30 6.5t21 -21.5
q9 -20 9 -44q0 -18 -3 -36.5t-7 -35.5l-6 -29t-3 -22v-31q0 -16 -0.5 -31.5t0.5 -31.5q5 -68 16 -68q15 0 46 27q14 11 25.5 22l22.5 22l19 19t18 19l23 22q18 12 33.5 10.5t25.5 -12t12 -27t-8 -34.5l-18 -18l-47 -43t-54 -46q-31 -23 -55.5 -33.5t-44.5 -10.5
q-29 0 -46.5 16t-27 42.5t-13 59.5t-3.5 67q0 17 0.5 33t1.5 30q0 12 1.5 24.5t3.5 24.5q-80 -84 -172.5 -151.5l-187.5 -130.5l-52.5 -33t-52 -28.5t-50.5 -20t-48 -7.5q-37 0 -65.5 23.5t-45.5 76.5q-12 -67 -25.5 -158t-27 -196l-27 -219t-25.5 -226.5l-22.5 -219
t-18.5 -197.5t-13 -160.5t-6 -108.5q-4 -20 -17 -30t-28 -10q-17 0 -31 13t-14 37q3 33 10 104t17.5 166.5l23 208.5l26.5 229.5l28 230.5l26.5 210.5t23 170t18.5 109.5q29 131 62.5 262t81.5 257z" />
    <glyph glyph-name="paragraph" unicode="&#xb6;" horiz-adv-x="809" 
d="M632 463q19 4 33.5 -2.5t21 -19t3.5 -28.5t-18 -29l-15 -8.5t-15 -5.5q-2 -23 -3.5 -44t-3.5 -38q-4 -41 -8.5 -75.5t-11 -71.5t-17 -82t-27.5 -107q-27 -100 -60.5 -202l-67.5 -199l-82.5 -244t-67.5 -242q-15 -66 -24 -109t-13.5 -78t-7 -69t-4.5 -82q-1 -22 -2 -49.5
t-3 -58.5q-4 -20 -16.5 -29.5t-28.5 -9.5q-17 0 -31 12.5t-14 36.5l6 76q3 38 6.5 76t8.5 75q13 83 32.5 164.5t43.5 161t51 158.5l54 158l80.5 238t67.5 235l24 105t13.5 73.5t7 64.5t4.5 77q0 10 0.5 17.5l1 15.5t1 18t1.5 24q-8 1 -15 2.5t-15 3.5l-25 5q-14 2 -42.5 7
l-60.5 11h1q-8 2 -15.5 2.5t-15.5 2.5q-2 -25 -4.5 -46.5t-6 -43t-9 -46t-14.5 -56.5q-23 -82 -55.5 -162l-65.5 -158q-38 -87 -72 -173t-57 -177q-22 -91 -35.5 -184t-21 -187t-10 -189t-2.5 -190q0 -66 0.5 -133t1.5 -132q-4 -20 -17 -30t-28 -10q-17 0 -31 12.5t-14 35.5
q3 128 6.5 256t13.5 256.5t27 256t47 254.5q22 93 53.5 177l64.5 168l65 167.5t52 166.5q7 30 11.5 51t7 38.5t3.5 34.5t2 40q0 8 -0.5 8t0.5 10q-23 5 -40 6q-4 1 -24.5 3t-40.5 2q-22 0 -29 -3q-20 -9 -45 -32t-47 -52t-37 -61.5t-15 -62.5q0 -28 17 -46v1
q16 -17 34.5 -20.5t40.5 -5.5l34 -3q18 -7 25.5 -18.5t7.5 -24.5q0 -16 -12.5 -29.5t-34.5 -16.5q-13 2 -24.5 3.5t-19.5 3.5h1q-19 3 -30.5 5.5t-22 7t-23 13.5l-33.5 25q-11 9 -16 21t-9 26v-1q-2 5 -2.5 9t-2.5 9v-1q-7 18 -7 42q0 38 20 80.5t50 80.5t64 67t62 40
q26 10 79 10q23 0 48 -2l51 -4q15 11 33.5 10t29.5 -17l52.5 -8l46.5 -7q41 -6 58 -8q5 -1 9.5 -1t9.5 -1q12 -2 24.5 -3.5t23.5 -1.5q26 0 44 11z" />
    <glyph glyph-name="periodcentered" unicode="&#xb7;" horiz-adv-x="261" 
d="M124 338q15 10 29 10t24.5 -6.5t16 -19t2.5 -27.5v-3q0 -1 0.5 -1.5t0.5 -1.5l-5 -20q2 -8 2 -15q-2 -14 -5.5 -20.5t-13.5 -12.5q-8 -14 -18.5 -27t-27.5 -20q-14 -6 -26 -3q-12 -7 -25.5 -9.5t-28.5 3.5q-11 8 -16 16t-5 22q5 32 26.5 59t44.5 50q6 6 11 11.5l10 10.5z
" />
    <glyph glyph-name="periodcentered" unicode="&#x2219;" horiz-adv-x="261" 
d="M124 338q15 10 29 10t24.5 -6.5t16 -19t2.5 -27.5v-3q0 -1 0.5 -1.5t0.5 -1.5l-5 -20q2 -8 2 -15q-2 -14 -5.5 -20.5t-13.5 -12.5q-8 -14 -18.5 -27t-27.5 -20q-14 -6 -26 -3q-12 -7 -25.5 -9.5t-28.5 3.5q-11 8 -16 16t-5 22q5 32 26.5 59t44.5 50q6 6 11 11.5l10 10.5z
" />
    <glyph glyph-name="onequarter" unicode="&#xbc;" horiz-adv-x="771" 
d="M482 66q19 4 33 -2.5t20.5 -19.5t3 -29t-18.5 -29q-14 -6 -26 -29.5t-20 -46.5q5 2 7 3t7 3q23 8 45.5 15t48.5 2q8 -4 13 -7.5t10 -15.5q3 -15 3 -36q0 -25 -5.5 -52.5l-11.5 -56.5q-4 -15 -7 -28t-5 -28q-1 -12 -1.5 -26t-1.5 -26l-1 -2q0 -2 -0.5 -6t-3.5 -9
q-2 -4 -8 -10l-6 -6l-4 -2t-9 -3q-15 -4 -29 5l1 -1q-13 7 -20 22q-2 5 -2 8.5v8.5v9q-1 14 -1.5 27t-2.5 26q0 18 5.5 28.5t16.5 15.5q2 5 3 11.5t3 11.5q5 19 10.5 35.5t8.5 39.5q-5 -2 -12 -6l-12 -7l-28.5 -16t-34.5 -8q-11 0 -23.5 4t-28.5 15q-6 9 -7.5 14.5
t-1.5 14.5q1 20 7.5 47t17.5 54t26.5 50.5t35.5 35.5zM136 650q6 17 17.5 25t25.5 8q15 0 29 -11t18 -33q-5 -23 -13.5 -44l-17.5 -42q-4 -8 -7 -16.5t-7 -16.5l1 1q-11 -31 -13 -50t-1 -32v-12q-4 -20 -17 -30t-28 -10q-17 0 -31 12.5t-14 36.5q6 25 13 42t15 33v-1l8 18
l8 18q6 14 9 23t4.5 17t1.5 16t-1 20q0 5 -0.5 10t-0.5 11zM-179 -375q-46 -21 -66 -27.5t-19 1t20.5 27.5l53.5 53q29 27 80 83q61 66 140.5 161l166.5 203v-1l101 126.5l98 124.5l106 134l94.5 117t73.5 86t43 40q32 13 43.5 -2t2 -47t-41 -74.5t-85.5 -84.5
q-26 -20 -65 -61.5t-86.5 -97l-101 -121.5l-107.5 -133v1l-42.5 -52.5l-42.5 -52.5l-129.5 -156t-113.5 -130v1q-26 -29 -47.5 -50l-37.5 -36q-18 -18 -34 -30z" />
    <glyph glyph-name="onehalf" unicode="&#xbd;" horiz-adv-x="771" 
d="M397 -131q7 9 15 17.5l16 16.5h-3q-20 4 -29 17.5t-9 27.5q0 15 10 27.5t32 17.5q58 -5 85.5 -19.5t27.5 -41.5q0 -19 -15.5 -40.5t-45.5 -50.5l-21.5 -21l-21.5 -21q10 1 19 1h19q11 0 21.5 -0.5t21.5 -0.5q16 0 31.5 -0.5t31.5 0.5q65 2 128.5 6t128.5 9
q57 4 115.5 7.5t115.5 5.5q23 -2 33.5 -16t10.5 -29q0 -17 -10.5 -30t-32.5 -15q-35 1 -70 1h-70q-88 0 -174 -1.5t-174 -3.5h-42q-13 0 -26 0.5t-27 0.5q-20 0 -37 -1t-26 -5q-16 -5 -38.5 -9.5t-41.5 5.5q-22 12 -24.5 27.5t5 31t20.5 29l22 22.5v-1l3 3l5.5 7l5.5 7
q0 -1 1.5 1.5t4.5 5.5t5.5 6.5t3.5 5.5zM90 607q12 16 28 20t29 -2t20.5 -20.5t3.5 -35.5q-30 -58 -53 -115t-37 -122q-11 -21 -28 -27t-31.5 0.5t-22.5 22.5t-1 39l21 42l18 34.5t16 36.5q9 23 14 42.5l10 38.5v-1q2 10 5 19.5t5 19.5zM-179 -375q-46 -21 -66 -27.5t-19 1
t20.5 27.5l53.5 53q29 27 80 83q61 66 140.5 161l166.5 203v-1l101 126.5l98 124.5l106 134l94.5 117t73.5 86t43 40q32 13 43.5 -2t2 -47t-41 -74.5t-85.5 -84.5q-26 -20 -65 -61.5t-86.5 -97l-101 -121.5l-107.5 -133v1l-42.5 -52.5l-42.5 -52.5l-129.5 -156t-113.5 -130
v1q-26 -29 -47.5 -50l-37.5 -36q-18 -18 -34 -30z" />
    <glyph glyph-name="threequarters" unicode="&#xbe;" horiz-adv-x="771" 
d="M-10 555q14 19 35 19t35 -13q2 1 1.5 0.5t1.5 -0.5l-1 -1q17 5 33 7.5t30 2.5q25 0 50 -13q10 -8 14 -15.5t6 -18.5q-5 -28 -20 -53.5t-35 -49.5q16 5 30.5 8.5t27.5 3.5q14 0 27 -4.5t24 -16.5q5 -9 6.5 -15.5t-1.5 -17.5q-12 -41 -38.5 -74.5t-54.5 -62.5
q-14 -14 -27.5 -29l-20.5 -23q-6 -8 -12 -17.5t-10 -16.5l-6 -10l-6 -10q-8 -14 -23.5 -16.5t-25.5 -2.5q-15 5 -23.5 15.5t-10.5 22.5t2 24t15 19q17 23 38 44.5l42 42.5q18 17 35.5 35.5t31.5 37.5q-17 -5 -33.5 -11.5t-33.5 -14.5q-23 -10 -45 -18.5t-42 -13.5
q-13 -2 -22.5 3t-14 14t-3 19.5t9.5 19.5l18 18l55 54t49 61q-8 -2 -15.5 -5t-15.5 -5h1q-17 -6 -33 -10.5t-33 -4.5q-29 8 -38.5 28.5t7.5 43.5q3 4 5.5 7t7.5 6l-1 -1l4 2zM501 144q6 17 18 25t26 8q20 0 33.5 -15t8.5 -42q-6 -23 -16 -43t-22 -38q13 5 23 8q24 0 34 -23
q9 -26 9 -52q0 -28 -5 -56t-11 -56q-5 -23 -8.5 -43t-5.5 -40q-4 -20 -16.5 -29.5t-28.5 -9.5q-17 0 -31 13t-14 38q4 23 10.5 47.5l13.5 48.5q4 12 7 19l5.5 13t4 14t1.5 22l-31.5 -20.5t-32.5 -19t-28 -13.5t-18 -4q-32 10 -32 42q3 14 10.5 25.5t15.5 22.5q2 3 3 5.5
t3 4.5l8 12.5l8 12.5q19 29 35.5 58t21.5 61zM-179 -375q-46 -21 -66 -27.5t-19 1t20.5 27.5l53.5 53q29 27 80 83q61 66 140.5 161l166.5 203v-1l101 126.5l98 124.5l106 134l94.5 117t73.5 86t43 40q32 13 43.5 -2t2 -47t-41 -74.5t-85.5 -84.5q-26 -20 -65 -61.5
t-86.5 -97l-101 -121.5l-107.5 -133v1l-42.5 -52.5l-42.5 -52.5l-129.5 -156t-113.5 -130v1q-26 -29 -47.5 -50l-37.5 -36q-18 -18 -34 -30z" />
    <glyph glyph-name="questiondown" unicode="&#xbf;" horiz-adv-x="1180" 
d="M851.015 512.024q28.999 14.999 36.998 14.999q22.999 0 25.498 -7.5q2.5 -7.49902 -10.999 -21.998t-42.4971 -35.998l-69.9961 -49.4971l-83.9951 -56.9961l-102.993 -70.9961l-190.988 -135.491q-102.994 -74.4961 -216.987 -165.49l-112.993 -92.4941
q-58.9961 -49.4971 -112.993 -100.494q-61.9961 -55.9961 -108.993 -108.993q-25.998 -28.998 -49.4971 -58.9961q-23.498 -29.999 -41.4971 -60.9971q-11.999 -19.998 -19.499 -41.4971q-7.49902 -21.499 -7.49902 -40.4971q0 -11 4.99902 -20.999
q10 -19.999 38.498 -32.498t61.4961 -18.499q37.998 -8 75.9951 -10.499q37.998 -2.5 75.9951 -2.5q37.998 -1 77.4961 0.5q39.4971 1.5 77.4951 4.49902q71.9951 6 149.491 19.499q77.4951 13.499 141.491 31.498q65.9961 20.999 130.991 48.4971
q64.9961 27.499 116.993 57.4971q53.9971 31.998 99.9941 67.9951q45.9971 35.998 84.9951 72.9961q38.9971 36.998 70.4951 73.4951q31.498 36.498 54.4971 69.4961q31.998 45.9971 53.4961 82.4951q21.499 36.498 34.498 60.4961l17.999 32.998
q28.998 42.9971 44.9971 46.4971t23.999 -32.498q2 -12.999 -2.5 -40.4971q-4.5 -27.499 -18.499 -64.4961q-13.999 -34.998 -37.998 -78.4951q-23.998 -43.498 -56.9961 -87.4951q-32.998 -41.9971 -80.9951 -86.9941q-47.9971 -44.998 -96.9941 -78.9961
l-91.9941 -59.4961t-133.992 -70.4961q-76.9951 -34.9971 -170.989 -63.9961q-93.9941 -28.998 -202.987 -43.9971q-53.9971 -7.99902 -110.993 -11.999q-56.9971 -4 -116.993 -5q-57.9961 0 -119.493 3.5q-61.4961 3.5 -121.492 17.499q-29.998 7.99902 -59.9961 21.999
q-29.998 13.999 -46.9971 35.998q-10.999 12.999 -15.499 28.998t-4.5 32.998q0 27.998 10.999 57.9961q11 28.998 27.499 55.4961q16.498 26.499 35.4971 52.4971q17.999 24.999 38.498 48.4971l42.4971 46.4971h-1q84.9951 88.9951 176.989 166.99l182.989 148.991
l171.989 128.492l154.99 110.493l186.989 127.492l111.993 73.4951q4.99902 3 8.49902 5.5t5.5 4.49902q3 2 5 3zM1028 1090.99q3 3 15.999 8.99902q12.999 6 29.498 10.5q16.499 4.49902 32.998 3.99902t26.499 -10.499q10.999 -9.99902 11.999 -27.998t-2.5 -35.498
t-8.49902 -31.498q-5 -13.999 -8 -16.999v1q-3 -3 -18.499 -9.99902q-15.499 -7 -35.4971 -12.5q-19.999 -5.49902 -39.498 -5.99902t-29.498 9.49902q-10 10 -8.5 27.498q1.5 17.499 8 35.998q6.49902 18.499 14.499 33.998q7.99902 15.499 10.999 19.499z" />
    <glyph glyph-name="dotlessi" unicode="&#x131;" horiz-adv-x="1840" 
d="M2092 528q8 -17 -1 -36t-29 -28q-5 -2 -8 -3.5t-8 -2.5l1 1q-3 -1 -9 -2.5t-18 -5.5l-32 -11l-53 -19l-111.5 -41.5l-170.5 -63.5l-243.5 -88.5t-333.5 -109.5q-195 -58 -356 -91.5t-297 -36.5q-68 -1 -129.5 8.5t-112.5 38.5q-26 15 -47 34.5t-34 42.5q-14 23 -21 47.5
t-9 44.5q-3 43 3 78t13 64q10 35 17 54.5t13 33.5q11 29 20.5 47t14.5 26q12 20 32.5 26.5t36.5 -4.5q14 -11 18 -29.5t-5 -35.5q-4 -9 -4.5 -10t-2.5 -3l-7.5 -12l-11.5 -18q-7 -10 -13 -22l-14 -28q-8 -18 -16.5 -41t-15.5 -52q-3 -14 -5 -30t-2 -34q1 -18 4.5 -36
t13.5 -34q10 -17 26.5 -32.5t39.5 -27.5q24 -12 52 -19.5t60 -11.5q43 -6 91 -6q50 0 105.5 5.5t118.5 15.5q90 15 194 41t214 58l158.5 50.5l145 50.5l127.5 47.5l105 40.5l158.5 65l109.5 48h-1q50 23 76 36.5l42 21.5l21.5 10.5t21.5 9.5q21 8 40.5 2t27.5 -23z" />
    <glyph glyph-name="hungarumlaut" unicode="&#x2dd;" horiz-adv-x="1144" 
d="M679 1212q54 17 48.5 -6.5t-71.5 -74.5q-31 -23 -80.5 -50.5t-103.5 -50.5q-56 -24 -115 -41.5t-104 -26.5q-26 -5 -50 -7.5t-41 -2.5q-34 0 -46 12q-14 14 -17 28.5t4 26.5t22.5 19.5t38.5 7.5t52 -12l-1 1q13 -6 35 -6q21 0 49 5t59 13t63 19.5t62 25.5
q36 17 74.5 38.5t61.5 37.5q17 12 29 21.5t19 14.5l4 3zM1090 1212q54 17 48.5 -6.5t-71.5 -74.5q-31 -23 -80.5 -50.5t-103.5 -50.5q-56 -24 -115 -41.5t-104 -26.5q-26 -5 -50 -7.5t-41 -2.5q-34 0 -46 12q-14 14 -17 28.5t4 26.5t22.5 19.5t38.5 7.5t52 -12l-1 1
q13 -6 35 -6q21 0 49 5t59 13t63 19.5t62 25.5q36 17 74.5 38.5t61.5 37.5q17 12 29 21.5t19 14.5l4 3z" />
    <glyph glyph-name="dotaccent" unicode="&#x2d9;" horiz-adv-x="566" 
d="M332 1263q20 -3 32 -16.5t12 -29.5q0 -13 -7.5 -24.5t-26.5 -18.5q-1 0 -2 -0.5t-3 -0.5q-14 -22 -40.5 -42t-51.5 -37h1q-6 -5 -10.5 -7.5t-9.5 -6.5q-8 -11 -17 -19t-22 -10q-14 -1 -24 4t-14.5 13t-3.5 18t8 20l8 8q8 16 16 30t18 28q-6 15 0 34q13 29 43 40.5t59 8.5
q8 4 15 5t14 3h6z" />
    <glyph glyph-name="zero" unicode="0" horiz-adv-x="1046" 
d="M940 634q7 -23 9 -48q2 -22 -8 -38t-24 -21q13 -7 21.5 -22t6.5 -34q0 -14 -3 -35q-2 -14 -6.5 -39t-17.5 -58q-12 -35 -37.5 -84.5t-77.5 -104.5q-53 -54 -139 -105t-207 -79q-17 -2 -33 -3.5t-35 -1.5q-26 0 -47 3q-51 9 -91 37q-40 25 -63 55.5t-38 59.5
q-13 27 -21.5 54t-15.5 52l-10 43t-8 40q-5 29 -7 59t-2 62v35q1 4 1 7t1 8l4 39.5t7 40.5q5 27 15 59.5t30 68.5q29 46 57 76.5t56 53.5q27 22 52.5 37l49.5 29q22 11 45 21t49 19q24 8 50 13.5t55 8.5q8 1 16 1h16q37 0 72 -6.5t64 -17.5q36 -17 62.5 -35.5t46.5 -38.5
q38 -42 56.5 -77.5t26.5 -59.5l13.5 -42t8.5 -32zM856 474q0 20 9.5 35t24.5 20q-13 6 -21 18.5t-10 28.5l1 -3q-1 3 -1 6v10v8q0 7 -0.5 18t-4.5 33q-2 12 -5.5 25t-9.5 30q-5 15 -13.5 34.5t-23.5 39.5q-14 21 -35.5 42t-51.5 35q-27 14 -59.5 21.5t-70.5 7.5h-15.5
t-15.5 -1q-52 -4 -108.5 -27t-112.5 -65q-26 -20 -51.5 -45.5t-47 -56t-36.5 -66.5t-21 -78q-8 -56 -10.5 -98t-2.5 -74q0 -34 1.5 -62t5.5 -60l-1 3q1 -3 1 -6.5t1 -6.5q3 -20 12 -52v2q1 -2 1.5 -3.5t1.5 -3.5q7 -20 14.5 -38.5t18.5 -35.5v1q14 -20 33 -40t47 -34
q35 -19 84 -19q25 0 60 8q20 4 36.5 9t32.5 11q3 1 8.5 3t8.5 3h-1l36.5 17l35.5 18q38 20 67 40t52 39l-1 -1q45 43 70 85.5t39 76.5t19 61t7 44t2 28v15z" />
    <glyph glyph-name="one" unicode="1" horiz-adv-x="714" 
d="M140 296q-17 -8 -35.5 0t-25.5 23q-5 18 0 34.5t19 24.5q3 2 6 3t8 1q4 1 11.5 4l22.5 9l-2 -2l30 18.5t49 36.5v-1q28 23 63 57.5t74 88.5q21 29 41 65t40 79q11 22 20.5 44l19.5 47q2 5 5.5 11.5t5.5 11.5l-1 -1q3 8 6 13t7 13q3 12 11 27q0 3 0.5 6.5t0.5 4.5l9 11
l63 -37q5 -3 2 -17.5t-10 -36t-17 -46l-19 -46l-16.5 -38t-9.5 -21.5q-1 -2 -4 -8.5t-5 -11.5l1 1l-37 -103t-48 -164q-28 -118 -43.5 -207.5t-23.5 -143.5q-5 -31 -7 -51.5t-4 -33.5q-1 -8 -1.5 -15t-1.5 -10q-3 -14 -18.5 -25t-33.5 -9t-29 16.5t-9 33.5q1 3 2.5 7t4 13
t5.5 23l8 37q1 4 2 7.5t2 8.5q10 48 30.5 135.5t59.5 227.5q11 35 20 66.5l17 57.5l6 21l6 20q-6 -10 -14 -20v1q-35 -51 -65 -86.5t-54.5 -60t-43.5 -40.5t-32 -26l-10.5 -8.5l-8.5 -6.5l-25 -18.5t-23 -14.5h-1z" />
    </font>
</defs>
</svg>
